<mxfile host="app.diagrams.net" modified="2022-07-14T03:33:14.014Z" agent="5.0 (X11; Linux x86_64) AppleWebKit/537.36 (KHTML, like Gecko) Chrome/80.0.3987.132 Safari/537.36" etag="s9OqKj5HalNl8t8EV8d7" version="20.0.1" type="github">
  <diagram id="L-ckIpywwp1Bj0hdnYlW" name="第 1 页">
    <mxGraphModel dx="1146" dy="491" grid="1" gridSize="10" guides="1" tooltips="1" connect="1" arrows="1" fold="1" page="1" pageScale="1" pageWidth="827" pageHeight="1169" math="0" shadow="0">
      <root>
        <mxCell id="0" />
        <mxCell id="1" parent="0" />
        <mxCell id="nBw6GsbtSf8_8-KWiXff-7" value="" style="shape=image;verticalLabelPosition=bottom;verticalAlign=top;imageAspect=0;aspect=fixed;image=data:image/png,iVBORw0KGgoAAAANSUhEUgAAAbEAAAFZCAIAAACZpYYJAAAACXBIWXMAAA7EAAAOxAGVKw4bAAAgAElEQVR4nOy9eVxUV7rvvWoeqGKGoiiGYh4EwaAoQhRlUBxxiJrEtJ03/fa135xOd6ff3HNzOt3nTXf6dHLS6Xj73D7pY7+3owaNI6KiMgoiAgoyjzIUFEMxFAXURI173z+W2VTXRIEDYNb348dP7bXXWvvZe1c9rPH5keRyOVgUSqWSw+EsruzzY3R01MfHZ6mtMAc9K8dBz8px0LNyHMefFQnHcVvn5AqFEnBE09i4Cqj1uFKH67G5s3q9nkaj2SprNBopFMqLP6vVahkMxnKzCj0rx8+iZ+X4WfSsHDxLIwMqpnXnsrydQLAb2YdDIv1jBoVCweVy4Weq1SoMGGgew+qGaTrcYMsCBAKBWBHoMaDWk2cV2LACNIxibBop3oe82ptMJVvJbMUn9k7hFQMGlR4YjcC2U0YgEIgViVqPVw0am0aNmwKpIW5mTcZ/7DvjANSOYLXDRphkNBo1euPQ2OSwdFo5q1FrdAaj8QVajkAgEM8AKoXCZtA4bJbA09WP5+HEpMN0EgBr+OQkAUWpnOs7z/lEHAdFfcZu2ZMhQ7VW19wj7h2esDPgiEAgECsLEgkEeHu8EiF0Yj0Z9AxzJyd5qZ2dLXxi9RD2SPKkGTg4Lrvf0m0woFYhAoF4CaFSKCmrw/283eBhjLsuNcQJfn4yxtg7hdd/5xA7ByQVjZ3IISIQiJcVg9F4t7GjSyyBh80TlN6pJ11kMgDAiIN7YgNsLg6Oyx51iVB3GYFAvNzgOKjrFA2NTwEAcADuiTEDBgD0iY2jmFIHAABqre5+SzdyiAgE4vsAjoP7LY9nNXoAgFKHN48ZAQBkuULxaFhnNBqNRmPT4wHUZUYgEN8f9AZjY88AAMBoNNYO6eRyBVkJODqcQqFQNHpj34h0qS1EIBCIF0rfyMSsVkehUPSAqiJzyKLpJyOLQ2OTOEDdZgQC8f0Cx3E4qggA6JvCyOOqJ35wWDq9dFYhEAjEkjEy+cT7Tahxskr3xCcq1bNLZ9JTEefvEsZ7EvFiTaBruM/CIoWYFkcQPOVTXZ7YuZHv+dfge377SrX2yQcdIKsMT7b7qXX6pTPpqXg7JWBnHA9+PrbRf8dq3qKLPxOYNLK381xckBOvx/5yW+gzrP/F8JRPdXnetZ0bMb3fF2P8Qr8nphnMyj49z/xXsLJQa3Xwg0oPyPonm5sBmnF+VmwM9fi3A9HEYU3vVNPgzBLasySs6Lt+McYv9HtimsGsLOIpISI56I249VhhiKfBmfUPT/X8w6GlsmQJWdF3/WKMX+j3xDSDWVnEM+QlfLIUEulnGSEZ0d5aA3a1fiSnetDxsiQAjqz3y36F7+5EbxTPfFnUMzKtgaf2J/geWOvr48xsH5GfKO7tHVeF+3COJvnHCpzZDEpp+8SXRb16I/bfs8KyX/Elk0DNR5sHJtWHv6o98Xps/6T6RFGvnfpPvB5b3DbuyWXsjPPhMChn7g868rN00CRYf0HruJ8b67V1vn8q7Clum/jBRv/d8T4cJvVh39QXhT3T6nlGThb6VE3v+sTrscXtE76uzF1xPjOz+v8o6RNPqn+5PXRNgGvbsPw3eR3yWQMAYEOI+z+lBQvcmKIJ9deVA/ceT9qv/36PTODGTIvy0hvxq49GvvnOpDP/d0JBy9i5miEAAItGKfvnlHe+bmgbljt+I6bGW33Otqyy9fwtKzmQ4Gvre/LJ/mgcx399tQMW3Bzh+S+7wnd8Wf3F4RiYwew71jWqpJBIv8pth/mTQtx/uy9q+5+qjJjNZST278jWXVh9QQt6ayuCl9AnZr/C/98VA+/mNMUIuP+8I1yq1BW0jDlY9p1NwuxX+L+/0TUyrTma5P+3H645/FWtUms4lhxwNMn/89vdbSOK1AhPMokEAEiP9uoYUXx9b8CFTfvstVUiqfpS7fCXRb1yjSExyO3db5os1zbZqh8A8F5GyO2WsV/ntm+K8HwvI7isc2JMrrVjquMmwfxvrPcTy2b/+VJb77jqp+nBq/2c//lS25Ra/982C3+zJ/L98y3P76kCAH6aFnyjcfSDC60/SA74//ZGTii0p+6Lz1YPffbaqiOJfifv9jOo5D8cjD5dKc5rkET7cqlka9E+Ler8+72Bn55tXuXL/ecd4ROOmbTQG7H6nG1h6/lbVmLne1LcNv6bPZE0CgmOa22K8CzrkJo6OLOyawJc/+1gNJNG1ugxAMDGUPfK7kk7DnHeO7J6F1Zf0CLe2vKHqtev1KkVW+TVS07dFwMABibV8QGue+J9HPz1suiUY8n+v7veVd0rAwD84ebjS//PuoNrfc8/HHrn1cDPC7qL2sYBAGdrnrQs/vOOiChb0zuVIHS9VDusN2IGI4bh+KzefHzWVv3Q2srHk7BhMibXvvNqYBiPY8cnMmlkx02Ch3Qq+eNrnXoj5syiHk70O/LVQ7FsFgBwori39L+nsOkUtc7egPKinyrkfvfkX+70AQCuNUjSo70+vNLePDgDAKjrn47gcwAATBqFRaO0jSim1fqqHpkjdV5reGJSv3QBJi3oRmw9Z1tYff62KrH1PanqkeEATxC61fTKyCRSSpj7r660m2Yw+449FE1pdFhSiEdZ5wQAYGOo+3+U9j3NHdm4CysvaBFvbdlCeEKqHT2HFYrRZMN295gyMdjNwYJBnmwahfxo4MlKJQzHG8QzEXxOsJcTnUqGjsyMVQLn7THeYTyOnztreGqexUy26oeHCu0TmYdptV4+a3Bi2AtxvgiTavpksAcU4uVEJoGTP1xDnCIB4M6hq2X27F/0U4UQdyeeVAMAlJonhwOT6rVCVwDAzKz+r+Wizw/FVHZPnr4v7h5Tzlvn4kxaUCk7z9kWls9/oZXojdjdrslN4R41vbL4ABcMA/UD9uZejBhe3D6eFu1V1jkR4M7y4jIe9E495R1Z3oXVF7SIt7ZsITzhy9DWtQOTRpm12/wxhUQiAQBMQ2DgOCCRSE86FxZ9kV9khn6wPbSqR/azc803GiWLrt8yJzZfHI6nMUmuMQAADn31cPufquC/DZ/cHbLrEM1Y0FM1w6xLZxqx+FSl+NBXD6dUur/9cM3x1KAFVWtmEgnY6+HaKmWJredsC6vPf6GVAACK28Y3RXiSANgc4XmnY2Le70NBy1hymDudSk4KdX8omrJsexI4Yoytb5HVF/Q0b2158pL7xFcCXXpsj4ibIZpQGTB8TYALPCSTQFyAy+NRpUiqMmJ4gtDVNLO7E/1wouBXuR3VvTKtATP9ERownGFN/MZW/Yu4r4WaZMqgbFatMyaFuC/iupAFPdUFMS7XflHY87vrna9v8CM75NaekCB0JUxSa40CNyb87M6x1w2a90asPmdb2Hr+tiqx9T0BANSKpqhkUiSfmxLmXtIxYZnBrGz7iGJcrl0ndNsQ4l7eaS9qwbx3ZP9bZPUFLfqtLU9eBp+o0hpdWTRiqDg1wnNzhKePC+NYckBisNuZ+2IHi6t1xpyqwZ9lhKwLchO4Mf/f7WFcBvVS7bBKa/z2wdDPMkJeDffwcWHsiffZFuNNIgEcgM0RHq5s2vZYXvYrfKLC4SlNsJdTrJ+zj8s/rKq1Vf/ibnlBJpmiM2Bf3xv4eUZocqgHh0GN9XPeFuMNT/3hYPTPMkKeyVNdKGsCXP5lV0SgB5vLpK4JdB2Ta21PEjxhS6RXaqSnjwvjhykB64JcCZO6x5QbQ93DeJz1wW6/2xdNzPzavxGz+yUSLZ+zLXtsPX9bldj6ngAAjBhe1ik9muTPpFGaxFY23VqWLWgZ3xrludrPpbLb3syvLWOI27d1F1Zf0CLe2vLnZZh3vtMx8dGeiITmsVrRFAAgr0GStZr36z0RI9Oan3/b8ni+MQ7T4ifvipRawz9nhbk60ZoGZ350qkGhMQAA/vOOSKkxvJce4u5Ebx+Rf1UmmlTq/lTY83+lBB5J9LvbJT15t5/4tZR3Su9GSv/8xuqRac1bf3tkei1b9S+CBZlkxjfVg7N64z+lB/u4MMSTsxe+W/fDYVCd6IZn8lQXSu+ESqM3fnE4xoNL75IozWYVrNI6LN+xmvfr3ZHD07OmJp2uEofyOH/9QXzbsPzja53/841Y01K2bsTsfgksn7Mte+w8f6uV2PmeAACK28b/8624S7XDVr2MWVkMxwtbxy6/m9g0KJ93WZVVY0xv3+pdWH1Bi3hryx/Sfzx8sqklp7BqaU1BIBznxOuxIqn6fxb3LrUhy4gLP1mXVy/59sEKXi2/hBzdthF+eBnaiY7wx8Mx/u4ss8TyTqmdP/vLgWVu9vM2z379dlcKPkeW50vxc2f5urLufDf4uDyNXBGgdiJiRWK21eT7DJNGdmbR/seOcJXWQOx+QSwUop34MsyxIBDfZzaFe144vs6AYZ8XdC+1LS8DVKMRhcNBrDx+/u08mxG/PxS1jcNNKYingfCEVArF3n4JBAKB+D5AeELUd0YgEIg5kE9EIBCIOZBPRCAQiDmQT0QgEIg5kE9EIBCIOZBPRCAQiDmQT0Q8X/bE+/i6Mq2eIpPA/gRfJm1hX8LUCM8NTxHoDIGwz/dlvzPiBRDF5xLqySKpOvfRCACATiWvD3YL9GQT2f53xQCMBhTG4zCoZI0ei/Vz3hbzD+LCDQPTpd9t3V0X5JYYNBcNm0kj4wAkBM5FAGwZklc8thc0EIFwHLSPBfHM6JAoOiSKHyYH5DePShU6Iv2haPpqveTgWt8G8YypRNy6IDcYs6BlSN4yJD+eGnSxdlim0h1J9Bs0iftdK5oyjd+1JdJLazCudPUPxHKD8IRkyncsrUGIl4+MVd52+sXBXk5qnXFkWrMhxN3HhQkAYNDIWoORSiYJ3JhimfoFWopAAMITor4z4nnBd2HairrMoJK3RnnebhkTuDHXBLg0iWdgolaP+bmzpEodlOUk2J/gy3N+ElCaRadgOB7n/0TCQW/E//+K/ud3F4jvG8gnIp4XVArJ8I9x/wki+FxPDmNPPJ/LpF5rkMzqjXQqmUwiObNoQk+2N5fxs4yQkWkNIcwAhyYhqO+MeK4gn4h4Znhy6UeT/OkU8g82BlT1yBhUMmZDmLBjRN49qgzz4YR4sbtGlQAAVzYNABAjcC7vlJZ3StcFuTkzqQAAGoV0fMucGhydQqZSyAAAM5Wlv5T2vQRKIIjlAPKJiGeGVKE7UdQL51gwDET7cgEANArJk0M/kiigkElCTyf5rP7k3X69EXdikJND3a81SNYKXUemNVwmdXRGE+3LreyexHA8ks+p6JoEAOiN+H+UPFFwD/FyyozxLmqVbI32utU8OjylAQD4u7MmlTrkEBHPCrQ+EfFcoFJILUNyAACbThVJVV8U9vRNqK7Wj5y82w8AcGHRjqz34zCohxIFHhy6Smv04NA7R5UiqeqVQBcfFwaXSTWdeqZTyVsivXbF++Q1SHonVHX901ujvAAAawJcsl/he3LoS3SXiJcQ1E5EPBfG5dpxuZZOJTsxKPJZc21CDpMyqdSVd0q7x5RGDCcBEOTpVNk92T6ie2tjQLhKd+/xJBR6Z9EpiUFuawJdZnXG4alZybQGANAyOJMQ6HIk0Y9BI5+qFC9a+xCBsAT5RMQzhkQi+buxeM7MtmF5rJ+zaXOPYHhKc6l2mEImhfM4cf4uY3KtrytTMqPRGTDJtCbAg9U2rIA5qWSSM4v6bc2QJ5cRxefARAOGX2sYPZYccLtlDDlExLMF9Z0Rz4xoX+576SEsOtnXjWUwYi4sWnKox31rEuxcJjUt2uuf0oITg91ah+UavbFnXKkzYLF+zgEeLKXGsD3WG07NKDSGG42jY3ItLMigklcJnPcn+Bow7MLDofRor7RoLzYdra5FPDNIJ6qf/Bn/tuTB0pqCWOlwmVQKmQQ11z059Dc2+Nf1T6m0xoxV3gAACpmE4ziGg8LWsTG5NjHI7dHAtGRaw6JR/tsWYW7dSJQvN5LPvVg7PKPWv5nkr9QY8ptGiWbgztW8CD6XTCINT802D8k7JQojhrs70bdGeQo9nXKqB0dnNEt584gVzuvp6+EHpMeCeGaYdmPlGsOdjonWYTkAoGlwxjJzftMo/EClkBrFM1NqPYNG+fu9J1uhT98Xp0Z44iazyTOzhppeWeuw3HR0UqbSXa4b8eTQpUodQCCeAsITIn1nBAKBQPrOCAQCYQ3kExEIBGIO5BMRCARiDuQTEQgEYg7kExEIBGIO5BMRCARiDuQTEQgEYg6kx4JAIBBzeixoHwsCgUDM7WNBfWcEAoGYA/lEBAKBmMM8fmLNR5uXxA4EAoFYEjZ8ctf0ELUTEQgEYg7kExEIBGIO5BMRCMQL5fbt2waDFcWIvr6+vr4+R2qQSqVNTU1WT01MTLS0tBCHcIXN3bt3rV7RKk+lxzLVcXum+a9GeTMAgOK82nX1T1yjtjtY9u233/7Xf/1XoVD4NAaYYTAYQkNDc3JyUlJSTNOPHDnyox/9KD09/Rley4y8vLzU1FRXV9f5s1rw+PFjCoUSEhLiYH6xWKxWqyMjIxdxLQTiBfP48ePGxkaVSsXlcvfv308mk/V6fVVV1ejoqFqt5nK5qampHh4eAIDW1tatW7dOTU0VFxfL5XJnZ2cMw3Acf/31183qdHZ2rqioIJPJsbGxZqf6+vooFMrk5OT9+/dHR0cjIyN1Ot3Y2NidO3e0Wu3u3bvnNXjx7cSRO59MVb3NoNRxeXouT8+g1Mmqfjhy5xMHixcUFMzMWAm//DRQqdTPP//c8jENDw+rVKpney0zlErlole/t7W1CQQCDMMePXp08eLFM2fOlJaW6vV6AACO4/X19ZcuXcrJyamqqsJxHADA5/Pb29txHEkaI1YA4eHhO3fu9PHxOXjwoE6nwzAMALBx48a0tDQ/P78DBw5AhzgyMsLj8VgslpOT06FDh5hM5qFDh1JSUvz9/S3rpNPpO3bs6OzsnJ6eNk3X6XQzMzNr16718PDYs2fP6tWrIyMj09PTeTze1q1b2Wy2IwZTtVrtIu5zuqNAI/pfTp5UAIBOhRn1OIVGYrtR1KL/NdWR4BaVtYg6nwmvvfbaUl16cQwODrq7uzOZTLVabTAYsrOzcRy/fft2c3NzQkKCRCJRqVR79+4FAOTl5fX09ISFhdFoNB6P19/fHxQUtNTmIxALoLW1NTAw0DLdYDDU19dnZmY2NTXRaLTo6GiYLhaLTX1iaWnp6OgTyQrYaLh58yY89PX13bJlS0dHR0BAAFHn2NiYv79/QUGBVCotLi6enJzs7u4OCwuzahvhCakMBmMR9zbd/BXLhUKmkLQKI134gUfCjycfndT1f85yocw0/9XSJw4PD7/33nuVlZVeXl4nTpww7cZ+9dVXf//730UiUWxs7Lfffuvj4wMA+Oijj77++msWi3X48OHf//73VlOswufzCwoK4uLiRCLRj370o6ampqSkJKJB+uDBg6ioKGdnZ3hYWFgoEAhiYmIAANPT0/n5+W+++WZHR0dXV5dCoXB3dyf+tuTk5GRkZFRUVPj6+iYnJ6tUKtj4ZzKZGzduFAgEAADYXJfJZJGRkRs2bAAAtLe3z1vVyMgIfItsNnv9+icqOf7+/hqNBgDg6+vr6+sLE4VCoVQqhW80ICBALBYjn4hYWRgMBhqNZpne3t4ulUrz8vJoNFp2drZSqTQYDBiGicViiUTS1ta2Y8cOAEBaWhpRpKGhgUKhrF692rSemJiYwsLC6upqd3d3X1/fwMBALy8vBoNBJpPpdLqrq6sthwgAIDzhIvvOBnkLmUYCABh1mFfiuxS6k0fCj416nEInGeQtZpkxDNu7d29ISMjg4OCVK1fM/lCQSKTc3Nzx8XEej/fpp5/Cuz158mRHRwfxLCxT7INhWHZ2dkpKikQi+d3vfjc5OQkAMBgMfX19ph32kJCQgYEB+HlgYCAoKIhEIgEAMjIy3nrrLRaL1djYSGSuqanJzMxcv349juOFhYXOzs5vvvlmRkYGh/NEdLi3tzctLS07O7u5uVkul8NE+1UBAGZmZrhc7tyDNRgkEklvb6/ly5PL5S4uLvAzl8t95iMPCMTzYHR09Pbt22NjY0VFRRqNhkajWQ77REVFvfHGGywWKzU1lUQiqdVqnU4nFouPHDmSmZnp+DARhULZsWOHl5fX3r17lUqlSCSqr6/fsmWLt7f35s2bd+3a5UglT6t5T6GTJx7+xTPhv00+OkmhQUle8xuora0Vi8X/9m//RqVSIyIizM4eP34cACAWiwUCQUNDAwDA3d1dqVQWFhYePHgwOTnZaop96urqRkdHf/Ob31AolPj4+ODgYAAAlUo1G6wNDAy8d++eTqej0+kDAwPr1q0DAMB2u1KpdHJykkqlROY1a9ZAlzQ+Pq5UKtetW0cmk00nVRITE52cnAAAzs7OcIR43qoAAHK53NQn3rx5c2JiIi4uzsvLy9RUmUwmkUg2bdoED7lcLuF2EYjljI+PT1ZWVkVFRWZm5o0bN5ycnIxG4+PHj5ubmzUazeXLl/fv30+j0err61ksVm9vL4PBcHJyCggI6OzsFAqFIpGI6D5PT08XFRXBz7Aj1dnZCQ/T0tI8PDyGhoZqa2unp6evXr2alpY2MzMDffH4+HhJSQmFQsnIyJjX4EX6RIZXHMBrAQA0NlnX//lg979TaCQam2zU4VTn1WaZ+/r6goODqVTr18rNzf3ss898fX1dXFxmZ2cBAIGBgcXFxR9++OHHH3/8xRdfbNu2zTLFvnn9/f3BwcHzhreg0WgCgUAsFvv5+cnlcthtF4lETU1NbDabTqebzt9DfwcAgP6OTLbZxGYwGHAged6qAAAYhplWtXfvXjgrV15evmXLFpio1WpLS0s3btxIp9NhColEgpdAIFYQoaGhAAAMw6Kjo3k8XkNDAxxG6+/vr6ur8/T05PP5oaGhbW1t4eHhIpFoZGSks7OTmCx2dXU9dOgQ/Gy17+zn5+fn55efn79r166HDx/qdLqAgIC1a9eWlJSkpqbackFmLNInGmTVDE8aAIBMITG4T1wPZsRnZ4xuG4+bZfbz8xsYGDAajZZOqq+v77333mtpaXFzc7t27RrsOwMAkpOTKyoqCgsL9+/fL5FInJ2dLVPsmOfl5TUyMuLIjcDuM4ZhQqGQRCLJ5fKqqqqDBw8yGIz+/n7TDi8Bh8NRKpU4jsOOti0cqQoA4OzsDAcciRQajbZq1Spi8NhgMBQUFAQHB5su1lGpVPafAAKxDImKitLpdJa+ycPDA05Aq9XqiYmJoaGhsLAwV1fX69evR0VFsVisRVwrNDQ0Ly/Px8eHmGMhkUiJiYmmvzWrLGY88fFfvFiuFBIZ4BjADDiO4TiGGzSYSmpgBv2T5QTLhg0bXFxcfv/73xuNxqGhoYqKCgAAnU7X6/WDg4MGg4HBYCgUinPnzsH8tbW1paWlAAA4+6HX6y1T7Fu4fv16rVb797//HQBQVlbW2toK0x88eGDW5QwMDJRIJGKxGPavVSoVhmEUCkWv1/f09Fit3Nvbm06nNzQ04DiuUqkkEonVbI5UBQBwdnZWKpUAANib0Ov1Op2uq6vL09MTAIDjeGlpKYfDSUhIMC2lUCiQT0SsFDAM02g0zc3NOp1OJBLBDpkpHA5HrVYXFRVdv359YmJidnaWy+XC9W2wj7wgcBxvb2+HTRY3N7ft27f7+PhkZGRs3759XocIFuETH//Fy5lPp9DJAACDFjPSEhVjVMUYVWtc67bxa9+tH1kWodFoN27cuHfvnq+v7/bt22UyGQDg9ddf//DDD5OTkzdv3iwUCnfv3r1161aYn06n//GPfwwLC0tJSTlx4oSHh4dlin0j2Wz25cuXv/zyS4FAcObMmdTUVPDdHIuZT6RSqTweTyKR8Pl8AACPx+Pz+efOnSsoKICzyVYeGZm8bds2iUSSk5Nz69YtW4uZHKkKAODt7Q2btEKhcGZmJjc39/z580qlcvPmzQCAtra2gYEBiURy+vTpU6dOnTp1CvbBJRKJt7e3/YeAQCwH2tvbc3Nz4bCPTqdrbm426/ACAHp7exsaGsLCwg4fPqxSqWJjYzs7OysrK/ft26dSqcrKynQ6nYOXk8lko6Ojcrm8trZ206ZNlZWVLS0tTCbT8eXDpP94+ORiOYVVYL64OIRDNOowrcKolBpW/VJqJz9iXjAMy83Nzc7OdnCwAxa5evXq3r17HS+CQCwVarWaTqdTqVQcx2/evBkfHz8zM9PW1kZkiIuLM516LSsri4+Pr6mpSUlJ4XK5RqOxuro6NDQUw7CysjI7F9q8ebOfnx/sepLJ5Kmpqfj4eKPR2N3dLZPJZmZmjEZjXFyc5SJwGBfn6LaN8HABPrH9T57uQgZsIaon9YHHRhf0aJ4tx44dMxsxPHLkyDvvvLNU9jwNzc3NTCYzPDzcwfz9/f0ymeyVV155rlYhEM8csxnFZYKZT1yAHguDSyFaiHKJo03Z58Tp06eX1oBnyKpVqxb0RQkMDLS64QmBWOYsQ4dIsHg9Fq3CuLQtxJePhb4CEomEVHQQiGcL8ZtawICUelJP/I9AIBAvJQvwibH/Q/b87EAgEIjlwPLt3iMQCMSLB/lEBAKBmAP5RAQCgZgD+UQEAoGYA/lEBAKBmAP5RAQC8UJ5et2+6urqhw8f2jqr0+k6Ojpg5Jfq6mq1Wr0g8xawj+X7CRLkQyCehmeu29fc3NzS0uLq6jo4OAhTWCxWVlYWiUTSarW3bt2anp7m8/lw82tvby8h6WGfxe9j+b7xlIJ8WVlZGIY1NDT09vZqNBqBQLBp0yYYfh0marXa4ODgpKQkEonE5/Nv3LgRERFhPzIjArGCCA8PFwgEFRUVWVlZGo0GBsjZuHHjzMwMEVMWmOj20en0Q4cO5eTkHDp0aGhoqL+/n6hKo9FUVlbqdLq3336b0HW5c+eOq6sr/MkwGIwdO3Z0dHRwOBxvb2+ZTEULKhwAACAASURBVGYwGC5cuDA7OwvDnm7fvp0QODKD8ISo7/y8IAT5NBoNFOQ7fPiwQqFobm4GABCCfPDFwwCLhCDfEpuOQDwfWltboTiSGVC3b82aNU1NTV1dXUQrxFS3D4bVcXNzg2JtMLG2tlan061Zs4aoylR0r7Ozc9OmTdAP7t+/39XVFYYEtM8L8ol8Pv/u3bvJycmurq4ffPABTPzqq6/WrVvn6em5ZcsWQqKQz+eXlJSsXbvWz8/v66+/rqioSEhI8Pb2Pnv2LMwwODi4Y8cOf3//5OTkrq4umGgWLLawsJCIIzs9PZ2TkwPDTF69evXMmTP5+fnEEENOTs7Y2NilS5fu378PAFCpVMXFxd98882lS5eGh4dhnsnJyevXr586daqmpgamOFKVmSAfnU5nMBimgnyvvvoqnU6n0+mm7zggIMDBCOEIxIpjXt2+gYGBmJgYqOsLdfvq6upu3boFACCRSNnZ2QkJCX5+fjAqYnFxsUqlSk9PJ/pVw8PDFy9ebGxsrKmpuXLlyvDwMKFtqdfrExMTHemBvbh24ueff37hwoXq6uovvvgCjqRaKvZB/vznP9+8efPPf/7zu++++1//9V+FhYX//u///v7774PvJADfeOONwcHBDz/88NixYwAJ8iEQy5hnqNsHu7dsNjskJKS2tjYwMNBMZUUgEBw6dIjNZoeGhh44cCA9PZ1ox/T39zuo2/zifOInn3zi5+cXFRUVFBQEu4rHjx/39/cfGhoSCASwRwn57W9/y+PxsrKydDrdxx9/7OnpuXPnzvHxcYVC8fDhQxzHjx49CgDYtWvX0NCQQqGAgnym4bMCAwPHx8dhbN6BgQGoKxAdHc3hcFQqlZOTE4z1DYEqelQqdWJiwlSQj/BTUJDP1dUVCvI5UhWwJsh38+bNoKAgq4J8ULsHIEE+xEsH1O3j8XiZmZkKhYLQ7SsuLh4aGrp8+TKGYTQarbW1Fer2tbS0qFQqqNsHACB0+6BySXV19blz5+rq6mg0WktLy5XvUCgU8HISiUSv1xPjUVDYAwBAp9PFYrEjBr+4QM1Eq9Xd3R0Kqlgq9pnmZLFYLBYLfoYqClDMQSQSQdFRAACfz4dTV2bXQoJ8CMQy5Gl0++RyeV1dHVQA/fGPf2xa7fXr14khyI6OjoiICC6Xq1AoZmdniQFEgUDQ0tJipmtklSULXm9Lsc8+AQEBfD6/trZ23pxIkA+BWG48jW6fm5tbdnY2AMBUt8CMvr4+Ly8vKBEaHx9/+fLlXbt2wRF8JpOJ47hGo2EymfaNXLJ5Z6uKffOSmJhIpVK//PJLAIBeryeeDhLkQyCWLS9Mt8/V1TUqKgp+VqlUQqHQVAc1MjLStD9qiyVrJxKKfdHR0a+//vqpU6ccKQUlAN99990//elPHA7nnXfeWbVqFZxjEQgEpt6EEORLS0sDJip6bm5uoaGhxIS1KVCQr7Kysq2tjclkEj10MxypCnwnyBcQECAUCh88eJCbm6vVank8nqkgH5vNPn36NBxCPnr0KJVKRYJ8iJeM9vb22tpa2BSAun07d+40y9Pb29ve3h4bGysUCu/fvw91++rr6/ft21dTU1NWVpacnEyML2k0mitXrpgWJ6YlTbtlHA4H/oSNRiPs+RHu0j6kE9VPHOe3JQ/AfLp9CMdBgnwIBHh2un1E67KgoGD79u2mlygvL09ISCDmFVpbW9lsNuwgdnZ2dnd3R0RE2NGAgxpVr6c/2e6yMC1TxIJAgnwIhCkrQ7dvSY15yUGCfAiEKcvQIVqCfOJzBAnyIRArjhXgthEIBOKFgXwiAoFAzIF8IgKBQMyBfCICgUDMgXwiAoFAzIF8IgKBQMyB9FgQCARiTo+FTPmOpTUIgUB8zyktLTU9rKqqsipUYMmtW7eICHsjIyPT09OLuDrhCV/mNdsGgyE0NDQnJyclJeVZ1Wkp44dh2Pnz57du3WoZ7WPes1ZBan+Il4zr16+r1WqtVksikWAoB6PRqNPpWCwWlUo9ePAgAADDMNPQVmq1enh4eMOGDab15OXlwYApXl5epj9quVxOxOImk8klJSV79+6tqKgwc6l6vf7NN9+c19ol84mfffZZZGTk3r17n20R0zxUKvXzzz+PjY19WltNsJTxI5PJGzZsMA3I4fhZAEBjY6Orq6tQKCRSoNqfVWE/AIBcLi8rK1MqlQEBAcnJyWQyGan9IZY5e/bsAQA0NDTQ6fRVq1YBACQSSXt7O4xZBVEqlabBodvb2+Pj4wEA9+/fT05OhokGg+HgwYMqlaq8vNzWtXx8fFatWqVQKEwrBwDgOO5gTMIl84ltbW2ON50cL2KW57XXXluMcQsERuBY3NmpqSk2m00cEmp/IyMjUNgPAJCXl9fT0wOFXIqKihISEoRCYWlpaUtLS1xcHKH2R8jxIBAri8ePH9fW1uI4fv78eT8/v4SEhMHBwYSEBPhnvquryzRwDqS0tJQQtlOr1efPn4+Li4uJiSksLMzIyHiajdUvaN75o48+EggEoaGhv/rVrwAA77777qVLl37xi1/4+/tD6U5bGn5VVVUxMTE//elPLYtYYpmHz+c3NTWBZyQHCBkaGsrNzT1z5kx1dTUcxcjJyYGt9JGRkcuXL585c+bkyZPffvstFJQgzubk5EgkkmvXrhESgJWVlX19fdXV1WfPnoWCEoTan1Vhv8nJSYPBACW3YmJiuru7oUlI7Q+x/LGUpiIIDw8PDw/ftGnTxo0bmUzm3bt3vb29RSJRR0cHlUqtra21nApOS0s7fPjwm2+++eabb3K53CNHjsTExAAAZDIZjuMSieTcuXP5+fn5+fnwd+e4nS+indjQ0HDy5Mmenh4Gg1FXVwcA+Mtf/tLX13fkyBEovAe+0/ATCARvvPHGp59+euLECZj+wQcfXL161c/Pj8VimRWxxLJaU6Ac4P37948ePbpv377CwsL8/Pz333//zTffhHKA77///tGjR/Pz848dO1ZTUwND1fr6+poFvpbJZDt37jQajfn5+W5ubsRAHoZhxcXF6enpfD7/zp07Hh4elmN8TU1N6enper3+4sWL0dHRKSkpCoUiJCSEiCc2MzNjOZIol8uhULdcLieGMl1dXQl/jdT+EMsWsVhcVVUFAIDjiS0tLeC78cTz588DAJKTk/39/cfGxmJiYnp7e9ls9vT0tEajUavVHA7HycnJ19e3p6cnIiJCLpdfuXIFwzA2m61QKEpKSrKzs20NGQUHB8PhyMrKygUZ/CJ8oru7u1KpLCwsPHjwIDE0YMbx48cBAGKxWCAQNDQ0EOkffvihpfjn4rAqB/j2228rFIq2tjZTOcDjx48rFAoul/v6669b1rN69WooihgRESEWiwnHp9Fo9Ho9n88nk8m+vr4TExOWZdetWwd1rKAEoKXMgJnaH/hO2G/Tpk0AAK1WS8jjQnksg8FApVKR2h9i2RIQEAC7Pnfv3hUKhYGBgcBiPBHDsNnZWRaLJZPJIiMjjxw5YlqDTqeDC2OcnZ0PHDgAxxO5XK67u3tXV5et2cW+vj7YP5uennZ8xhK8GJ8YGBhYXFz84Ycffvzxx1988cW2bdss89jS8HuG8QSfXg7QDBaLZSoWwWaz3dzcWltbg4KCuru74ViyLQgJQDPMgm6aCfsxGAwoeQjNplKpMCI3UvtDLH8mJyfj4uKsntLr9WQyube3d3Jy0svLq7m5ubW1FbY8oGbcgQMHLEutXbv22rVrtobRl3U7EQCQnJxcUVFRWFi4f/9+iUQC20fEz9hxDT9HfvmL8A6OywGaMjMzY9bQ4/P5UqlUIpGEh4cTks3zYjrOYqr2Zyns5+LiMjU1BT9PT08TCtRI7Q+xzJmZmdFqtaaL2ExhMBh79uwpKSkhUhITE+EvyGAwXLt2zWopJyenzZs3P3OhDrL+O55tvabU1tbC1ZhwEBRei8fjPXr0CACA47iDGn6mRZ4mjyWOywECAAYHB3Ecn56e7uzsNNMV6O7uTk5O3rZtm4NqOAAAFosF508ghNqfVWE/d3d3Op3e39+P43hraysxqoDU/hDLnOrqavs/CqPRqFKp+Hz+3bt3beWRy+WXL1++ffs20YcTCARW95vQ6XSpVArnWKanpwl9KzsQnpBKjE89P+h0+h//+Mfjx48bDIYTJ054eHgAAN57773XXnstMDDw6tWrDmr4mRaxJVriSB5LHJcDhFy4cAHDsISEBDj1QeDr6/vNN98wGAw6ne7t7b127dp5O+AxMTElJSXnzp3LzMz09PQk1P5sCftlZGSUlZVVVVX5+/sTSy+R2h9iOVNTU6NUKlevXm0rg0wmKy4u3rBhQ2BgoEql6u3traura21tBf/YuAkKCtqyZYtlcUtNdg8Pj127dpmmGAwG+0YSnhBpVD0z5HJ5RUXFjh07yGSyTqcrKytzc3NLTExcUCVI7Q/xkqHRaMrLy1NTU03F5sfGxrq6uuDMIQBAqVRKpVJi50Jvby+DwfDz8wMAGI3GqqqqV1991bJmtVp948YNBoPh4eFBZMjLy9u9e7dZ41Emk927d08gEKxdu9aynpdEo+rYsWNmK/KOHDnyzjvvLJU9AACZTEYmk+HfKxKJpNVqvby8FloJmUwODw/v6+tzXO1PLBYHBQUhh4hYnjCZTDPpUQAAj8fj8XjEIYfD4XA4xKHpNDGFQrHqEAEAbDb78OHDZonZ2dmWOd3d3R3fMrdSf0inT59eahPMCQgIGB4evnDhApvNNhgMq1atWtzGEqT2h0AsISvVJy5DyGSyrdWXCwKp/SEQSwiKKYtAIBBzIJ+IQCAQcyCfiEAgEHMgn4hAIBBzID0WBAKBmNNjoaIpSwQCgSA8Ieo7IxAIxBzIJyIQiOdOX1+f6caz/v7++vp6W5kbGhqIOCyO8Ex0+wiW9ZrtI0eO/OhHP0pPT583J5LoQyCWM42NjampqcShwWDQarXEoU6nu3HjBnE4OztLIpGgdAdk9+7ddDr9Jdftc4Th4WGVSmXrLJLoQyBWBOPj4xwOx93dXa1Ww2CIer0ewzAompSWlubt7W0aNdZU4c+Ul1y37+lBEn0IxIqgrq4uMTFxaGhILBZDPY+enp6JiYmkpKRF17nidfusquLB+JHJycmurq4ffPABTBSJRGlpaZ6enrt377aju4Qk+hCIFUFXV5dMJhOJRNXV1Xa0lUZHR0+fPn3lypUrV660tbU1NjbCz6dPnx4eHrbMv7J1+6yq4sFTn3/++YULFxQKxapVq37yk58IhcLs7Ozs7OyCgoK2tradO3faqhNJ9CEQKwIXF5eoqKiRkRF/f38vL6+ioiKZTAZPDQwMAAAOHDgA47kGBgbCMUfTvnNZWRlR1cuj2/fw4UOrqngAgE8++QRGjgwKCurp6ZFKpaOjo7/5zW8oFEp8fLz9rqgdkEQfArFM8PHx0Wg04+PjiYmJarU6MzNz0VW9IN2+F7CPxY4qHuHj3d3d9Xp9f39/cHDw0y8jRxJ9CMQyYWhoqKSkhMPh5Obm+vv70+n09vZ22NQwGo0sFmvPnj0AABqNNjk5eeXKFRzHYUOyo6MD/nht6aM8W92+F7qPxXFVPC8vrwUNliGJPgRimePm5paVleXl5QX/2Dc0NKxbtw6OICmVyjt37sBsHh4eBw4c0Ov1paWlBoOBRqNxOJy0tDQ7AeSfrW7fC93HYksVz5L169drtdq///3vAICysjIoUmMLJNGHQCx/6HQ6mUzu6uoqKyszVSu1RCaT5efnC4XCiIiIyMjIwMDAGzduEIOP4Dnr9hG8iPFEq6p4VnOy2ezLly//5Cc/+fWvf52ZmWm6yNMSJNGHQCx/RCKRWCzm8XjR0dGenp7Nzc11dXUtLS0AAAzDYCdaoVDARklSUhKfz29oaAAAREZGOjs7l5WVcbncxMREV1fX56rbR4B0+xYDkuhDIBZHT08Pk8mEM6sajaa1tXXt2rVarVYsFoeGhkLX1tDQwGAwoqOjAQA4jvf09AgEAtO1vZDvr24fkugjQBJ9iJWO6eA7k8mETorBYJguXVyzZg3xmUQi2VrV+P3V7UMSfQRIog+BeN6sAJ+4DEESfQjEywqKFYZAIBBzIJ+IQCAQcyA9FgQCgUB6LAgEAmEC0mNBIBAIKyCfiEAgEHMgn4hAIBBzIJ+IQCAc4vbt21Z3Dff19fX19TlYSVNTExHc3hQYjSU3NxfH8bq6OgBAT0+PaQAIM2D4HAcvuiDQmm17PFspPqS6h1hBPH78uLGxUaVScbnc/fv3k8lkvV5fVVU1OjoKQ46mpqZ6eHgAAFpbW7du3To1NVVcXAzDJ2MYhuO41TjNSqXSajxErVY7MDCAYVhvby+TyQQA9PT02IkhMD4+bjVU4Pnz56lUqlarDQ0NnZmZmZmZgXthtVqtUCiEERXtg3yiPRYtxYdhGJTi02g0AoFg06ZNNBoNqe4hVhDh4eECgaCioiIrK0uj0cBwWxs3bpyZmWloaCAUhkdGRng8HovFotPphw4dysnJOXTo0NDQEFRJskStVrNYLLPEoaGhoaGhkZERuVwOQ8m6urrKZDIibKjjMBiMffv2VVRUBAUFNTY2pqenu7m5AQD6+/sJTSv7IJ84D4uT4lOr1QaDITs7G8fx27dvNzc3JyQkINU9xAqltbU1MDDQMt1gMNTX12dmZjY1NdFoNBjJBgAgFottbcw301yG+Pn5+fn5wUYok8lMTU01GAwajebq1atarRbDsLS0NLNgfXYwGAwKhQKG1CsvL4fNUo1GA4PxzMsLGk+cV0vvq6++Wrdunaen55YtW6A7/+abbxITE2E8waSkpNzcXDuVW+r/0Wg0Qu7LcUk/y8iyi5PiY7PZ69evp9PpDAbD39+f0C1AqnuIlQgMfG2Z3t7eLpVK8/LyBgYGYmJiYFMAwzCxWFxXV3fr1i2z/Hq9XqPRSKVSy60iLS0tSqXSxcUlJCTk9u3bXV1dVCr1wIEDsbGx69evt+oQL1++/O13NDc3E+kajYZYbJiamrpr165du3ZZjRJmlRe3j8WOlh4AgEQi5ebmCgSCN95449NPPz1x4sTRo0f/+te/nj171sXFhU6n79+/307lZvp/dhp3dsywpd5HsFApPoPBMDEx0dvbSwTHRap7iJXC6OhoZWWlUqksKiqi0+k0Gs0yoH1UVFRkZGRhYWFKSgqJRFKr1TqdTiwWHzlyRKFQVFRUmOUXi8V+fn40Gm1wcNB0xEksFg8ODmZkZJSXlwcHB3t7e+fn57u7u09OTspkstWrV1u18ODBg1YDaHM4HA8PD7FYDAAoKyuD44kajQa2V2yxBPtY7Gjpcbnc48ePAwDEYrFAIIBRdkkk0p///OfXXnvN3d395MmT9is30/+z4xPtm2F1VJhgoVJ8N2/enJiYiIuLI6IrItU9xErBx8cnKyuroqIiMzPzxo0bTk5ORqPx8ePHzc3NGo3m8uXL+/fvp9Fo9fX1LBart7eXwWA4OTkFBAR0dnYKhUKRSGTZfW5vb4+Li2MymZWVlYGBgcTAur+/v5+f38DAgEAgAADQaLSYmBgOhzM4OCiVSuGA4ILw9fWFHbItW7Z0dXUFBAT4+vqOjY3ZKUJ4whc3nmhHSw8AkJub+9lnn/n6+rq4uMzOzsIiCQkJDAaDQqHMKy1gpv+3aDMcxEEpvr1798KpuvLychgzHanuIVYiMBAshmHR0dE8Ho+YY+nv76+rq/P09OTz+aGhoW1tbeHh4SKRaGRkpLOzc/fu3aaV9Pb2Go1GYnCptbWVUNSYnZ0tKSmZmJjw8vLq7OykUql79uwxGAzV1dX+/v6LmJNUqVREq9bf318kEk1NTXV0dOzevRuqHdhhWaxP7Ovre++99woKCq5evbpv3z4i/ezZs5GRkXK5vLS0dKF1UqnU6elp+Pm5uiFLKT7TszQabdWqVbAZD5DqHmJlEhUVBQV1zdKh2N7+/fuDgoImJiaGhoa8vLzWrFlTVFQUGBhoOr8slUpramqgdjkAICUlpa2tbXx8HB6y2ez4+PjAwMA9e/bweDyo+0alUuFqjYVaKxKJuru7iREt2GYcGxvLzs6e1yGCZeITBwcHDQYDg8FQKBTnzp2DiUql8l/+5V8+++yzzz///N13311QOw4AEBQUVFJSotFofv3rXxPOcV6sqvfZwZYUH+xi6PV6nU7X1dXl6ekJMyDVPcQKAsMwjUbT3NwMhdEtV+lyOBy1Wl1UVHT9+vWJiYnZ2Vkul6tUKo1Go6keen9/f1FR0auvvkosa+NwOFu2bCkpKSHWbzs7O1Op1OvXr09NTUGxgaamJjab3dDQsNC12UFBQTt37nR1dYWHJBIpNjZWq9U6OE64LHxicnLy5s2bhULh7t27t27dChM/+eSTrKys8PDwXbt2BQUFffHFFwuq89NPP/3DH/4QHx8fFBREKNzbB86xLMgnxsTEDA4Onjt3DnpGKMUHABAKhTMzM7m5uefPn1cqlZs3P1H+Qqp7iJVCe3t7bm4unMTQ6XTNzc2Wcx29vb0NDQ1hYWGHDx9WqVSxsbGdnZ2VlZX79u1TqVRlZWU6nW5qaqqpqWnHjh1mUxw8Hi87O3tgYAAO82EYhmEYbDFIJJJHjx4NDAxs27YtIiKioKBAo9GIxeJvTVCpVKbzzt9++y3RGyNQq9UNDQ1XrlxxcnKi0WiFhYVqtXreG0e6fc8S+1J8SHUPsYJQq9V0Op1KpeI4fvPmzfj4+JmZGVNx9ri4uIiICOKwrKwsPj6+pqYmJSWFy+Uajcbq6urQ0FBH9oCNj4+3tLRER0fDnnJ3d/fY2FhSUhJs2bW1tXG5XPuzxgS3bt3asWMHAMBoNObn5wsEgtDQUFdXVwzDHj16FBISYrkFw0y3byX5xGUo4GdJc3Mzk8m0KsXX398vk8kcl6JGIJYJZpOHLxkrT8uUYBkK+FliR4oPqe4hVigvsUO0ZCX5xBWBnXFcpLqHQCx/qFqtdqltQCAQiCWG8IRURxbsIBAIxMsN4Qm/R8MECAQCMS/IJyIQCMQcyCciEAjEHMgnIhAIxBzIJyIQiOeORqNZKRGh0PpEBALx3IEx7T08PPLz803X/wkEAjPdqOrqagqFYkedCgBQXl6+YcMGBoNx+/ZtuJPvGYJ84vyUlpZGRkbCaJfzsgipPzPKy8sTEhJgbFo7KoAOgsQCEcsKhUJBRG4Wi8VmIqjNzc0tLS2urq6Dg4MwhcViZWVlwRCKLS0tMLyYRCKpqKggk8nj4+OlpaVyuTw8PHzVqlUAALlcfvnyZaiSpNPpcByHi2wMBoNQKExJSZnXQuQT50elUtmPU2vKvFJ/8zI0NETE2oQqgACA8fHxe/fuGY1GDoeTmppqKoxFgOM4FAvUarXBwcFJSUkkEgmJBSKWLXK5nFgVqNFoKisrdTrd22+/TWi/3Llzx9XV1TQcNxGaj0QiwR2HZDLZ7LvN4/F27twJAOjs7FSpVAkJCQAAO1KCZrw4PZbvD/al/hyHUAEEANy5cyc5Odnf3//Ro0d1dXVEbE5TJBKJSqXau3cvACAvL6+npycsLAyJBSKWlp6engcPHmg0mrGxMeKP/aNHj6RSqUKhWL9+PQAAht4RCoUwICmMjlNbW6vT6dasWUNUNTY25uXlFRMTc/HixbS0NBKJdOXKFRjB/ukhPCGZ8h3PpF5bDA4O7tixw9/fPzk5GUaRtCrLx+fzz5w588orr3h7e//85z+HsSQtywIbWn0fffQRDA30q1/9ytZ1rWazDCWrUCjy8/PPnDlTUFBAhLNVKpW3b98+e/bstWvXiDi1KpWquLj4m2++uXTpElQKNJX6Gx4ezs3NPXv2bFdXl0Qiyc3NPXPmTE9PDyzb3t5+9erVM2fO5OfnW0Z2I1QAAQA6nQ5+UQQCAaHNYIavr++rr75Kp9PpdLpQKCT+oiKxQMQSEhoa+uabb/r7++/YsSM+Ph4mJiQkZGRkHDhwAEZFIZFI2dnZCQkJfn5+lZWVLS0txcXFKpUqPT3dtA1Ip9MnJiYuXLhAIpHu3r1bVlamVCrLysrKysrOnDlDRLEdGxu7ePHixYsX6+rq2tra4Oe7d+/at5PwhC+i74xh2N69e99///2jR4/m5+cfO3aspqbGlixfSUlJSUmJVqvdsmVLbGzs22+/bVkW5jTT6puZmTl58mRPTw+Dwairq7N13YaGBrNslnJ9OI4XFhYKhcIdO3ZMTU3dvn0bJhYVFcXGxoaFhYnF4vLycijfXFhYKBAI0tLS5HK5Zf+0tbU1KytrdHS0rKwMVigWi2FcOZghIyPDycnpzp07jY2NGzduNC1rqgIYGRlZWlq6cePGnp4eoqwd5HI5If+IxAIRywGDwaBUKg0Gw6lTp1gsFowiqlKp3nrrLSI8CpvNDgkJqa2tTUlJsQy4FxQUZDQaRSJRdna2u7s7juOwnVhdXU30qHAcf9q+8zO9a+s8fPgQx/GjR48CAHbt2nX8+HEokmdVlu+Xv/wlHIx755138vPzV61aZbUssNDqi4iIUCqVhYWFBw8eTE5OtnVdd3d3s2xUKtVMrg9GUU9ISCCRSB4eHtBXTkxM4DgOo6IHBATcu3dPr9dPTU0plcp169aRyWQi1rkpa9euZbFY/v7+RqNx7dq1TCYzICCgvLxcr9cTGuFKpdLJyclUwwBiqgIoFArFYvHVq1fZbLaZ67REJpNJJBKif43EAhFLiFqtFovFk5OTBQUFCQkJVCp17dq1CoUiMTFxfHy8qamJRCIZjUaJRDI4ONjd3a3RaFgsVktLS0tLC6whMzOTy+VqNJqbN2/OzMykp6dDF0EikQ4ePAgASEpKIi6n0+mestf7InyiSCQSiUSEAACfz1er1Vwu174sn5eX1+TkpK2ywEKrLzAwsLi4+MMPP/z444+/+OKLbdu2WS1rmc3y0kqlksvlmjX65HK5gogk/wAAIABJREFUQqG4evUqPGSz2QaDASqazhtdjkqlErG14aCy0Wik0WgikQiKTtDpdEvRCSKQ58zMDNEsffDgQXFxsVWzIVqtFrYoCelbJBaIWEKGh4dHR0dpNFpGRoanp2dLS0tYWNj58+djYmI6OzthT0gul9fV1QUHB1Op1B//+Memxa9fvw5H+phM5ubNm2tqah49etTY2EhkwDAMx3FC206r1UokkosXLwIAdDodhmG9vb0AAOgiHDH4RfjEgIAAPp9fW1trlg5l+To7O0tLS9PS0szOdnd3BwcH2yprleTk5IqKisLCwv3790skEltlzbJZikYxmUzL0T0Oh8Nms01lBWGiUqnEcXwRs7pyubyqqurgwYMMBqO/v9/0NUOgCqC7u/vQ0BCfz4c+buPGjV9//bXBYLAqYGAwGAoKCoKDg02X7yCxQMQSEhYWFhYWVlRURPxGqFTqK6+8Ul5ertFoXn31VQCAm5tbdnY2AMBU28AST09PEomUmZnp5OTU1tZGp9PDwsI0Gg0c3YKo1eq4uDjYzFpc3/lF7GNJTEykUqlffvklAECv18PbtiXLd/PmTaPR2NnZ+be//e0HP/iB1bJWqa2thZKnMTExMLPVspbZgMUci7e3t9FohHMyIyMjMpkMJpLJZNiexzBsamoKJtLp9IaGBhzHVSqVRCJx/LGoVCoMwygUil6vJ2ZdAABkMhk26wgVQA8Pj5GREfi5r6/PyckJOsSOjg6YCMFxvLS0lMPhwC8BARILRCw3QkJCRkdHfX19F7dEbHZ2tqOjA3aozU6NjIw8pQzci/CJNBrtxo0bJSUl/v7+q1evhk7dliyfWCwODw/PzMz87W9/u3XrVqtlrUKn0//4xz+GhYWlpKScOHHCw8PDalnLbJZyfVQqNSMjo6WlJScn5/Hjx3Cygkwmb9u2bXh4+OzZs5cvX4ZrSmGiRCLJycm5devWggL08ng8Pp9/7ty5goIC0wXhoaGhDx8+BCYqgD4+PnFxcfn5+efPn+/s7MzMzAQAGI3Gurq61tZWomBbW9vAwIBEIjl9+vSpU6dOnToF++NILBCx5BgMBsL9yeXygoKCxMTE4eHhmpoa01EjjUZz5R8xG2cPCwvr7u6+ffv2hg0bdDpdaWlpaWkpj8eDjSq1Wj0+Pm51u4Tjiw6Xl0YVn88vKCiIi4tbQhuWD/ZVAAEAcHk2nKixUwkSC0QsIRKJpLq6msvlbtmyhUql3rp1y9XVNTQ01NvbW6/XP3z4MCoqitjjUFBQsH37dtPixLau8fHxiooKV1dXPp8fHh5OrOtWKBTd3d1isTgrK2t4eFiv1xNqgv39/RqNhsvlPnjwgMFgxMfHW92Ntqx1+5BPNMOOCuD09HRNTU1qaipcgmALJBaIQNjHXLcP7WNZzthRAeRwOJmZmfNOeSOxQATCEQhPSF1WSnILmqP4PmDn7TjYF0ZigQiEIxA/ExQ/EYFAIOZAPhGBQCDmQD4RgUAg5kA+EYFAIOZAPhGBQCDmQD4RgUAg5kA+EYFAIOZAPhGxMG7fvm0Z1gwA0NfXZ6Y3ZAmO4zCgOiQvLw/H8bGxMauZW1pa2tvbn8ZUgubm5qepCgYNIaiqqoJx1F8wCoUCxqV/3vT19ZkGZu/v76+vr7eVuaGhwX4wmxdDc3MzjIcilUrh97OgoABGiBgYGFhQrLzv3T6WherqLUKHz47Y3opT0Xv8+HFjY6NKpeJyufv37yeTyXq9vqqqanR0FAayTE1N9fDwAAC0trZu3bp1amqquLgYhpWEge2IeL0Gg4FCoRABkAAAUEShurp68+bNbm5uZpeempoipBeeEqPRaHXDz/Xr19VqtVarJZFIMBSb0WjU6XQwCjSMV4phmGl8ELVaPTw8bCa/aZ/r168rFAqzRBzH6XT6oUOHHLekvb1dp9O9+uqrYrH4/v37zs7OMpnM2dkZx3EOh5Oenv5MLAEANDY2pqamEocGg8E0uIlOp7tx4wZxODs7SyKROjs7iZTdu3cTsTuf3iSRSFRRUUGn02k0mkKhYLPZNBqN8HEkEmnfvn1kMpnL5V6/fn3Tpk0jIyNsNjsmJkaj0eA4LpVKa2trHfkiLf0+ls8++ywyMhIKKj1NHkdobGx0dXUVCoVg4bp68+Y3rRxCiO0NDw83NjaOjIy88cYbTk5OAIAVp6IXHh4uEAgqKiqysrI0Gg0Rw3FmZqahoYH4HY6MjPB4PBaLBb/KOTk5hw4dMo1YJ5PJqqqqLKV4SSRSUlLS/fv3d+3aNTIyUllZSZyamZnp6upycXEhUjZu3AgjqxMXbWxsHB4eJh6vKf39/dXV1fAz9DVE3OaEhAS4hXzPnj0AgIaGBjqdDpUwJRJJe3u7aTRPGGCYOGxvb4eiIvfv34dx2glwHK+vr+/r69NqtSEhIRs2bIBvGV7FDJ1Ol5eXRxw6YkliYmJxcTFswYWFha1du7akpGTt2rVGo7GhocG0cgzDoIKjRqPx8/PbtGkT3PXkiCXj4+McDsfd3V2tVl+7dg0AoNfrMQyDrzItLc3b2/vAgQNEflOb7dDe3l5ZWfnWW2+xWCzT9HlNCgoKGh4eDgoKEggEt2/fTkpKUqlUQ0NDUNwqNzcX/rULCgqCAfFiYmKuXbsWFRUFi9fX1ycmJjrycyM84ZLFSmlra5u35eVIHkeYmpoyFf9cqK6e/fxmlZuK7TEYjMjISChcBVnRKnqtra1WIxUbDIb6+vrMzMympiZCUAEAIBaLia3W7u7uHA7HtDVBwOPxoPSar68v0VqRSqVVVVVOTk7BwcG2nhWdTo+IiBgaGrJ6VigUEn+oGhoaaDQajJi5IB4/flxbW4vj+Pnz5/38/BISEgYHB6EoBQCgq6uLCMECABgbG9NqtfBP+NWrV728vKByjlQqbW9vtyq1uCBIJFJGRgaJRBKLxT09PRMTE1KptKKiAsdxsz8JWq0Ww7Ds7GwMwwoKCpqbm2EQEEcsqaurS0xMHBoaEovFsI0Pr2Ua33+haDSatrY2q8FKHHw41dXVdDodRjL18PBoamoCAMzMzBB/rnAch/0VAICpiHNMTAwhTOQgL2g80Uwq791337106dIvfvELf39/+Pfnq6++Wrdunaen55YtW0ZHR63modFohH/h8/nwucwrwldZWdnX11ddXX327FnYSjfV1ZNIJNeuXTt16hSUviouLm5uboYF5XL5N998g+O4nfyWlZuK7Xl6elr2oFeuip7BYCACNJnS3t4ulUrz8vIGBgZiYmLUarXBYMAwTCwW19XV3bp1C2Yj+pulpaVnz56FTywnJ+fs2bN5eXmmMZAxDLt//z6MlvzgwQPTuLmmWH28i8DOIF14eHh4ePimTZs2btzIZDLv3r3r7e0tEok6OjqoVGptba3p0JOPjw+UfKDT6UFBQVCdHd6O6YjB4izp6em5cuVKbm4urCo0NDQrK4vP52/atMlSx53FYq1bt45OpzOZTH9/fyLw6ryWdHV1yWQykUhUXV0NpYesMjo6evr0aRjfsK2trbGxEX4+ffq0aQuAoLa21tZ4kYMPJykpac+ePTweDwDAZDLhHU1MTEA/ODo6euPGDfgjbW5uLi8vv3LlCuzj3717t6ioaN76TXkR7URLqby//OUvfX19R44cOXbsGMxDIpFyc3MFAsEbb7zx6aefnjhxwjKPIzVbivClpKQoFIqQkBCrEbeamprS09P1ev3Fixejo6PDw8Pr6+tXr14NABCLxUFBQWatbrP8lpWbiu1ZZWWp6I2OjlZWViqVyqKiIjimY/m7jYqKioyMLCwsTElJIZFIarVap9OJxeIjR44oFIqKigqYjclkRkVFNTc3w/6gSqU6e/ZsZmamWbxbtVpdXl7OYDBGRkb8/PxeeeWV/Pz8LVu2wN+Dg0xMTJSUlBCHZn1nAEBaWppGo6mqqjI7C0fxzp8/DwCAgtpjY2MxMTG9vb1sNnt6elqj0ajVag6H4+Tk5OvrC8XRLA1QqVSenp7EoVgs/vbbb00z4DhORPEQi8XzWhIaGhoaGpqXl4dhGJPJHB0dzc/Pl8lkZWVlNBoN6tyaYTAYJiYment7TQcH7Vvi4uISFRU1MjLi7+/v5eVVVFQEm2YAgIGBAQDAgQMH4N/FwMBAWK1p37msrMzSDKlUKpFIkpOTHz16ZHl2XpOs4uzsPPl/2jvzqKiuPPHf2qHYKbZis1gERFCURVncWFxwwYVWonYyTqbnZMbTnkzm9JzjmU7PSaZnYtJJ27+k+/Tp7pnuRJEowY19UxARXFCQAoQCCqgqFlkKqIXaq35/3Hh5UxslUaDM/fxV9dbLo9733e19P1NTQ0ND8Lx+fn6pqalcLnfbtm0AgI0bN6K2/PT0tI3mEsRSxERTVZ4p7733HgBAIBAEBAQYdY681JFNJXzWSUxMhO0OV1dXiUQSFBTU0NAAhwgEAgEMjla2N83pT5TtmcW+LHp+fn579uxpaGjYuXNnSUmJk5OTTqfj8Xjt7e1KpbKoqOjw4cM0Gu3JkyeOjo79/f0MBsPJySk4OLi7u5vD4QwMDBAzlRH/s9PT0w4ODsPDwygmymSytra2oaGh9evXx8TEPHr0qLi4eO/evQ4ODtXV1SwWKyUlxawc0RRvb2/0M+jq6oIRJyUlxajuA2v0d+7c4XA4sFvAqBdPr9crFApHR0exWBwVFZWXl0fc3ZIibm5uTigUJiUlEU9kNAai1WphqeDaBUtCxMfHZ9++fQCA6urq+Ph41GY0oqysbGJiIi4ujvjUsV4SPz8/pVI5Pj6elJQ0NzcHM7r/QBobG1NSUqwktbNeJMi9e/fodDqSqoeEhPB4vOnpadS3xmKxUOhvb2/v7e1Fh3pZ8cZSxERbVHnXrl379NNP/f393dzcLDndF3dkG2EwGNCTFx4e3t/fHxsbKxaLrfREwO1NlyPZniXs16IHe8f0en10dLSvry8aYxkcHGxpafHy8mKz2eHh4Z2dnREREQMDAyMjI93d3fv374e7P3z4kDiFRSAQpKSkdHV1bdiwAS6h0+menp6bNm2iUCgGg0GtVicnJ9Pp9ODg4EOHDo2Ojlp/2JhlZGSEy+WuXbuWSqU+efLEzc3NVMMwNTVlKY2xRqMhk8n9/f1TU1Pe3t7t7e0dHR3QvAjFZMTRBojBYGhoaFi3bp3psA8RKpVq2olmpSREbt68qdFo1Gq1TCYTiUTwnt+4caNRx3dOTo5arW5ubq6rq4M9tguWRCQS1dbWOjs7X7t2LSgoiE6nd3V1IdOko6MjHBKh0WhTU1NXr141GAywIvns2TPYojLqXeHxeE5OTsSRMVswvTipqalwjAV+DQ4ObmhoMLpWz549g2OA69atW+n1RGBBlYdCA5/PP3PmDJfL9fDwuHnz5rlz59COxPBBpVJnZmZg9nC0fEEJH8T2iV0RERF37tzx9PQMDAxcMGOr6cGRbM/SxvZr0VuzZo1arTZt1LBYrCNHjrBYrLm5uYmJCZFItHr1and39+Li4jVr1sBxRh6PNzk5uXPnzqKiIgCAVqsVCoWbNm16/vy5SCSC9wydTnd2duZyuSMjI3CKz5MnT3bv3k0mkysrK/fu3fuycyQmJyfr6+t37949NDREo9EyMzOrq6t37txJrFjNzs6qVCpL1U8Gg3HgwAFiMzwpKQk+G7RaLRyWNaK5uZnJZMKx6QXhcrlBQUHw7NZLgpDL5cnJyV5eXtXV1VQqlUajJSQkWEobDFu1ZWVlNpbEw8Njz5493t7eMLi0trYmJibCfiGZTHb79m24MfyPazSaW7duwV5mZ2fnjIwM09/G0NDQ+Pj4pUuXAABqtfrq1auZmZk2DpwaXRyFQiGRSBoaGrZt2wanKBHHNg0GA5fLzc7O5vP5XC4X+ksBAFqt1tnZ2ZbTIZZijMWsKs/X1xf2LxgMBqFQqNVqGQyGVCotKChAOxK3AQCEhITU1tYqlcoPP/wQ1qJtkfABABwdHU2N8pZgsVgGg6Gzs9PGoWGjgyPZniXszqKn1+uVSmV7e7tarR4YGDD9QTs7O8/NzVVXVxcXF09MTCgUChcXF5lMptPpUO8+h8PZtWsXCmrt7e3+/v4UCmXNmjVNTU1oErhQKEQBKyoqisVijY2NjY2NBQcHP3v27KWKzeVyKyoqtm7dip5PLBYrLS2tvLyc2LHY3NyM5m2YRafTyeVyNpt9586dBU/a1NQ0OztrOuhh6ZHM5/PRJVqwJAAAjUYDA9Pdu3dDQkLc3d2Tk5MfP35slIy5r6+vo6MD1iV5PJ63t7eNJaHT6WQyuaenp66ujvgkMEUsFpeWlnI4nMjIyKioqFWrVpWUlKDOR0RWVtaJF9Dp9CNHjpj+fqwXqbe3t6+vr6+vb3x8nEQibdiwwdXVtampKTQ09MmTJ8g5PDAw4OXlBcNfbGzsgRdYqSBbYilioqkqDwBw5syZioqKVatWtba2pqambtu2jcPh7N+/Pz09He1I3AYAcO7cuU8++SQuLi4kJASa7G2R8AEAYmJihEJhQUGBjZExIiLi+fPnNlb4jQ6OZHsAgMuXL+fn5wMArl69ev36dbjQvix6XV1d165dg7UGtVrd3t5u2sfa39/f2tq6evXqY8eOyeXy2NjY7u7uxsbGQ4cOyeXyuro6tVpNp9NRQBweHu7u7obdbZ6ensHBwbdv39ZqtWq1WigUwssOI8WmTZv8/PyePn0aHBzM4/GM+hzMXl7I0NBQb29vTk6O0T8xKCjowIEDPT09ULt4//59mUxm+hchxGLxzZs3ExMTN2/eDH9yLS0tN27cuHHjBnHeMrpWHR0dk5OTFy9eJHoTHRwcJicnTZ+UMzMzEokEhuwFSwIAmJqaUiqVycnJTU1N7u7ucGwH1n/v3bsHx0DQnykWi69du3b58mWpVApHHmwpycDAAHwpJTo6GkaTlpYWOKaM2q1SqbS2tra+vn7z5s1oNDkqKmrTpk11dXXV1dWo188WFixSaGjoO++8c+DAgZSUFBcXFxcXl5aWlrm5uZSUFDj+Bvdta2szvXoGg8HsO1fWIf2u+fvOu29rH4DldlStEHg8nkgkIkZn27Eu27M7i97c3BydTqdSqQaDoaysLC4ubnZ2lvgu1/r164kDr3V1dXFxcffv309LS3NxcdHpdM3NzeHh4bB2YDAYrly54ubmlpSUhOqDer2+sbExMDDQ399/bGyMw+H09/f39PSgbmUPD4/09PSBgYHAwECzk4HMQuzYbW9vp9FoqBYGVymVyvr6eiPJ1/Pnz3t6elBnlkwmm5ycRPMc4SASjLM6na6pqQkq2xfk4cOHg4ODsB2DcHR0XLduXXh4uC0lAS9qrM7OzhMTE3AU/tatWxs2bPD09FQqlRQKxZaLY70kRhv39fU5ODigp1RHR0dCQoJKpRIIBOHh4bADsbW1lcFgwEmpBoOhr68vICCA2Kp9hUW6fft2bGxsR0fHli1b4B3U1dXl7e0NZyzCjumuri4ymQyDdX19vUwmi4qKMv3TiEBH1VuZm+DXleXtWwkoFIrS0tKMjAzb33Uxwopsz64tegsOH2Ew9oixt29ZC7Pi6Orqevz4cWxs7KIDIrAq27Nrix4OiJgfAzgm/h+io6OtK+RtwcrwKLboYTArHPzkx2AwmHlwTMRgMJh5cEzEYDCYeXBMxGAwmHlwTMRgMJh5cEzEYDCYeahG08cxGAzmRwiKhGTaC5a3QBgM5g3GrPnPKPuDkR+xp6fHkhGwubn54cOHls6lVqufPXvW0dEBt0R5IqyDIuEStZ3b2toiIyODg4NbW1v9/f3Nejkgp06dIqahh+Tl5VnP0mGn3Lhx46VemCfC4/FQQiRbEAgEVi47BvNa6evrAwBwudzLL/jf//1fKLNF26D0mjAFkV6vN2sVbW9v53K5g4ODV19QXl4Oj6NSqa5fv37p0qWhoSGYaaW/v9+sB8YKS/QeyxdffLF///7PP//cYDB8/vnnRMudEZWVle+//77RwuHhYblc/nqLuBzAhFqL2xfaAYmGtoCAgK1bt0I9AFyoUqlCQ0OTk5NJJJLdKQMxbx6xsbGxsbF6vf7x48dSqXTLli1mf41E5TdRYqVUKhsbG9Vq9alTp1DT9vbt2+7u7vA4DAYjOzv72bNnzs7OPj4+YrFYq9VeuXJFoVA4OzvLZLLdu3cvqKxaonri5OQkzLJJIpGOHz/+spEbYwSyAyqVSq1We/DgwWPHjkmlUijYGh0dlcvlOTk5UCgKH9FIGbjMRcf8yBAIBEVFRRKJpKioaHJycnZ2tqKiwsXFJT09HcW17u7uwsJCiURSWFgILVcGg2F2dratra25uVkgEMAlZWVlHh4eHA4HJf179OiRWq1GqdoBADArODrs1q1bYRw8fPiwu7u7WXGNEUsRE3/5y1/W19efOXMGmipJJBJ8DgiFwuzs7KCgoNTU1J6eHqO9BgYGMjIyvLy89u/fb13qBPN9pqamuru7/+IXv4ALTUWAcEuoxA0MDPzb3/7W0NAQHx/v4+MD8wBbKpJRktqqqirYVQEAmJmZyc/PNxgMXV1d169fv3DhQmlpKeq/yM/Pf/78+XfffXfv3j0AgFwur6mpuXjx4nfffYf0ZlNTU8XFxUgECACw5VDIDshkMjdt2kSn0xkMBjK0+fv7b9myBQrkiD8g+1UGYuyX4ODg3NxcV1fX3NxctVpdWFg4NTXV0dFR9IKZmZmoqKijR4+6uroePXqUzWbDyl1/f390dPT+/fthmCORSAcPHoyPjw8MDGxsbORyuTU1NXK5PDMzE1U2h4eHCwsL29ra7t+/f/XqVSiGhqs0Go2NoueliIm//vWvt2/f/tVXXxUWFqKFer0+Jyfn+PHjQqHw7NmzRnI+aKdNS0sbHR39z//8T6LHwyy/+c1vrly50tzc/MUXX/D5fPBCBDg+Pu7r60uUGXz55ZdlZWVffvnl6dOn//SnP1VVVX322WcffPCBpSLBJLXEoBwWFobydw4NDSG3X1ZWFlR6t7W1oY3v37+/c+fOTZs2GQyGqqoqV1fXEydOZGVloXzo/f39GRkZBw8ebG9vR5HX+qHA/zXbwkKOjo729/eb+iclEgnSxtuXMhDz5uHn5/fTn/40Li4uOjqaw+EkJCRAiwDaQKvVFhYWyuXy9PT0jRs3wmTGCJg/hclkhoWFPXr0CLoDibsHBAQcPXqUyWSGh4cfOXIkMzMTVTUGBweJVUgrLNv8xIcPHxoMhpMnTwIA9u3bJxKJoB8Z0tLSMjY29qtf/YpGo8XFxS1oqf/1r38dGBi4Zs2akJAQ2FR87733goKCRCJRQEAAUjYDAD7++GNfX989e/ao1eqPPvrIy8tr79694+PjUqnUbJGgCJCY4GvVqlXj4+NQSjs0NATLFh0d7ezsLJfLnZyciBnYN2zY4ObmRqVSJyYmZDJZYmIimUx2d3dHcSopKcnJycnd3R2KAG05FDCxA5aVlZWVlYWEhBCzzAMAxGLx6OgoSqhpX8pAzJsHmUymUqk8Hi8yMlIgEAQGBiqVSmJPGpVKzczMNFKJwTqHTqcTiUTNzc0FBQUtLS00Go3L5aJhFhQ9RkdHNRoN6jJCGbzpdDpsgy/IsuUKGxgYGBgYgPncAQBsNntubg7d54ODg6Ghoban1UJVYk9PTzjPyJIIEG7p6Ojo6OgIP8NUiVA2YqVICBqNFhAQAP+jEokEZpAeGBh4+vQpk8mk0+nEdOdI3gbFp1ZSECIR4IKHAibpXXNycjQaTVNTU319PRJQqFSqW7duQQs7+tvtVBmIeQPQarU6ne7u3bvr1q0bGxvz8vKiUqkajYZY0ZNIJEbzAtEvViKRtLS0hIaGUqnUf/zHfyRuU1xcjMYqnz17FhkZ6eLiIpVKFQoF6kAMCAjgcrnx8fELlnPZYmJwcDCbzbakGfT29v4hPV9WRICLLhIR2HzW6/UcDodEIkkkkqamptzcXAaDMTg4SGzwIuCwFxRgWjmyLYcC5uyANBqNaGjTarWVlZWhoaFhYWFoG/tVBmLsGrFYrFAorly5EhAQ4OHhERERUVxcbGSPGh4elslkNTU1RrqFyspKmNLUw8Pj4MGDAABLkxYBAHw+39vbW6fTUSiUuLi4oqKiffv2wU52BwcHg8FgVC01C1n3gh/yNy+CpKQkKpV6/vx5AIBGo0F/J51O12g0mzZtUqlUf/3rXwEAdXV1aEzDRiyJABdXJFMR4KpVq0ZHRwUCAWw4y+VyvV5PoVA0Gg2ssZvi4+NDp9NbW1sNBoNcLjcSrSFsORQg2AGhfh4a2np6ery8vAAABoPh1q1bzs7ORk9Fu1MGYt4Auru7Kysr4+LifvKTn2zfvj0+Pv7Jkyf+/v6wKgcjVGdn56NHjzIyMo4cOYL6fwIDA8PCwrKzs93c3NCYpHXc3d2RdUcul3M4HKjShURFRVlxx6NISF2utM80Gq2kpOT06dO//e1vnZ2d3333Xaipfuutt86ePVtTU1NUVPRP//RPH3744c6dO7dv3/5SB0ciwOjo6Lfeeuvrr79edJHgGEtAQAAxmlCpVF9f39HR0YyMDACAr68vm80uKCjw8PAIDw83HUMHAJDJ5F27djU2NnZ2djo4OKAWuhG2HAq8sAMGBwdzOJwHDx5cu3ZNpVL5+vpCQ1tnZ+fQ0BCTyfzmm2/gXNaTJ09SqVT7UgZi3gzCwsIiIiJQV09XV9fz5893796t0+mGhobgbME1a9YgSz0AgEwmw74m+FUoFBInFSqVyqtXrxJPgUYOiS0nZ2dneJfpdDrYOLOuikWREDuq7BLrdkBLu9iXMhDz5iEWi7lcblpaGoVCgXLUlJQUNN6I6O3t7ezsRI1XV1fX7du3o37GysrK3bt3E7evr6+Pj49HXf8dHR1MJhO24bq7u3t7eyMjI8064yBGjip7ionvvPOOUSdjXl4b2S1zAAAf3UlEQVTeu+++u1zlWV6s2AHNYtfKQAzm9WHH3r5vvvlmuYuwgrBiBzSLXSsDMZglw55iIobIy3YEY2UgBmMLOKcsBoPBzINjIgaDwcyDYyIGg8HMg2MiBoPBzENd+jdYMBgMZqWBIuGyvceCwWAwKwcUCXHbGYPBYObBMRGDwawghoaGurq6rG/T0tICc/Xr9fqSkpJXWwD7i4larZbD4TQ2NhotXwK3H9bsYTCvG41Go1KpAAA6ne5//ud/CgsLCwsLjdK4QA0RAGBsbMzUw6zX6wsKCpBxBHHr1i1b8uvY33ssVCr1N7/5TWxsrNHyJXD7Yc0eBrOUuLu75+bmAgC+/fZbsxvw+fyJiQlimhyYpnvz5s3EHDkQuVyOxPZWsL+YCAD4yU9+stxFeDmQZm9ubg5q9gwGQ0VFRXt7e3x8PNLsAQBu3LjR19e3evVqpNlDkh0M5s1GIBDcv38fpoDt7e0lJpdFDA4OPnz4UCaTCQQCFos1Ozt74sQJ9OJ/RUUFrEMsaCuxwhK1nYeGhvbu3evt7R0fH19fXw8XstnspqammJiYn//85wCAurq62NhYHx8fEokUEhLyl7/8xdLR2Gz206dPgQW3H9bsYTD2SHBw8NGjR318fGJiYo4ePWokF4JwOJyjR48yGIyEhAQWi7VhwwaRSDQ+Pg7XIpNBfn4+FNtJpdLS0tILFy5UVlZCh9KCLEVM1Ol0OTk5W7ZsGRsb+/zzzw8dOoS8d7/4xS+uX7/+2WefabXa3Nzc8+fPj4yM5Obm/uxnP/vZz35m/bBm3X5Ys4fB2C8qlWpkZKSvr0+tVmu1WrO5PicnJ+VyeWtra0xMTHh4eEdHB0qmrdVqid2L8C728/M7efJkYmIirIIsyFLExIcPHz5//vzf/u3fKBTKjh07du3alZ+fD1edPXt29erVjo6OUGu3bds2KpWakZFhJe0+wqzbD2v2MBj7hc/nQy3BrVu35HI5k8k03aavr8/X1zcsLKytrU2lUlGpVLlczuPxAKGeCJmYmFAoFPHx8WQymcVi2SjeWIr3WAYHBzkcDmrzh4eHDwwMwM8oeLHZ7DVr1nz11VeHDx++cOHC6dOnbTmsLW4/rNnDYOwCrVbb2dkZExOjUCi0Wu3k5KRpTJybmxsbG2OxWGw229vbu6OjIzIy0sHBoaWlJSIiwsgBJ5PJXFxcbBylXNL3WIKDgwUCASruwMBAVFSU6WZbt2598uRJfX393/3d3504cWLBw9ru9sOaPQxm5dPV1RUeHg4reomJic+ePSNWLAAAs7Ozg4ODa9euhZMTqVRqW1sbk8mE7S2xWAztQwg4qmnj2Zf0PZZNmzZ5eHicP3/eYDDcu3evvLz8+PHjppvl5+d/9dVXxcXFRvJWK4c16/bDmj0Mxh4JDAwkzrEbGBiAI5MQvV7f0tISFRWFOpfIZPKxY8fy8vIyMjLS09MpFIqRp9THx0en00HR28jICLFrywpLEROpVGpJSUl1dbWfn9/p06eLioqItSHEjh07fHx8/Pz8IiIifvrTn6L2tSWYTGZRUdH58+cDAgIuXLgA3X5wjMUoJiLNHhRgIzdeZWVlQECA2YNDzd7o6Gh+fn55eTmcRGqKLYcCLzR7AAAOhzM7O3vt2rXLly/D/lPwQrM3Ojr6zTfffP31119//TVsg2PNHuZHhaenJ6qsjY6OqtVqFosFv0I1M5VKZTAYxKYbrEjq9XoHB4eJiQmjDnoqlZqVlcXlcvPz83k8HlH+Z4WV4qji8/nvvvtuVVUVnU6fmZl5++23165d+8knnyxLYV45WLOHwdgIn8+XyWQqlSosLAx1N92/f39kZCQhIQHWHFtaWoKCgnx9feFaqVRaVVVFJpNTU1PRQttZoY4qLpdLp9Ph/U+hUKanpxMTE98YUR+ZTI6IiODz+bZr9gQCQUhICA6ImB8bZqdbb968mfg1ISGB+NXFxQW+7vJKWCm3XHZ2dk1NTWRkpJ+fn0Kh+Od//ufDhw8fPnx4ucv1ysCaPQzGLlgpMZFGo/3+979f7lK8RrBmD4OxC+wvLw4Gg8G8PnBMxGAwmHmwjwWDwWCwjwWDwWAIYB8LBoPBmAHHRAwGg5kHx0QMBoOZB8dEDAbz2pFKpTBJCo/Hs0W+1t7e/uzZs3v37gkEggU3Li8vR1n1RkZGFi2Sg6yUOdtLjFarDQ8Pz8/PT0tLe1XHvHHjxvbt293d3dESvV5/+fLl9PR0mLTRCOtrzcLj8SgUitkMGmYRCARzc3NmM7NhMEsJ9LKFh4fDBNq27KLRaOLj4+/evSuXy9esWQMAuHHjBswG5u3tTbxzJRIJyhJGJpNra2tzcnIaGhpg7n3iAW1JQmh/MfHTTz+NioqCRqdF72hJ/vdDMLX6kclks/4wW9YCANra2tzd3TkcDloC5X9mPX8AAIlEUldXJ5PJgoODU1NTyWQylv9hVgh8Ph96OCzB4/EeP36MvsLE+J2dnQaDYXx83MnJKTg4GBpK5HI5cjqZ4ufnt3btWqlUmpGRQVxuMBgKCgpsKar9xcTOzk7bK1ZWdlwa+Z91f5j1tdPT08Q8w0j+NzIyYur5AwBUV1fHx8dzOJxbt25xudz169dj+R9mJTA2NjYzMwMDGbSJdnZ2wlXe3t47d+6Ey6OiojZs2ACXDwwMiESiLVu2WDrmrVu3kMF5bm7u8uXL69evj4mJqaqqysrKeqncAkYsUX/i8PDwkSNHfH19Y2JioJneSNonFAqzs7ODgoJSU1NhDkgAwB//+MfExEQvL68dO3bAv//06dPffffdv/zLvwQFBQ0ODlra0RTTHZH8j81m19bWJiQkBAYG/u1vf2toaIiPj/fx8bl06RLc1+wpTDPXAgBEItG1a9cuXLjQ3NwMOziQP2xkZKSoqOjChQt//vOfv/32W9ilgtbm5+ePjo7evHkTGQEbGxv5fH5zc/OlS5ekUikgyP/Mev6mpqa0Wi00cMXExPT29sIiYfkfZnnRaDT19fVZWVknTpw4ceJEQkJCXFzciRfAgGiKk5MTFLQNDg7y+XzTDTIyMo4dOwYP4uLikpeXFxMTA15k2x4dHS0oKCgtLS0tLYU3l+0FJqtesKi/1yb0en1OTk5YWJhQKLx69eqqVavgciTtgxscP35cKBSePXv2nXfegRuQSKRr166Nj4/7+vqeO3cOAPCHP/xh+/bt58+fFwqFHA7H0o6mGO1otPbLL78sKyv78ssvT58+/ac//amqquqzzz774IMPUOGNTmFqB4SIxeK9e/fm5uYKhUIozUFXoKamJjk5+eTJk6GhoVFRUaZ9fE+fPs3MzERGwLS0NH9//+TkZPgvBybyPwjy/EkkEtSV6e7ujuI1lv9hlheDwZCUlGRLkqeOjo6ioqKCgoIHDx4wmUz4G+7q6kKtJYlEcvXq1fLycgCAVCotKSkxkg0QCQ0N3bdv3759+0zvd7OgSEhlMBi27PBDePTokUAg+O///m8qlRoZGYmWQ2kfAOD+/fsGg+HkyZMAgH379r333ntSqdTFxeW9994DAAgEgoCAgNbWVtMjP3z40OyOL1vCjz/+2NfXd8+ePWq1+qOPPvLy8tq7d++pU6ekUins0TA9xVtvvWV6nHXr1sHrGRkZKRAIUOBTKpUajYbNZpPJZH9//4mJCdN9ExMTYdJgaAQ0tQ4Yyf/AC88fVIOrVCpkcYS2LKiCxPI/zPJCp9NDQ0MvX74Mv8KOQjT0vGXLFpigXqvVxsXFxcbG9vT0yGQyJycnpVIpFovlcjnq8nJ1dT1y5AjsT3RxcfH09Ozp6bE0hMjn82EjbGZmxpZhSRQJl6I/kc/nh4aGmqZHRY+OgYGBgYGBxMRE+JXNZs/Nzbm4uFy7du3TTz/19/d3c3NTKBSmR7a048uWEA5BODo6Ojo6ws9w6EOtVi/uFI6OjkSZLJPJ9PDw6OjoCAkJ6e3tXbt2rZV9kRHQCCP5n5Hnj8FgwJ4aWGwqlQovOJb/YVYCeXl58ENHRwcMf0YbqFQq2NBRKBRUKpVEInl5edXX1xtJiogkJCTcvHnTUl95aGgozETb2Nj4UkVdipgYGBg4NDSk0+ksvVsdHBzMZrMfPXpEXMjn88+cOcPlcj08PG7evAnbzhB0k5vd0QqLiA4vewrI7OysUUWPzWZPTk6Ojo5GREQgyc6CEJsGRPmfqefPzc1tenoafp6ZmUFCaiz/w9gFKpUKGqYUCoWHhwcAwMPDY2ZmJjQ0VCKRODg4IMcvwsnJCRrhX21JlmKMZfPmzW5ubv/1X/+l0+lEIlFDQ4PRBklJSVQq9fz58wAAjUYDx6SEQqFWq2UwGFKplDiI7uvrC8fsYT+F6Y6WIO5oe+EtncLsGItQKDQYDDMzM93d3Uaagd7e3tTU1F27dsGZVrbg6OgIx08gSP5n1vPn6elJp9MHBwcNBkNHRwfslABY/oexE6ampmg02vXr14eGhvz8/IaHh4eGhmBDWyQSDQ0NAQAkEklRUVFFRQVqqAUEBJitadHp9MnJSTjGMjMzYxpPrbAUMZFGo5WUlNy9e9ff33/37t2mRkG4QW1tbVBQ0Lp16yoqKgAAqamp27Zt43A4+/fvT09PRxufOXOmoqJi1apVra2tZne0BHHHly280SnM2gEhV65cKS8vj4+PN5KE+fv7X7x48eLFi1euXKmrq4NDydaJiYkRCoUFBQUwMiL5nyXPX1ZW1tOnT7/99lsGg4GmXmL5H2blI5fL5+bm2Gz2oUOH8vLyxsfH6+rqsrOzXV1du7q6JicnocAvJCQkNzc3NzcX9qEjTD3sLBZrHwEWi2V7UsSV4u17s5FIJA0NDdnZ2WQyWa1W19XVeXh4JCUlvdRBsPwPY4+MjIzcuXPHygZpaWl6vX5qamrjxo0AALVaffv27eTkZDc3N7lcXldXRyKR9uzZYzrlcG5urqSkhMFgsFgsNJPxxo0b+/fvN6o8isXiu3fvBgQEGMmtICvU2/cKWYG2P7FYTCaT4aOMRCKpVCojEa0tYPkfxh7x9/c3O0nDCDRFj06n7969G352cnLat2+fpV2YTOaxY8eMFh48eNB0S09PT9vffHsD75ZvvvlmuYtgTHBw8PDw8JUrV5hMplarXbt27eJeLMHyPwzmdfMGxsQVCLRx//DjYPkfBvO6wT4WDAaDwT4WDAaDIYB9LBgMBmMGHBMxGAxmHhwTMRgMZh4cEzEYDGYeHBMxGAxmHhwTMRjMa2dwcBDlT3n8+HF/f7/17Q0GQ2lpqY0H/xF5+/Ly8v7hH/4hMzPz9Z0CC/wwmCWgs7MTOqoUCkV7ezuLxYJpZRkMRkZGBrwF4JZKpfLIkSNardY0fxX29oHh4WG5XG5pLRb4YYEfxi6QSCRKpdLLy0uv19fW1rq4uOzatYvBYHR3d0ulUvi2FYpWMPXU2NgYzIVDZIm8ffb7HgsW+GGBH8YuePjwIZPJnJqa6u3t9fX1DQ8Pr62tDQsL4/P5lhxVAoFgdnZWJBKp1WqdTrdjxw4oaEO8cm8fioRkygte9hAvBY1GGx4ehp+JwrwLFy5s3LjRx8fn/fffh0kABwYGMjIyvLy89u/fj+RKWOCHBX4YO0UkEsEfnkQicXZ2TkpKIpFIGo3m3r17vr6+SJhBZGpqSiQSpaamHj16NCoqKiEhwSgggtfg7UORcJnbzrW1tbW1tSqVaseOHbGxsadOnTp48ODBgwcrKys7Ozv37t0LN4MCv4CAgOPHj587d+53v/vdH/7wBz6fn5eXB0V60K73wQcfnDx5srS09J133oEBxRSjHY2AAr979+6dPHny0KFDVVVVpaWlH3zwwYkTJ8yeAiaX9ff3N8plDQV+Op2utLTUw8MDdeRBgV9mZiabzb59+zaLxbIk8NNoNIWFhdHR0WlpaVKpNCwsDKUIm52dNe1JlEgkMIstFvhhVhRCoXDz5s1wUGV0dLSvr49OpyclJTEYjJ6enqKiotTU1NDQUFTzAAC0tbWFhobCZ//z58+Tk5Phcujt0+v1TCZTKpXW1tYePHjQUnfQivaxWOFf//VfYT/au+++W1paGhsbOzY29qtf/YpCocTFxaEWJRb4EcECP4wdkZSUJJfLYUz08vLasmULiUR68OCBs7NzSkoKDFsQ1KUoEAgCAwNLS0uVSuXs7CzUs4DX7O1DrJQxFm9v76mpqcHBwdDQUNOGPBb4EcECP4wdQbydaTTa9PT006dP169fT6FQ6uvrt23bZlrRgy1lPz+/urq61atXW6oJ2rG3DwBApVJnZmagyNXsndnb2xsaGurt7W3a54UFfgAL/DBvCmw2m06nQ4nz9u3bhUKhr68v0TIvk8lgF/mqVava2tqQVMAUO/b2AQBCQkJqa2uVSuWHH35InFFZVlam0+m6u7v/8pe/vP3225s2bVKpVH/9618BAHV1dR0dHQAL/LDAD/NGQKPR6HS6RCLp7OyMiIjYsWNHa2trV1cX7OoxGAx9fX1lZWXl5eVKpVKn0z148MDNza29vR0d4c3x9gEAzp0798knn8TFxYWEhKDmJwBAIBBERETs3Lnz448/Tk9PZzKZRUVF58+fDwgIuHDhwvbt2wEW+GGBH+aNIDAwMCIigsFgBAYGdnV13bx509nZedeuXWQyWSaTzc3NdXd3x8TEHD16VKvVlpSUeHl55ebmTkxMNDY2wh/2m+/tY7PZlZWV69evX7IzLjtY4If5ESKVSu/fv5+VlQUAqK6udnV15XA4vr6+xEAmFovRawuwOwg2sLRa7f3798PCwthsttFhsbfvpcECPwQW+GGWERcXFxgQAQCWJmkT3+NC3j4AAJVKtfTe7evy9tnveywLggV+CCzww2CssyJ8LLZMLn/DwAI/DGZlgn0sGAwGYwYcEzEYDGYeHBMxGAxmHhwTMRgMZh4cEzEYDGYeHBMxGAxmHhwTMRgMZh78YgMG83qBqTpMl1MolB07dth+nIcPH46MjNBotOTkZJj/asOGDXAqfnl5eXZ2ttm9RCKRQqFAqUAWR3t7O5VKjY6OXt4iLc3pluI9lh/oxrNu7zt16tR//Md/EP1Nr5aXleq9Wgkf9u29GUxOTubl5RktRJmlZ2dnq6qqiKtmZmacnZ3Ru5h79uyBKYGzs7Orq6vVajVM7a5QKLq6uvz9/dVqNQBAp9NduHABpiLOycnx9PRUKpVNTU2urq5hYWGLUJQgdDqd2d2XuEiv9XRL+h7LD3TjWbf3VVZWvv/++5bWLs7tR/TkLSjVM2LREj4AwPDwcFtb28jIyPHjx2GqbezbezNQKBR1dXVGC2GuFwCAm5vb0aNH0cI7d+5As50tIWNubg4dBwDg7e29e/fusrIyT09PmUx2+/btzZs3q1Sq6urq9PR0o5RZs7OzdXV1crkc+R2JawcHB5ubm+FnlUpFIpG4XC78Gh8fb+Vd+x9SpJGRkba2tuHhYXQLvNYrQARFwiVqOy+NG8+Uxbn9jDx51qV6pixOwgcAYDAYUVFRSOYFAMC+vTcDR0dH02Yy0UACmZ2drampUalU69evr6urCwgIWMTjsL+/PzIysre3t7W1NS0tDaaqYzAYN2/eTElJgXmdITU1NRs3boS5TaHfkXgcDoeDntwwHR+UQC0C24tEp9MjIyNFItHiTvSypzPLEo2xIDfeL3/5y4CAgPDw8H//93+3sr1Ze591M5/pWhvdfkZJYU09eVakejU1NSjnpUQiuXjxosFgWJyEDwDg5eVl2oLGvr03gLm5uVoTiLWb6enp+vr6srKyxMTEtWvXkkikLVu2yGSykpISZOy0kZmZGScnJxcXl5iYmAcPHhQUFFy6dOnx48dJSUlEY/LU1JRGowkNDSWRSLGxscjvaDZH8g/ExiIBC7fAyxbJ9tOZZUnHWFpbW//85z/39fUxGIyWlhZLm+n1elN7n3Uzn9m1trj9TMV7pp48IkZSvYiIiCdPnqxbtw68yMdl9FRfnISPCPbt2TskEunv//7vrWwwMjJSW1sbGxsLpTpQHUGn0xMSEmZnZ+/cuZOWliYWi0UiUXFxsVQqra+v12g0FAqFRCKZDh3Ex8eXl5fv37/fz88vOjq6s7NTp9PBnygRiUSC3E/I74huB5VKVVtbizY2ajsDADIyMiQSyastkllQkcbHx5fgdGCJYyJs4VdVVeXm5lpJD9PS0mJq77Nu5rPF22dpG7PiPUsYSfWCgoIaGhqgXU8gEJhe90VI+IzAvj27Znx8/O7du+irSqXS6XTEzpMtW7b4+/ufOHEC9Wd5eHigz25ubgcOHAAAeHp6DgwMbNu2rbq6euPGjWNjY87OzgAA098GlUp1dXW9e/cutEIqlUqDwQCrgfHx8ag5bMnviG4H9KGrq6upqQkAkJKSQgxAPj4+r7ZIZiEWaQlOB5Y4Jq5ataqmpubs2bMfffTRF198sWvXLrObmbX3Wdfm2SLVe1VuPwiU6pHJ5PDw8P7+/tjYWLFYbKQZMN3edLmRhM8U7Nuza3x8fI4cOSIUCqempuLi4vr7+6empkwzq1MolMLCQiqVitoZjx49MhgMMpns7bffhku0Wi2MYjqdDoUzU/R6/czMTHp6OnwAw1pSTEyM0c/Mkt/RiJGRES6Xu3btWiqV+uTJEzc3N6LB4tUWaUGW5nRLPT8xNTW1oaGhqqrq8OHDo6OjZq1JZu191rV5VtYuzu1nu74qIiLizp07np6egYGBNl50SxI+s2Df3hsAj8dDT18ej4eG0aKjoyMjI9FmBw4cIAYmnU5HHIdB1hEUGgAADg4ORrWHW7dueXt7u7q6NjY2ooPfuXNn7dq1xHDm6upK9Dua/Y1NTk7W19fv3r17aGiIRqNlZmZWV1fv3LkT9cq92iItyNKcbknfY3n06BGcvAoHsNBjygiz9j5L2jw6na7RaCyttcXtZ9qDa+TJsw6LxTIYDJ2dnTYODVuS8FkC+/bsHbVaPTY21t/fD//RERERh15ADIgLgp7ucPYi/BwTE4O6BSFZWVmpqakikUgmkyGzRXx8fGNjI3EyMovFotFopn5HdDtwudyKioqtW7eiBzaLxUpLSysvL0cdi6+2SJZARVqa0y1pTKTT6Z9//vnq1avT0tJ+97vfWRoDMmvvs2Tme+utt86ePWtp7YJuP7PiPSNP3oJEREQ8f/48MDDQlo0tSfgAAJcvX87PzwcAXL169fr163Ah9u3ZO83NzTExMampqcXFxUNDQzqdzlJnSHFx8XUCN2/eRKvm5uagBFmv14+Pj/v6+lrvUeno6IBd9jAKuLq6hoeHE6d5AQCysrLa2tq+/fZbOp0Opw+j22FoaKi3tzcnJ8foVx0UFHTgwIGenh6hUPg6imR6C6AivY7TmYX023vfT4e+cvsRWFpv3xsDj8cTiUREz6rtWJfwYd+evTM8PNzZ2ZmZmUkmk6enp7u7uycmJtRqNbqfU1JSYNypqanZsWMH8R+t1+urq6uhsEkkEmm1WoFAAKeystnsZ8+eJSUlOTg43L5922Aw7N27V6/XNzU1wbfFYDOzoqKCRCIlJSXZ/tIB8eyoL6i9vZ1GoyEjOVy1xEV6faeD3r5j6d+PNCynyxSsSLXey6JQKEpLSzMyMhbxs4O0t7c7ODiYnfozODgoFos3btz4w8qIwWAssrJcpitQrfdSdHV1PX78ODY2dtEBEViV8GHfHgazxOAW2Q8iOjraNFnIy2LllXPs28NglhicPxGDwWDmwTERg8Fg5sExEYPBYOYh015ERSqVAgBQqF97ilkMBoNZIchVOgAAjfp9rz2dAshOL94aZNJpAIAJmXqZyobBYDBLzaRMBQBwfJFrlkkjkZ3o379z7sx0BAB0j0qXq3AYDAazxDwbkQIAnJkM+NWZDshuVLVOp9PpdGyWKwDgTo+t7/liMBiMvdPAmwIA+LPcYRh0o6jJa/wcKRQKhUIJ9vMmAdKd7kmRWLHc5cRgMJjXzvC08i5vkkQiBfp4wDC4xs+R7OdMYtJIAAAnB3pYoI9Wb/j9bf5yFxWDwWBeO/+vpl+jM4QH+jgy6AAAJg34OpHIJADi/L4fe14XHkSlUOq7Jy/dFy5rUTEYDOb1crFJ2MCbpFEp68K+f312gx+FRAJkAMB6X7ILnQQAYDLoaesiSCTwh1v8/GYcFjEYzJvJxWbhH+v4JBJIXbcaVhKdaCDWhwwAIMGcz/3Thso+Lcz+3CMYbekeMBjAtkivn2eEBno6LmfZMRgM5tUhEiu+rOU38CZJJJAQFRIZzAYA6HW6vZH0MA9CTAQA3B/Wt4x8P2F7eGL67lOeVqejkknbIr22RnpFsZ19XBiOdJyPAIPB2BkKtW5cquoeld3pmWzomdTqDTQqJXXd6kDv79NZxXqqt4U5wc/zMdFgANV8Xa/4+1SXKrXmaZ+wV/TcdjMJBoPBrHBIJBDC9t4QsQo2mQEAqz1Jyd4KV9fvhTkkYsgzANA6qm8W6eAinU6n0uhE42LRxLRMoZxTqbVa/OYfBoOxM6hUCpNBc2E6Bnh5BPp6Ml9EQxIAG9jk5ACKTDavPiaZVgP7p/WNAr1UbdDpdFaS92k0Gis6Qev7vr61KpUKShtWVKnwtbJ9Lb5Wtq/F18r2tabXyoVB2hJEDvUgAwCIOniSWZ+6zgC6psjcSbJSR7J0jgXFxMsC9HYvdymMwdfKdvC1sh18rWyHeK0cqYZYL8MaTx3FXHijWpK+p7iCGJZUTnYemDE8l+nnNECmARrdfKVSr9cvS7y3vlar1a7AUuFrZftafK1sX4uvlY1raRQSVadkudJ9nMgh7iQ/J6iJnodYTwQGy0gkEitrR0ZGFr3v61vL4/FWYKnwtbJ9Lb5Wtq/F18r2tbZfqxVX8cZgMJhlBMdEDAaDmef/A4uOINoscToKAAAAAElFTkSuQmCC;fontSize=10;" vertex="1" parent="1">
          <mxGeometry x="414" y="50.45" width="263" height="209.55" as="geometry" />
        </mxCell>
        <mxCell id="nBw6GsbtSf8_8-KWiXff-9" value="" style="shape=image;verticalLabelPosition=bottom;verticalAlign=top;imageAspect=0;image=data:image/png,iVBORw0KGgoAAAANSUhEUgAAAekAAAFkCAIAAACLglTGAAAACXBIWXMAAA7EAAAOxAGVKw4bAAAgAElEQVR4nOy9d1xbV57/fdQlkIRAgCgSvRtsbGyMMbYpBtfY2GbcPZ5s8sxmNjvJlNfMbJ7JzPzmmZ3dZJNsvM9sNrOZ3cRxSGLHBdypNsYYMNj0ZppAFAkQRRWhcu/vj2Pf3EhCCIwL8Xn/wUu6nHrLV+d+zznfD8DtoVar7R6HDA8PO/iv47xP7r+dnZ3PYavQuXL+v+hcOf9fdK6c/+/39VxRAQKBQCCWGhQcx22PajQaPc4sf6C80z0hnzKMqmemTZan3zgEAoF40eAwaJ5chr+Hy/owj42RniI+yyqBRqPh8Xh2bPeYZuavN7oLWsctmB2zjkAgEIinA5UC0qK8/jEjxFfAJg7at93lnco/5HdMG9EoG4FAIJ4LXJi0P2ZHb4gQwq92bPeZmqH/KO5Go20EAoF4rqBSwM+ywvav8QePbPe3c5XlnUpkuBEIBOI5BMPBiaLu253jxJGHtntMM/OH/A5kuBEIBOL5BMPB/7nYrtQY4VeqRqPRaDT/VdKFfNwIBALxPKObsfxXaRcAQKPRUHk8nh5nFrZNPOtWIRAIBGIOCtvGlVrjQ393+QMlZm+VNwKBQCCeKywYXtmjAtDffacbDboRCARiaXC375HtHp6cXqxCV0jcwkVc+HlloCDCh7vg7AiCxzyrzycOOvKC3wYvTve/NzezM2yIEJL31zwOcpURQNs9pjUuSokAgJdTAnasEMHPx5Ml25eLFpx9UWAzqN6kHaUnDsX9ckvYIpb/dHjMs/p89tpBR8j9fTqNn+99Qk5glffxWfSn4LnFwT1w4lDcz7MWct0X/XIsFr/aGr4qwG1RioIWmwoA+B6vMEkOE/7Lvhjia3XPZOOA6hm255mwpHv9dBo/3/uEnMAqL2JRqO6ZbFrQdX8RLofBhAEA6M+6GU8WPuc7HTxdM/isWvIMWdK9fjqNn+99Qk5glRexKCz4ur84l+PJ9pNGobyZGZoZ4z1jxvLqhnOrBpzPSwHg4Fpx9ipfD1dmg0z1YVH38JQB/mtvgt++1X4+fHbbsPpEcU/PqC7Ch3t0nSTOn+/CopW2jX1Y1GOyYL/eFp69yo9KAdVvb+of1x/4uPbEobi+cf2Joh4H5Z84FFfcOurJY+1Y4cNl0U7dGXDmNnKySbD8gpZRsTvnB2v8/r2wu7h17IfJkpfifbhsek3v5AeF3VN60+KeVXKvTxyKK24b8xOwd67wUU2b/lLSKxvX/3Jr2MoAQeuQ+vf57eppMwAgKdTjHzNC/N3Z0jH9ZxX95N1cdsu/0z3h787OiPYyWfC8+8NfPGrSqf8noaB55KvqQQAAh0G7+ZuUVz6rbx1SO98RcuPtnufZWjXb+bctZF+C32z3yT/vjcFx/Hd57TDjpkjP/3dnxPYPqz44EAsTWN1jDxRaGoXy2wttMP26UI//b0/01n+vdBDWzXGPZuuF3Qs0r6tmt+ondNM6eJZnuwfePxA7ODkNrzuVQpmtujkv5WxNcr5HtmfJgen4bpmjP1wfkL3Sl06jXm8eWfS1fE/Wdmev8v3f8v7Xcxtj/Xm/2R6h1BoLmkeczPvKxqDsVb5/vvxgeMpwdJ3kbz9aeeDjWu2M+fj6gKPrJO9d72od1qRGelIpFADA5hiv9mHNZ7f73VwY7/5gmVSpP1s79GFRj9pgTgx2f/2LRhxYn7jZygcAvJEZer155HcX2jZGer6RGXKzY2xEPeOgqc43CaY/vFYsm5j+zdnWnlHdTzeHLBfzf3O2dVJv+vtNQb/fFfWL081P7qwCAH6aEXK5QfGrMy0/XB/wf3ZHjWlmTt6RfVk1+O4Plh1MFH9yq49Fp/5rTsznFbL8enmMH49OnTvI+08zQj693f/TL5uW+fF+sz1izLkmzbcjds/zbMx2/m0LcXCfFLeO/n5XFINGMVlwAMDGSM+b7UqyIbbKuzJA8C85MWwGFb7VJod5VHQ5isc5Z4/s9sLuBZrvVXuaN62DZ82Ze2C26uZ1KW1xpkd2z5KD7pDLfDklcH+i/79e7ZSO6TOXeXvxFtkLT5fL5YtbIpn8OvnJOzIAQP+4Pj5AsCvex0krw2HSjq+X/OnSg6qeCQDAv17tPPsPa3JW+52uGXxlQ+B7BV1FraMAgC+rH/5K/9cNKZG3umcyIUhwtnbIZMHMFgzDcdvg47OVD1tb0TkOf/BH1DOvbAgMF3Ed2G42g+p8k+BXJp36x4sdJgvG59APJIoPflwjm5gGAJwo7in9dYoLk6Z3OAOx4LMKudM1/tGNXgDAxXr55hivt863Qcfivb6pSF8uAIDNoHEYtNZhzZTeVOnc+tGL9Q+b1KecR5Pm1ZHZzvNs2D3/sxUy231S2T2BAzwhyL26Z4JKoaSEe/z2fBs5gdU9ViOdNBixdaHCmx1jAIDkMI+/lPY+To9m6YWdCzSvq/Y0b1rHz9qc98Bs1WE4Pq9LacucPbJbhePuEGUyaJSjyZJ/L+wu61ACAP6nvG9XvM+cTXIeuVxO9/X1BaBzEQslYyG9JnSNaBND3J3MGOzpwqBR7/dPwa8YjtfLVJG+3BAvVyadCs+aFcv8+VtjvcNFXLEHZ2iuVY+zlQ+/ambM8MOU3qSeNruyaA6KWkCTqnsn4KtoqJcrlQI++dFK4l8UADy4TP2Eo/Yv+KxCiN7JxvUAAK3h4df+cf3qIAEAQDVt+muZ9L39sRVd45/fkXWNaOcsc2FNmlcuB+d5NmzP/3wLMVmwWw/GN0YIq3sm4gPcMAzU9TuaQLNgeHHbaEaM182OsQAPjhePdbdn8jF7ZNsLuxdoXlftad60jp+1Oe+B2arjs+nzvR+smLNHdqtw3B2izAAPFw6DVtM769V/THx9fZ+eX5/NoDm/oIVCoQAAyA4iHAcUCuXhS6XNy9DPs8JWSPj/Xdb3n6W9P0oJWBUoWFj5tinn9FI9TpPUBjMAYP/HNdDLvADmdVatsHqVJ0cDPlkhu9Y0cmyd5G8/Wnn67uBfy6TWmZ1uEgU48mzMlsuW2c7zbNg9//MtBABQ3Dr69kuR713v2hTpeaN9bM77oaB55KNjK5h06rowjxrppIMBoDONme0usnuBnL9qT/Omdf5Zs3sPzFZdrD/fbhcWwLyqcLI7LAYVAPBE5Wuenl7lqkC37tlnlqyQjunMGL7y0XJIKgWsCHDrVGilSp0FwxOCvnNLebgyDyT6//ZCe1XPxIwZIxsLM4az6Hb6OFv5C+jXfJtEZmBiWm+0rAv1WEC9kHmd1Xkxqp75oLD7T5c6DiWJqU6Z34ckBAmIJulnLP7uD/cjeHAZDnLN2RG753k2Zjv/sxUy230CAKiVTtKplChfXkq4R0n7mG0Cq7xtw5pR9cyaIPekUA/4vrzgHjm+i+xeICev2tO8aZ1/1uzeA7NVt4BLORvzqsLJ7gxNGnAAov14xBHH0zMLYJHH3boZi4DDoFIocHiSGulZ3696oNBsiRUlhrj/6H/qnMyuN1pyKwfezAxVG8zDU9NHkiQ8Fv1s7ZBuxvL13cE3M0P1RkvXiDYx2H3GjN3rm8IB2BQpvNY0khTqkb3Kt39cDwscmjSEeLnGifljmhmF6luf9WzlL6zL82oSGaMZ++x2/88yw7QGS+OAKtjLxU/ALmwZBQD8a06MQjXzH8U9j39W58vKALdty32+rBqY0BlXBgpG1DNzjh7SorwaZKoOuWZrnGhNsIBoUteIdkOEMFzE9XBl/H1qMLHSAzJbR6z6Sxy0Pc/wXNlCoQC753+2Qma7TwAAFgy/2aE8uk7CZtAaZVO2ddnmLWgeTY/2XC52++PFDgcnbbbGEN2frRd2L9C8rtoTumnt4vhZm/Nmnq26BVzK2ZhvFc6YDtW0qbRt7M3NodDvemSdRMhjOtMY51lk232jfeztXZEJTSO10kkAQH69fNty0e92RQ5PGX72dXPnXJ5TcvZPbkm1M+bfbAsXuDIaB1SvnqzXGMwAgP+6IdUazG9sDvVwZbYNqz++KR3XGv+9sPvvUgIPJopvPVB+cqtvS6w3LLCsQ3krSvn/H14+PGU49rf75LpmK38BzKtJVnxRNTBtsvzj5hAfN5ZsfPrMo/WIXBbdlWlelLM6X3rGdAaT5YMDsUIe84FcazU7Z5eWIfX25aLfvRQ1NDVNbtLnlbIwEfevP4xvHVL/8WLHfxyOI+earSNW/SWwPc+ztcfB+bdbiIP7BABQ3Dr6X8dWnK0dsmsNrfJiOF7YMnLu9cTGAfWcyz3tNobcfbu9sHuB5nvVnsRNOxsOnjVnbubZqnPmUjq5Mm9eVThpOv716oNfbAl/b3+satr0Te2Qd88i224KjuNJ/3xrcQtFvFCcOBQnVerhKwICcuYna/Lr5F/fXcK7op4t5PXdCFuq3970DPYgvX8gVuLBsTpY1qF0MIx6HnjOm/2km+e4/MV25TnL83lRxB4cPwHnxiPn+DNs5NOsenHrYjNocE3989Ok5w007kY8LlZbH19k2Awqn8P4p+0RuhkzsRsTMS+4LDqHSTv1asJ/35Lm1z3B3SdLmuq3Nz29dSYIxPeejRGeZ15bY8aw9wq6nnVblipHkyV5P13bOaItmn3+EwEAoKjV6sz/WOSFCggEAoF4chS/uYrK4/HmTohAIBCI54aHepUIBAKBWFog241AIBBLD2S7EQgEYumBbDcCgUAsPZDtRiAQiKUHst0IBAKx9EC2G+EUIj4raZ6xahOCBE6KMAR5uliFiuax6bbb7KkUEOLlKuTOI6bPrngfPwHb7r+oFLA3wY/NmOMRoFJAjN+TXUebGuk533OLQLwomsqIx4TLpgcJXap7Jlh06s+zwsykkHpUCrjdOW4lL+LFY6VFeVnFxqTMEivf3YXh6/atmp8ri/bD5IBrTQqpUg8AELgw/N05Ynd2hA+XQaNWdU9Uae2opUT78rYvF8HPUqX+wv1hAACTTl0b4h7o6UIk+9/yfhj1LVzEZdGpBhMWJ+ZviRWRi6rvnyp9FI2EQqGskLhJPDhFLaNuLozXUoOt6i1tH4PxDjkM2j+kW//30SmilD1QEmER1wS7JwZ/+6vGZlBxABJIv17Ng+ryTkexvxEIukajedZtQCwxTBbsg8Ju4uveBD8rdRg3DmP/Gn8cx3NW+xEH6TTqPelkKUm+4KebQ2BAejqVQqVQwkSPNOcM5uZBNTTcVAplW5xIO2MWuDC6R3RFraMWDM9c5k22dPWyqcKW0Xa5pl2u+dH6gCtNCqXGSPy3RjqVVyfPWe1XL1ORVdjXBLvDcFHNg+rmQfVrqcHf1A5N6IwHE8UDJPkuC4ZfuD98ZJ1kdbD7Pemk1Wb3rGXfRkmdNlnIp4XMvtV+ZlLs8lrpJDm8bVqU14zZ4qQ0KAIBANBoNHS0rxLhmFBv1x+s9oef/2l7xOVGBfxMp1IAABgOPLnMxoFvVRwlHpzsVb610qlq0kjcT8A+uFZc913tgr+UPNThXRng5idgX20aYdKpOav91NPm249GnRiOw0iqGyM8MRwnRKSI0e6aYHcPVzuKPJnLvG/PPnQN8XLVGy3DU4akUI8+pV6hMrAY1BmzhU6l+Luz8+u/ozkwY8a+qRkyWjDcRsXKKjz0zhU+YSJX2+qYNGr7MBokIRYNHo+HfCaIOegd1b1X0BXq7ZoQKPimdohJe+ggjvDhJod5AEBRqAz9yofGLi3Ka7mEX9I2ZrJghIeEx6bvSfC72aGc1DnSIuAwaAcS/cd1xquNiseX+fN1Y88mHMOiU9OjPa83j/i7s1cGuDXKVPDgjAkTe3CUWqPB9HCMHC7i7kvwAwBMmyzOBCi/8uiHzYrj6wNmzN/RDNqb4CfiP3QTcZg0DMdXSB7KaJks+P+U9znRRcQLDbLdiDmAg00LhuM4sGA4Rn1oEduGNW2PxpLEvGL3qPZe36TRjB1IFMeJ+ZfqFUIuc1+CX+ugur7/20G3iM86uk5CroVOo8aK3cwWTMhl/mJLGDx4qnKAzaAeSBQDAGhUCo7jSaEeM2ZLh3xuqSA6jWL+rsQaQaQvz5PL2hXvy2PTL9bLp00WJp1KpVD4HEaQp4s3j/VmZujwlOFs7VD3iPbfrne6suh/tyFwPufMGgaNavyu7YbueAjymSAWALLdiHlApQAmncqgUX+9LRzHH3oMKBTKmGbm8zsyAADhKf767sDulb4vpwTw2PTyznEr9bIR9QzhGvZ35ySFulMAuN05PqK2IzD4fkEXnAYkZiAzl9nR4vLkMY+ukzBp1B8mB1R2T7DoVGwWPfL2YXWXQhvuww31cnmg0AIABC4MAECsP7+sQ1nWoVwT7M5n0wEAOABENyGvpQbzOd8+NRQKBTrNaVTKTzeHkGthUKk4AGbsocnet9oPAPC/5f0Gk+W1tG+nNJk0Kp1GBQBYadp+VNr7JEXGEUseZLsRc8Nh0PwEbB8B643M0JvtSpMFK20f83FjFzSPAACSwzxYdBo5PZUCwkVcPoeB4eB0zeDQpMFusaFerkmhHhIPjgXDtTPmvQnfTmzWSCfv9307Tk8IEuAABAg5yWEes41PlRrjiaIeOFeJYQ8X9jFoFE8u82CiP41KCfJ0VU+bPrnVZ7Lgrizq+jCPi/Xy1UGC4SkDj01XqAwxfryKrnEMx6N8ueUPxu3WQqGATyv6ibnQjRGeBpMFAGDB8BNFPcv8+T2jWuhySY30dGXRrjaNAAB4bHqsP/9u7wQ0x4SjP9TLNSvWu6hFnh7jda1JAU+UxIMzrjUiw41wDLLdiDmI9uW9FO9jMGFagyW/flhrMG+O8WodUm+IEFZ00rUz5hg/fmHLCACARqUEeHBCvF0jfbhcFh1an0NrH/pGKACoDab/LusDAPi4sXcsF/E49O4RnUWJn/6uWO2WWG8W/dtl10w6Ndaf3zyoNpqxCB+uY6c5hE6jNA+qAQAuTLpUqfugUEVeZ+LGYRxcK+ay6PsT/duHNV0juiBPlw6F1o1DXxXoNjg5zWPTyUtNHEBeyUcBQOjK3JgSeKVRAbPHit3u909hOPjBav+WITV5XpNJp64PEy6X8L+pHZJPGfh9jPRory8qB1YGuKVECC/WyWXONQDxwoJsN2IO+sb1n9zqE3KZa4LclRojtKomC17fr8qI8Xqg0BrNGDRVTBp1XZjH4IShT6k3WfDi1u/onvi4sXev9IGf1dMmucpwukYp4rPJK53tsi1O1DKkplIoGI5fblBE+869MmpUPTOqnmHSqa4smnraWsOby6aNa41lHcquEa0FwykABHu6VnSNtw0bjyUHROiMtzvHndQXJ4MDUN6pHJ6aTovyOlMzyHdhjKgML8X7MunU4pZRQgGdw6QlBruvDHSbNlqGJqflUwYAQPOAKiHQ7WCimMWgnqyQ2dUdRyDIINuNmINpo2XaaLHdzVjVM/HKhsAgT5e8R9Nu0ybLV9WDAIDEEHc3jp11ewR6o+Va0wj87O/OfnXjd2YCuWx6Te9D/3isP9+bz7rWpFgXKgQAjGuNFV3jdv3dEAqFInHniPjs1iF1nJhvd/g8NGk4WztEo1IiRNwVErcR9YyfgC1XGYxmTD5lCBByWofsrOdj0KhePDtbOpdL3AYm9MTbwIh6pk+p/3FqEACgvl/FYlAl7hy56luvEZ1K4XPoX1cPevJY0b4Pl7SbMfxiveL4+oDrzSPIcCOcAdluxMLRGMwCFwaD9liRFYYmDbY+E+LzqGbmUr3cVjI8I9orI9oLfq6XTQEAYvx4m2O8zRjm587pHtG6cRjrw4RnvlsyhMemJ4a4x/rzp/Sm+31TPDa9e1RrNGNxYn6AkKM1mLfGeV9vGiGqpFIodCrlh8mSbtLWHoJoX67JjE3qTBIPTkKQINTLtWVInVs1sELsBgC40TaWHuP1o5SAG+3KDrnGguEag/lygwIA4MljAQBYdGqYiBvpw73ZMXamZnBvgp+PG6uqe0JvtNjWhUAQoH2VCKegUSk4aUM7j03fucLHjOFXGhXZq3yreibu9k6S963ES9yW+X/HuUGjULQzdkaUEg+O1QoNFp1W2f1wqnDU3soTYG9vzsDE9KlK2ZTeBADw5DKPrw+41zfp48Y+lhwA2x/i5YrhoLBlZEQ9w2HQoKOZw6D9fVrQhXvDW2K9o3x5Z2qGVHrTkXWSg2vFVxoVcAgs8eAwaNSuEd3tTmW4iOvJZY1rjLCrTDrVk8sa1xkBAPEBbhNaU1GLFJpdOo1ixnAcgNK2sYHx6fQYr9Qoz09v908/MspBQk6A0OWnm0OHJqebBtXqafOkzvRF5UB6tOc/pIfkVg0oVPbneBEItK8SMTfQDuqMFsKPYcbwtGiv4SkD9AtP6k1pUZ7tcg3hN9DPWG53jVd/N8KJJ5eZGuVpVbh2xmybMsqXZzBZjzp1xm9jqNT0ThJr7xpkKjjuJ7sa1AbzjfaxliE1AIC855OA2ERDp1EaZKpJvYnFoH16+2Gok8/vyFIjPQmPN49Nv9yoaH1U2vblouyVvvBfFgzvHtXCHxg4mgYArAl2TwgUGMyWkraHAQA6R7RdI1ovPmuaNJpWTZureyZahtRkj/yEznju3rAnl6nUfrutH4GwgsfjUXAcT/rnW8+6JQgEAoFwluq3N6EYsAgEArH0QLYbgUAglh7IdiMQCMTSA9luBAKBWHog241AIBBLD2S7EQgEYumBbDcCgUAsPahoXyUCgUAsLTQaDRXtq0QgEIilBY/HQz4TBAKBWHog241AIBBLj29jwFa/vekZtgOBQCAQc0KEn0LjbgQCgVh6INuNQCAQC8RgMGCPwhE/ZZBuDgKBeKG5fv16ZmYmnW5tDHt7ewEAISEh9jI9pLy8PCEhQSgUXrlyZWbmW50Qf3//pKQkcsqqqioajZaYmLhYzV6g7Z5sv65q+qtF3QQAoPGXC5b/RBC91cm8L7/88h/+8IegoKCFVf1sOXjw4Kuvvrp582bbf5nN5rCwsNzc3JSUFCezLBb5+fmpqakCgWABeTs7O2k0WmhoqJPpZTKZXq+PiopaQF0IxDOns7OzoaFBp9PxeLy9e/dSqVSTyVRZWalQKPR6PY/HS01NFQqFAICWlpb09PTJycni4mK1Ws3n8zEMw3H80KFDtsVqNBriuEwmg3afoKmpqbm5WSAQDAwMwCMcDmfbtm0UCgXDsNOnT6enp/v4+JCzlJaWRkVF+fv7z9aRhdju4Rv/bJD+J8eNRhNRAAAW472Jyh/p5f/ol/62M9kLCgp+9rOfLaDe54GhoSGdzo5oIQCATqe/9957cXFxzmdZLLRarcWyQHnD1tbWbdu2YRhWX1/f09NjMBj8/f03btzIYDBwHIcHZ2ZmQkJC1q1bR6FQfH19L1++HBkZSaFQFrcXCMRTICIiwt/fv7y8fNu2bQaDgclkAgCSk5NVKlV9fT0xxhoeHhaJRBwOh8lk7t+/Pzc3d//+/YODg319fXNWoVarWSwW/GwwGCoqKoxG48svv8xgPBTgvnHjhkAggE8QlUpNSkry8PCwKkSn05lMJge10Lu6uubV86n2AoP0P1096QAAow6zmHAag+LiTtNL/3OyPcE9etu8Svue8YMf/OBZN2F+DAwMeHh4sNlsvV5vNpuzs7NxHL9+/XpTU1NCQoJcLtfpdLt37wYA5Ofnd3d3h4eHMxgMkUjU19cXHBz8rJuPQDwWLS0tgYGBtsfNZnNdXV1WVlZjYyODwYiJiYHHZTKZRCKBn7u7u+/evWswGEZGRogR2/3795VKpUajWbt2LQAAx/GrV68GBQVxOBylUunr6wsAqK2tNRqNK1euJKpz7JaxS1dXFzU8PHxeeaaaPua40ag0ikmPMYN+JT7YzQz6lXkG57jRVE1/tU0/NDS0b98+kUgUGxtbUlJC/tfHH3+8Zs0aT0/PtLQ0heKh1t/bb7/t7+8fFhb229/+drYjdvH19a2srIyNjf3pT38KABgYGNi+fbtEIlm/fv2DBw9ma0x/f/+OHTu8vLwSEhLKysrsFiWVSjMyMjw9PV966SWVyo74IbkNjY2Ns2W5e/euWq0mEhcWFra0tDw8q1NTubm5OI63tbXl5eWdOnXqypUrer0e/jc3N3dkZOTs2bN37twBAOh0uuLi4i+++OLs2bNDQ0Mwzfj4+KVLl06ePFldXQ2POFPU8PBwQEAAAMDFxWXt2rVMJpPFYkkkEoPBAADw8/PbsGEDk8lkMplBQUFKpRIWEhAQMDw87OA8IBBLArPZTIyFybS1tSmVyvz8/P7+/tjYWDiywTBMJpPdu3fv2rVrAICwsLAjR45IJJLt27fHx8fDjAkJCZmZmfv27YMmnkKhZGdnJyQkiMXiioqK5ubm4uJinU63efNm8mtrbm7u+Pg4AECj0Vy5cuXUqVMFBQVGoyPB0vDw8HmvMzGrm6kM6CrBvBJfpzFdhQk/tphwGpNiVjdbJcYwbPfu3aGhoQMDA+fPn7f6iaNQKBcuXBgdHRWJRO+88w4AoL6+/pNPPmlvb29tbd2+fbvdIw741a9+lZeX92//9m+w3sOHDw8MDLz11lvHjx+32xiLxbJ79+4NGzYoFIr3339/z549/f39tkVlZ2enpKTI5fI//elP8BQ7xm4Ws9nc29tLNv2hoaFEdf39/cHBwfByZmZmHjt2jMPhNDQ0EImrq6uzsrLWrl2L43hhYSGfzz9y5EhmZiaXy4UJenp6MjIysrOzm5qaiF8Ix0UBAFQqFTkogtlslsvlPT09tr/oarXazc0NfubxeI5/wxCI5xaFQnH9+vWRkZGioiKDwQB9g1ZpoqOjDx8+zOFwUlNTKRSKXq83Go0ymezgwYNZWVlW6c1ms1arNZvNJ0+ePHPmTF5e3oULF06dOgWT0Wg0AICLi0toaGhtbW1gYGBqaqrtvCgAAD7aPj4+R48eXbNmDRw/OWDhawRpTOpYzUeYUT9+/xMaA/6GWJ+C2tpamUz2L//yL0wmM1eilVAAACAASURBVDIy0soivPbaaxKJZHBw0N/fv6mpCQDg4eGh1WoLCwuZTOb69evtHnHAW2+9FR4ezuFwampqcBw/evQoAGDnzp2Dg4Majca2MTU1NSMjI7/+9a9pNFpaWtqWLVtyc3Otirp3755Cofj973/PYDDi4+Odebuxm4VOpx86dIh44QIABAYGjo6Owl/X/v5+mCwmJobL5ep0OldX14mJb9XTV65c6ebmRqfTx8bGtFrtmjVrqFSqQCAg7GliYqKrq6tAIODz+dB2z1kUAECtVpNt99WrV69evRocHOzl5UXu0cTEhFwuDwsLg195PB75BQKBWEL4+Phs27ZNJBJlZWVpNBpXV1eLxdLZ2VlcXDw4OHju3DkMwxgMRktLC4fD6enpaW5u1ul0AQEBHR0dAACpVAqfYr1e39HRMT4+XlBQ0NfXR6fT165dGxwcvG/fvg0bNvj6+lIoFIvFMjg4WFVV9dVXX927d4/BYDQ3N59/hFUcwLGxsenp6YSEBCqVKhQK+Xy+447M23azvFZAE81woRr73hs4HWrse4/hQrUYcTp/uVXi3t7ekJAQuz8yAIALFy6sXbv2zTffHB8fn56eBgAEBgYWFxf/5S9/iYuLKywstHvEAYRllEqlUql0zSN8fX31er1tY/r6+oKCgqjUhychLCxMKpVaFdXX1xcSEgJ/PJ3EySwMBsPf318mkxkMBrVaDWeZpVJpfn5+ZWWlwWAwm81EYldXV/gBzncTbbaFxWLBBadzFgUAwDCMXNTu3buPHz+u1+sJ9xEAYGZmprS0NDk5Gc7qAADg5PjcJwKBeL6BwxEMw2JiYjIzM8VicU5ODpVK7evru3fvnlqt5nA4ERERU1NTERERDAZjeHi4o6MDjkGHhoYUCgWDwdixY0dsbCwAIDw8vLOzE9p0uHBLrVbfu3fP1dWVTqf/+Mc/Pnbs2L5HMBgMq/UFWq2Wx+M5vwRg3utMzBNVLE8GAIBKo7B4D80TZsGnVRb35NesEovF4v7+fovFYmvIent733jjjebmZnd394sXL0KfCQBg/fr15eXlhYWFe/fulcvlfD7f9sicjQwICPD19a2trXXcmICAAJlMhuM4PF9SqdR26ZuXl9d8fbvOZ4FuEwzDgoKCKBSKWq2urKzMyclhsVh9fX1kRwcBl8vVarVEm2fDmaIAAHw+X6PRkOe4GQzGsmXLrl69Cr+azeaCgoKQkBDyIkKdTufMVUAgnnOio6ONRqPt4FIoFO7bt08oFOr1+rGxscHBwfDwcIFAcOnSpejoaA6HAwAIDw8PDw8vKioinkQ6nb5q1aqysjKDwbBhwwYAgLu7e3Z2NgCgtbV1zsbAJQPON35+4+7Oj7w4AhqFCnAMYGYcx3Acw80GTKc0s4P/0XaRSVJSkpub25///Gf47lBeXg4AYDKZJpNpYGDAbDazWCyNRvPVV1/B9LW1taWlpQAA+DtmMplsjzjTzsTERDqd/uGHH8Is8MTZNmbt2rXu7u4ffvghjuN37ty5du3a4cOHrYpau3btzMzMp59+CgC4efMmMbvogNmyWM1VAgACAwPlcrlMJoMOE51Oh2EYjUYzmUzd3d12C/f29mYymfX19TiO63Q6uVxuN5kzRQEA+Hy+VqsFAHR2djY1NZlMJqPR+ODBA09PTwAAjuOlpaVcLjchIYGcS6PRINuNWLpgGGYwGJqamoxGo1QqtVpYDQDgcrl6vb6oqOjSpUvQlcHj8eBKXMdu6NDQUIVC4efnt4AVtN7e3haLBS6sGB4eJvs57TIP2935kRffl0ljUgEA5hnMwkjUjNA1I/QZy2r35M/sLu5mMBiXL1++ffu2n5/f1q1bYWsOHTr01ltvrV+/ftOmTUFBQS+99FJ6ejpMz2Qy33///fDw8JSUlBMnTgiFQtsjzjQV1ltSUiKRSJYvX379+nW7jaHT6ZcvXy4qKvLx8Xn99dfPnTtnu0XFxcXl3LlzH374ob+//6lTp1JTU+es3W4WOFdpZbvpdLpIJJLL5XDxkEgk8vX1/eqrrwoKCmZbk0+lUrds2SKXy3Nzc69du0beykXGmaIAAN7e3vAVISgoSKVSXbhw4fTp01qtdtOmTQCA1tbW/v5+uVz++eefnzx58uTJk9D3IpfLvb295zwPCMRzSFtb24ULF6AD0Gg0NjU1LV9u7ezt6empr68PDw8/cOCATqeLi4vr6OioqKjYs2ePTqe7efMmsQjEbDYTZlqtVhcUFCQmJg4NDVVXV5MdlQaD4fx3IVZtEdDp9MzMzObm5tzc3M7OTj8/P8cdoeA4DgNTOY4jSBhuixGb0Vi0SvOyX1rXjVhyYBh24cKF7Ozs2eYk7GbJy8vbvXu381kQiOcHvV7PZDLpdDpcfB0fH69Sqcg+jRUrVkRGRhJfb968GR8fX11dnZKSwuPxLBZLVVVVWFgYjuNVVVU8Hi8tLY1Op1+7dk0gEISFhXl7e5tMppqamujoaMIbWVBQsHXrd3ael5WVJSQkLED6hjDXTtnutn/39AhiwRG3ftwUeFwx3/oWkePHj1t5kw8ePPjKK6+8aG1YLJqamthsdkREhJPp+/r6JiYmVq1a9URbhUA8Bazm6pcEhLmmO6NXyeLRiBG3Wu5oxfhT4PPPP3+2DXhO2rBYLFu2bF63b2BgIHmlIwKxdFlyhptAo9HQnR+0z2gsz3bEjXgSzGv5IwCAQqHMNwsCgVhceDyeUy5L/biJ+ItAIBCIZ45Ttjvun+ZYrYJAIBCIp8lSdfcgEAjEiwyy3QgEArH0QLYbgUAglh7IdiMQCMTSA9luBAKBWHog241AIBALBMfxS5cukY/odDqoRmCFUqkkC4eZzeY51RUcQ3VmX+WSY926de3t7eQjZrM5KCioqqpqEWuBZVZUVFgdP3jwoJW626KTn58/NTW1sLydnZ09PT3Op5fJZDDqPAKBsIUcYE6tVl++fNnFxWXOXBUVFZ2dnQAADMO++uorQvSRoLS0lFA0tGV++yqXEH19fVZqb1DEfdmyZc4X8u6770ZFRUGlXbsgYXgEAkHQ09Nz9+7dpKQksrrW6Ogo1IY1mUzT09N5eXkAAIPB4O3tDeMXLkwn3tl9ld8P5ivi3traahvY9zHLfOYgYXgEYtExGo2FhYUWi2Xbtm3u7u7kf3l7e+/ZswcAoFQqGxoa0tPTq6urTSYTFGeALEAnHjwFf7etNLtdeXhnVN7tYlfoHQBQWFi4atUqb2/vn//85zCQrkQiuX///myFW7Xz9ddfP3v27M9//nOJRNLX1zdb7UgYHoFAMJnM1atX796928pwy+XyvEfcuHFjaGjozJkzra2t4+PjFy9ezMvLgwZwATrxYAGaZ/MCSrOnp6d//fXXUqkURu2C8vD+/v6HDx9+5513Tpw4ARNDaXaxWAxz/eIXvzh69OiVK1eOHz9OmCcroND7wYMHL126VF5evmfPnoaGBqhG39LSUlJSMjMzk5aWFhsbSwRotVu4bTs/+uij3t7egwcPQo35ObuZnZ2dnZ1dUFDQ2tq6Y8cO8Ehswc/Pj5CYCQ0NffDgARQAshKGd3V1vXHjRkNDQ3JyMkwM1dxdXV2herS/v39GRoZarSYcF1AY3mQyffPNNzExMbAWx0UBAFQqFVlfwmw2j42N9fT02GpKqNVqIvo7EoZHIKwYHh6+desWjuPT09Nff/21bYK0tDRfX1846DaZTA0NDUNDQ+vXr7cS8iaAT3pQUND27dsnJyehYowDnqztJqTZ6XQ6Ec78tddeAwDIZDJ/f//6+noiMZRmBwBUV1eTVd5fe+01jUZj1y9PCL1TqVRC6P23v/0tAOCXv/wldCG98sorV69eJWy3lYQ8LLytrc22nc5DCMPTaDQrYXhyssDAwNu3bxuNRiaT2d/fv2bNGgBATEwMAECr1bq6upKlNKCaOwBgdHSULAxPJIDC8AAAKAzP5/PnLArYE4YfGxtbsWKFXWH4jRs3wq9IGB6BsMLPz+/QoUM4jn/55ZeHDh0ymUwXLlzYt2+flSaJwWDo6Ohobm6enp4WiUR3796Fx3k8HlSnIiB04ikUijM68U/WdtvVib9w4cK7777r5+fn5uYG5eEhtirv8CtUebdrux0IvRN4eXmRDZndwh3r2c/JfIXhxWIxWRi+sbHRxcWFyWQ+vjC846KAPWF4k8lUWVlZVlaWlpYGDyJheARivjAYjKCgoKamJrIsiUwmu337dnR0NJPJPHDgAPFAGQyGK1euWJXwxHXi54WtNPts8vBk7Kq828UZoffu7m7yVICTEvIQJw0WEoZHIBCrVq26cOGCt7e3WCyGR8Ri8YEDB+h0ulQqLSkpIYZNdg3Lk9WJny+20ux25eGtsKvybhcHQu8FBQVQdPlvf/sb2WftpIQ8AEAkEsG5TRzHHXcTCcMjEC84JpNpcnIyIyOjrKyM2A9BpVKJt/nNmzdvfQShrk7mCerELwBbaXa78vB2c1mpvNtlNqF3OESNjIzMzMz84x//SHgDZivcrp79G2+8cf369cDAQLJT3i5IGB6BeDHRaDRGo/Hy5ctffvllV1eXp6fnzp07W1paLly4MDo6Oq+i5q0Tr1arM/+jDsylE/89wN/f/9KlS1YjyhcNJAyPQCwiw8PD7e3tISEhEomEeEBwHJdKpf7+/iwWCx45f/48lUol3J4YhmEYlpOTs4AaodZw8Zurlsy+yseUZp+YmBgZGRGJRM+k9ucHKpUaERHR29vrvDC8TCYLDg5GhhuBsMXPz892gEyhUKy22+zYsYPNZpOPkFcTLICltK/ycaTZP/7447fffvvVV18l5hCeZu3PG0gYHoF4ylgZbgDA4w+Gloztfhx+8pOf/OQnP3nWrXheQMLwCMT3ABQDFoFAIJYeyHYjEAjE0gPZbgQCgVh6INuNQCAQSw9kuxEIBGLpgWw3AoFALD2+n3qVCAQC8T1Go9FQl8q+SgQCgXj6XL9+3e4eyN7e3t7eXmdKUCqVUF3LlrGxsebmZuIrFKG9devWnLsun82+ypdffvkPf/hDUFDQIpZpNpvDwsJyc3NTUlLIxw8ePPjqq69u3rx5EeuyIj8/PzU1layK4DydnZ00Go0cbdUxMplMr9fbxrlFIBCLQmdnZ0NDg06n4/F4e/fupVKpMMC9QqGAKgKpqalCoRAA0NLSkp6ePjk5WVxcDIPsYxiG47iV4goAgM/nl5eXU6lUW13y3t5eGo02Pj5+584dhUIRFRVlNBpHRkZu3LgxMzPz0ksvOWjqM/B3FxQULLqA1tKVbPf398cw7P79+998882pU6dKS0uhODSO43V1dWfPns3Nza2srIRxaH19fdva2uaMSYtAIBZGRETEjh07fHx8cnJyjEYjDLSdnJyckZEhFov37dsHDffw8LBIJOJwOK6urvv372ez2fv3709JSbEbPYLJZG7fvr2jo2Nqaop83Gg0qlSq1atXC4XCXbt2LV++PCoqavPmzSKRKD093cXFxXFTvz974pFkOwKBWERaWlqg+K0VZrO5rq4uKyursbGRwWBArUEAgEwmI9vu0tJSQksdDsgIhRM/P7+0tLT29nYo/A3LHBkZkUgkBQUFSqWyuLh4fHy8q6sLykDa5Ynb7qGhoTfeeKOiosLLy+vEiRNk98XHH3/86aefSqXSuLi4r7/+GmqAvf3225999hmHwzlw4MCf//xnu0fs4uvrW1BQsGLFCqlU+uqrrzY2Nq5bt44s2R4dHU0ICED1Xij7OzU1deXKlSNHjrS3tz948ADKyhC/e7m5uZmZmeXl5X5+fuvXr9fpdPAFis1mJycnw0jZ8JVnYmIiKioqKSkJANDW1jZnUVaS7bBhZMl2Ij4ZlGyHVxFKBSHbjUA8acxmM4PBsD3e1tamVCrz8/MZDEZ2drZWqzWbzRiGyWQyuVze2tq6fft2AEBGRgaRpb6+nkajLV++nFxObGxsYWFhVVWVh4eHn59fYGCgl5cXi8WiUqlMJlMgEDgw3OBJ+0yg/npoaOjAwMD58+etfsSgYPzo6KhIJILiZ/X19Z988kl7ezvRf9sjc9aYnZ2dkpIil8v/9Kc/jY+Pg0cyCGRHDdQeg5+tJNuPHTvG4XDImmFQZ33t2rVQyJnP5x85ciQzM5PL5cIEULI9Ozu7qamJEFtwXBQAQKVSkSeKzWazXC7v6emxvWBqtZoQC0aS7QjEk0OhUFy/fn1kZKSoqMhgMDAYDFsXZXR09OHDhzkcTmpqKoVC0ev1RqNRJpMdPHgwKyvLeZcmjUbbvn27l5fX7t27tVqtVCqtq6tLS0vz9vbetGnTzp07HWd/BjrxBLaC8R4eHlqttrCwMCcnZ/369XaPOAZJtiMQiAXj4+Ozbdu28vLyrKysy5cvu7q6WiwWKBBoMBjOnTu3d+9eBoNRV1fH4XB6enpYLJarq2tAQEBHR0dQUJBUKiXcJlNTU0VFRfAzfJkmtNAyMjKEQuHg4GBtbe3U1FReXl5GRoZKpYK/GaOjoyUlJTQaLTMz00FTn4FOPIGtYHxgYGBxcfFbb731xz/+8YMPPtiyZYvtEcc1Isl2BAKxKISFhQEAMAyLiYkRiUT19fXQ5dvX13fv3j1PT09fX9+wsLDW1taIiAipVDo8PNzR0UEsDhEIBPv374ef7fpMxGKxWCy+cuXKzp07a2pqjEZjQEDA6tWrS0pKUlNT5wzw/bR14glmE4xfv359eXl5YWHh3r175XI5n8+3PeKgRiTZjkAgFoXo6Gij0WhrQ4VCIVxwotfrx8bGBgcHw8PDBQLBpUuXoqOjORzOAuoKCwvLz8/38fEh5iopFEpiYiLZPlhBnU13fFGwq7/OZDJNJpNdwfja2trS0lIAAJxFNJlMtkcc14gk2xEIxOOAYZjBYGhqajIajVKpFL6Uk+FyuXq9vqio6NKlS2NjY9PT0zweD64Vhr6ReYHjeFtbGxwOuru7b9261cfHJzMzc+vWrQ4Mt1wup0LB8ieEXf31Q4cOvfXWW3YF45lM5vvvvx8eHp6SknLixAmhUGh7xHGNSLIdgUAsmLa2tgsXLkAXpdFobGpqsnJ0AAB6enrq6+vDw8MPHDig0+ni4uI6OjoqKir27Nmj0+lu3rxpNBqdrG5iYkKhUKjV6tra2o0bN1ZUVDQ3N7PZ7Dm3jPj6+lJwHIfCw997nfjnDSTZjkA8b+j1eiaTSafTcRy/evVqfHy8SqVqbW0lEqxYsYK87OLmzZvx8fHV1dUpKSk8Hs9isVRVVYWFhWEYdvPmTQcVbdq0SSwWQ/cDlUqdnJyMj4+3WCxdXV0TExMqlcpisaxYscJ2sw9hrpee7f7eSLYDAJqamthstvOS7X19fRMTE6tWrXqirUIgEMBmNcFzAmGul97wDUm2P7n2IBAIgufQcJNZerb7+wSSbEcgEAvjuf5hQSAQCIRdkO1GIBCIpQey3QgEArH0QLYbgUAglh5IrxKBQCCWGEivEoFAIJYePB4P+UwQiKeHwWD4voaBfH6k+J6fljxRkO1GIJ4e5eXlk5OTAIArV66cJ1FdXW2VsqqqqqamZrZycBy/cOEC8TU/Px/H8ZGREbuJm5ub29raHqfZTU1Nc5Zw+/btzs5Ou/8qKSkxGAwWiwV2E8fxqqqqx2nPM2+JVqutq6sjH+nt7SVvnXeATqcbHR1dQKVWvEB7czAMO336dHp6um1gsEVJDxzqviOJdwQZjUZD6IHIZLLe3l7yf5uampqbmwUCwcDAADzC4XC2bdsGo82ZzWYajUYOeATD31dVVW3atMnd3d2qrsnJSUIXcWFYLBa7mwzPnj1LRE0ymUw9PT2ERWMymXv37oWfYeRkHMcHBwfhkb6+vnXr1jlZ+6VLl2yn5XAcZzKZRIDsp9MSAi6XK5PJIiIiCPEss9lMjnI6MTEBw6biOE6n07OysoqLi1euXOnj41NcXEyEtfj0009ZLJbdKgwGg+NQH8/Adr/77rtRUVFQRfdx0jhDQ0ODQCAICgoCAFCp1KSkJAdhFa2YMz25cEhra+u2bdsAAENDQw0NDcPDw4cPH4Z6C76+vpcvX46MjHQc+xvxAqJWq4kH2GAwVFRUGI3Gl19+mRBLvHHjhkAggHfOxMREZWWlrf4fhUJZt27dnTt3du7cOTw8XFFRQfxLpVI9ePCAEGwCACQnJ4vFYnKCmzdv6nS6gICA9evXQzPd19dHjElnZmYoFEpzczP8mpCQAIPwmM1m4hdIoVBQqVQiyGVubu4CTsXw8HBDQ8PQ0BDx4AAAdu3aZZvSaDTm5+cTXxe3JTiO19XV9fb2zszMhIaGJiUlkR/bjo6O1tZWnU5XVFS0bdu2c+fOsVgsKCrf2dmp0+m2bt3q6+ubkpLC5/PNZnNlZSWLxUpNTb1z586tW7fCw8OJn1IWi3XkyBG7bfjss88cN/IZ2O7W1tY5R7LOpHGGyclJqPMLgaG6ncdxeqvCCd13AACLxYqKihoaGiL+iyTeX3C6u7vv3r1rMBhGRkbi4uLgwfv37yuVSo1GAyVMYey6oKAgDoejVCphdOLa2lqj0bhy5UqYxcPDg8vlEupZZEQiEVRc8vPzIwakSqWysrLS1dU1JCRktnsPjgSDg4NLSkqam5tXrFgBAAgKCiLGJfX19QwGA8bQJ0OWDpfL5QwGg7CYWVlZsNd1dXUajebixYu22Xt7e4OCgsgjeiaTGRkZSQyKiS60tbURsn92WdyWjIyMzMzMwLFjXl6el5cX1NCBREVFRUVFWSyWs2fP4jjO4XBycnI6Ozv1en18fPy5c+dg1Q0NDatXr8YwDNqEiYkJtVotFot7e3sDAwMfP5LzE7fdVirvr7/++tmzZ69cufL222/fvn07KCjIVi3eNg2Dwejr64OxsAk9eFv9eCsx+IqKit7eXplMVltbu2vXLh6Pl5ubu23bNqFQmJubm5GRUVNTMzk5CcXdi4uLRSIRjNWrVqsvXrx49OjRL7/8crb0toUTuu8AAE9PT09PT6gaQYAk3l9kwsLCwsLCioqKEhIShEJhe3s7ACAhIQHDMAqFAod1FAolOzubRqOp1erCwsKoqCiFQsFgMDZv3kwe9yUlJUEfS2lpqUKhAADodLrc3FyYZv369YTNxTDszp078fHxfD6/sLDQy8uLeMcnGB8fN5lMcJgSFxdXUVEBbbczWCyWU6dOwbVqOp2OSqV2dXUBANRq9Y4dO4he5+fnb9myhcFgkH9yuru7GxoaJBIJ2XbbfXAwDJszIvbitsTHx4cYOwYHB4+OjpJtN6SjoyMwMJA8eoPNCAwMhEGHDAYD/A1ms9l1dXUymWzz5s3u7u5jY2N37tzZtWsXUV1PT09VVRUU3NHpdOnp6eS3otl4srYbqrx3d3ezWKx79+4BAD766KPe3t6DBw8eP34cpoFq8f7+/ocPH37nnXdOnDhhm8aZkqHAgp+fH2G7U1JSNBpNaGio3SCrjY2NmzdvNplM33zzTUxMTERERF1dHbTd0MJaOTes0tsWrlKp7Hq6CZDEOwIAYDabtVqt2Ww+efIkh8OBodh1Ot2xY8eIWGMuLi6hoaG1tbUpKSm2dy+bzY6Ojm5qasrIyIB5v/zyy6ysLKuhnF6vLysrY7FYw8PDYrF41apVV65cSUtLE4lE5GRqtZpwkQsEAihRMjY2VlJSQqSx8pkAADIyMmB1AQEBUOGEPDYn5yUzNTX1zTffhIaGTk9PNzY2bt26lfALOUYmk3399dfkI9CPTD7yhFqi0+mglBUZs9nc2Ni4du3ampoavV6fn58PVxD19fURiQ0GA5PJnJ6e5nA4ERERdDod/rRYLBaoV04uMDo6GipkkZ1djnmyttsZlXdbtfiFlWwrBu+YNWvWkMXdJRJJeXk5VBOWyWS2YhlW6W2Fx6x0321BEu8vMnq9XiaTjY+PFxQUJCQk0On01atXazSaxMTE0dHRxsZGCoVisVjkcvnAwEBXVxcctTU3NxMWMysri7jByE/K5OQkm80eGhoibLdWq21oaOjv71+xYkVsbGxtbe2lS5d27NjBZrOLioqEQmFycrJAIICJZ2ZmCLMFpbHNZrOXlxfxNLW1tVVWVgIAkpOTw8PDrfo1ODh45coVAIBGo6FQKH19fQCAiYmJ+Ph4crKenh42my0QCHJycnAcb21t3bVrl5OGGwAQEBBA9ooAAKAf+Um3RK/XDwwMJCYmWh2/ceOGTqerra3dt2+fTCaj0Wj79u1jMBhdXV3EtKrBYCgoKNBqtRQKJSAgwGg0trS0xMfHNzY2Eh6wx4H+RPdVOqPybqsWv1glOwkUd6dSqWFhYT09PXFxcRMTE35+fo7T2x6fM1I7knh/kRkaGoIOkMzMTE9Pz+bm5vDw8NOnT8fGxnZ0dMA3NrVafe/evZCQEDqd/uMf/5ic/dKlS8Q6ipqamvHxceJfMpksOTm5ra2NsAhMJtPDw2Pt2rU0Gg3HcaPRuG7dOiaTGRAQsGfPHrlcTh5ksFgsYoEElNYlj2eHh4ebm5uXLVtGp9Pr6urc3NysRvdisdjBaFcqldbW1sL3DPLolcFgOG+47UKn06084IveEhzHy8vLly9fTsyaQlpbWxkMhkAgkEgkPT09rq6uAQEBHR0dcXFxra2tcMoBAHDkyBH47l5cXEylUpctW5aXl+fp6WkwGGyd3R0dHXBNkUajIS9/mI2nsa8Sqrx/8MEHe/fuJUadhAmDavEFBQV5eXl79uwhZySbOTqdPjU1ZXXcbsm2OL9QPyIiQiqVDg0NicViJ8OukwuHuu8OEiOJ9xeZ8PDw1NRUPp9P+OLodPqqVavKysqUSiWcBXF3d8/Ozl6+fLmDxUidnZ1KpTIzMxN+NZvNAwMDwcHBQqGQmOJjMplcLre5ufnatWs6nU4oFNbV1cEHp6CgQCwWk6PA8/l8uOQcADA1NUW+RZVKtjA26QAAIABJREFUZVlZWWZmJpvN5nA4mzdvLi0tJf9szIm/v/++ffs8PDwiIyNtXe2PT3NzM2EZFr0lVVVVLi4uVsN2AEBgYOCmTZsoFEpCQgKHw+FyuVFRUV1dXXfv3vX29obreTAMGxkZqaura2trg24TDoezfPnywsJCWw9EaGjokSNHsrOzs7Ozjx075oyz+4nvq7Sr8i4Sie7fvw8AwHHcrlq8VRoAAJwBNxgMv/vd7+ClsluyrRg8nCtwsrVCoRC+Qzk5nWhVOKH7PhtI4h1hRWhoqEKh8PPzc37laFBQ0JYtWwjj29TU5OfnR6PRoqOjKysroSA1AGBgYIAQ5o6KihIKhQqFQqFQBAQEwGlSAqFQCNcC4Dje0tJCeEWam5uvX7++ceNGYpmsUChMSUm5du0a2fEtk8ny8vLy8vJaW1ubmprgZ2KFFZPJtFULIUS6R0ZG4BPU3t7u+NmZbQTW29tLSLMvSksIKisrVSpVSkqKbaVcLheO7RgMxtTUlJeXF41GCw4ObmxsjI6OJhrW19fn7e0dGRkJV8fr9fru7m53d/fZ9g3Nlyfr74Yq76+99prZbCZU3t94440f/OAHgYGBeXl5hFp8TEzMoUOHTp48CTOS06xateqdd9758Y9//PHHH//6179es2aN3ZLhXKW/vz/ZPsbGxpaUlHz11VdZWVm2Ew62RERE3Lt3z0kPjFXhUPcdLjU5ffo0fIrOnz/P4/HgKwWSeEeYzWbCTKvV6ps3byYmJj548KC6unr16tWEs8JgMJw/f56ckZjlhhLm0JYNDQ11dHTs27cPAODh4REQEHDjxo309HQMwwYGBpKSkpqbmw0GA5fLXbt2LYZhxcXFK1asKCsri4+PJ79ZZmZm3rx5s7KyUiwWw/WL/f39XV1du3fvthptSCSSXbt2FRcXQ48Bj8dLS0uDOnxkT8Xg4CB5bAuH/AaDQa1W5+bmrlixAm6QUSgUXC7X3d393r17KpUqKSnJ7oPDZrOVSqVWq7UaL09NTanVavjTsigtIUxEW1tbS0sLh8P54osv4Kk+evSorcA3hmEPHjzIysq6e/euXC7fuHHj9evXV61aFR4eDpe1WCwWnU5Hp9MbGho6OjqSkpICAgLKy8svXbq0ceNGgUAwMzNz7tw5u7fKnP7Vpac1/ETp7OwcHBxMT09fQF7Huu9I4v0FRy6XV1VVQRNDp9OvXbsmEAjCwsK8vb1NJlNNTU10dDQxwi0oKNi6dSs5e1lZWUJCAuHhxHH8zJkzbm5uiYmJxPgaw7CKigqxWOzn56dQKIKCgnp6eh48eEBMI7m7u6enp0ulUrFYPKe7mTx/09TUxGAwiEGl3akdu2vAp6enCwsLBQLBpk2b5HJ5W1vbqlWrPDw87ty5MzAwwGQyt2zZ4urq2tPTMzMzExMTM1tjampq+vr6yBsXAQDQC2G7eu9xWuL4nJC5ePFiZmZmb2+vTqdjMBgrVqyg0Wgqler+/ftRUVFwwqyhoWF0dDQuLm5sbCwiIgIu9AYA9PX1CYVCHo939epVuITRFls3MmQJ68Q/Oaanp69cuZKRkeH83ksrHOi+I4l3BMIuU1NT1dXVqamphGlDOGAJ68Q/Idra2u7fvx8XF7dgww0c6r4jiXcEwi5cLjcrK+s5F2V/DkG2+yExMTEOXtmcxIGIO5J4RyDsgryICwP91iEQCMTSA9luBAKBWHogvUoEAoFYYiC9SgQCgVh6IL1KBAKBWJIg241AIBBLD2S7EQgEwj7Ps+Q8st0IBAJhn4qKCrvyck5SX18PFX/g5ngAwNjYmFUsMEhZWZnBYMBx/Nq1a04WvoRXxZeWlkZFRUEhtDlZgOi7FeSAEg704J0EycYjEM8n165d0+v18LPRaOzq6mppaYFfXVxcoMrzqVOnXFxcZmZmAgMDPT09iQQAAJFItGHDBvBIyWvlypX3799/8ODB6OioRCKBEdWJxM3NzdCmy+Xy8vJyKpU6OjpaWlqqVqsjIiKWLVvmoJ1L2HbrdDqr2DQOmK9IvC2Dg4OERCyhBz86Onr79m2LxcLlclNTU63E6yA4jtfX18NoOyEhIevWraNQKEg2HoF4PlGpVHYVuCwWyzfffAM/s9nsnJwcqKYrFovtDsL6+voiIyMBAAqF4vDhw2q1uq6uztXVFUpIQyQSCRF7lkKhwMAAVCrVGbPwAvlMQkJCYPzMx4SsB3/jxo3ExMT9+/eLRCIom2mLXC7X6XS7d+/ev3//4OBgd3c3IMnGP357EAjE4oLjeEFBgVwuBwB8+eWXdtOYzeaxsTEHOgnt7e3h4eEFBQUWi6WsrOzu3bsAAKVSeffu3ZMnT0JXzMjIiJeXV1paGpPJzMjISEtL43K5aWlp2dnZjgfd4CmMu319fd99990TJ04MDg4ePnz4/fffp9PpttrwOTk5ycnJv/jFLwAAvb29ycnJw8PDtbW1ZN13AIBGo7l169bExIS3tzchHa3Vam/fvj0xMcHlcjdt2gSF+HQ6XWVlpUKhYLPZycnJ/v7+ZJH4tLS0u3fvTk9Pr169ms/nV1VVabXa5ORkGE+yra3twYMHGo3Gw8MjPT3dajRN1oM3Go3wV9Tf37+xsdHuGfDz8yMU1IKCgpRKJQxvj2TjEYjnEDjoTk5OLiws3LlzJxEki0ajkcfjU1NTMDL4+fPnraY0V69ejWGY2Wyur6/38fEZGhpKTU1Vq9V3794dHh4+duwY9PcCAJhM5vDw8JkzZ6hU6q1bt3Ac12q1N2/eBAAMDAzs37/fQWzFp7GvsqSkpKSkpLGxsaCg4PPPPwePtOFHR0dFItE777wDADh+/Pjp06dh+qtXr+7ZswfDsN7eXrKwOo7jhYWFPj4+R48eXbNmDdTLwHG8qKgoLCzsyJEjK1euLCsrI1Ly+fwjR45kZmbaShy1tLRs27YtOTn5zp077e3t27dvT0pKqqqqIhJkZmYeO3aMw+E0NDRY5VWpVMSGpqioqNLSUo1G093dbRtH2Ba1Wg0lkQCSjUcgnkump6dv3rzp4uKyZ88eHMdnC3Tu6elJo9EUCsW+fftycnKio6MjIiJycnJycnKCgoIYDIaXl1d/f39MTIyXl9cnn3xSUFAwPT3NYDBGR0cJXYXg4GCJRKLT6eCgmxh3s9ls4uXeLk9pX+Uvf/lLDw8PX1/fV155BQo5v/baaxKJZHBw0N/fv6mpCQCwbdu2/v7+np4eAMDVq1f37t0Ldd/JcVPHxsamp6cTEhKoVKpQKITj8bGxMRzHiZEsdIKPjY1ptdo1a9ZQqVSBQECYS4LVq1dzOByJRGKxWFavXs1mswMCAqanp6EDPSYmhsvl6nQ6V1fXiYkJq7xkPfigoCCNRpOXl6dQKOYcQU9MTMjlcsLEI9l4BOI5hMPhsFisa9eu0Wg0jUbjwEKGhob29/drtVpCKbS/vx/qqEHDFRsbOzY2NjU15eHhgeM4hmHr16/v6emBZUJ1pPLy8s2bN8OpOAqFkpOTAwBYt27dzp07HTSSx+M91blKLy8vKFRqqw1Pp9MPHz585syZN998s7GxkdBaJqPVank8npUXX61WQ+sJv7q4uJjNZrVazefz54wITJbEZrFYAACLxcJgMKRSaWNjo4uLC5PJJAQACQjREJVKVVZWlp2djeP43bt3i4uLHYilzczMlJaWJicnEz53JBuPQDyfJCcnDwwMUCiUyclJ25EfgdFoNJlM3d3dxAB5amrKYDBERkb29/e3tbW5uLisXLkyNTW1pKQELlAxm80VFRXJyckAADabvWnTpurq6vv375Pf7zEMw3HcrmgOmadqu7u6ukJCQqA2fHNzs7u7+8WLF6HPBABw/Pjxv/u7v4uNjd2yZYvdkL5sNptYu0PA5XLh243VQa1Wi+P4AlZxqNXqysrKnJwcFovV19dn6zOBevAeHh6Dg4O+vr7QFicnJ3/22Wdms9luy81mc0FBQUhICHlZIZKNRyCeNwwGQ0FBAfx8//59pVLp7u6en59PJNi8eTP0wXZ3d3d1da1du7a8vHz79u3QZxAcHHz79u3IyEhXV9f09PSQkBDq/23vzMOiyM6Ff7rpRRqardmaTUAEFBAVRAVcEMFBHcXROLjMGDNJ7kx8Mncy98l9HpPJ5HGS3Ggmc51vcifz3ZksiqiouLJvoogrKAg0si/ddDcgWy80vdf3x8nU1+mNBlkn7++v6qpTp44t9XbVW3XeH5U6ODg4PDxcVlaG30hxdHQkXzVxd3enUCipqakODg48Ho/BYCxdulSpVBYWFk441NmI3fn5+ZGRkW1tbd988012drYlN/zKlSv1ev2f//znn/zkJ3jN48ePDZ9Venp66nS6lpaWsLAwkUiEsxmenp5UKrWhoSEqKkqv10skEldXV09PTwaDUVtbu2rVKoVCIZVKDd/Lsc7Y2Jher7ezs8O/qOR6KpWKL5OxD97NzY3D4TQ2NmIFamdnp4ODAw7cL1688Pf3J5PsBEGUl5c7OjrGxMQYHgi08QAw31i0aFF6ejpe5vF4NBptxYoVPT09ERERRm8YY5twd3e3q6sred3t5OQ0Pj4+Pj6Og3JNTY1arfbx8YmOjnZ3dxcKhRKJRCKRCIVC/Pogyfj4+IsXLxITE0nt/YTMRuzm8/mhoaEajeaTTz7ZsmWLVqs164ZHCB05cuTjjz/Gv3Km3ncajZaSklJVVVVdXY2FqgghKpW6bdu2+/fvYx1qeHi4q6srXllVVcXj8RYtWoTV8jbi5eXF5XIvXLjg6uoaEhLS0tKC14eEhDx58mTHjh2kD97b2zs6Ohpn8FksVmpqKkJIp9OR0mu8I4/H6+npYbFYZ8+eNXROgzYeAOYhWq2Wz+e3trbq9frU1FQGg8FgMGpqavR6/fr1641SKFQqddWqVQghnU6H16xYsUKlUgmFQvx+t5eXV0lJyebNm7u6ulgsVmVlZUpKysOHD/39/fELbEuXLm1ra+vs7Fy3bp1arS4vL0cIeXl5qdVq6+80z7hrmMvlFhUVRUdH29L47NmzxcXFhhfj8xDrPniE0ITSawTaeACYr5SVlVGp1KVLlxoJZkUiUVNTU3JyMoVCMZK45+XlabXa+Ph406ux/v5+jUaj0Wj6+vo4HI5CoVi5cmV7e7tOp3N1da2srHRxceFyuaGhoeQLLTKZrK2tjc/np6Wl4edwhsyeJ9722N3f35+cnHzx4kVy+uK8xYoP3kbpNWjjAQCYAmS4ni/zKr/66qvo6OjDhw/P/8CNEIqIiMBvJZqCpdfWAzdCaPHixTbeiwAAAJgy4zfseF7phLz33nvvvffeTA9murBifLcxBwLaeAAAXgVqW1vbXI8BAAAAmARtbW1US/f+AAAAwPxk6dKl8yXfDQAAANgOxG4AAICFB8RuAACAhQfEbgAAgIUHxG4AAICFB8RuAACAGWQKDnhbgGIa1gAVPQAAU8MWB7xUKs3JycFFqdRqNUEQuICJVqsNDAxMTEy00j/EbmuAih4AgKlhowPey8trx44dCKHm5uaxsTFcKbq3t3dCEfls+Cr/dQAVPQAAmFdxwE/IbPgqBQLB9u3b/f39ExIScC3sc+fOxcXF4UrW69evv3btGkKIy+VmZmauXr3a09Pzgw8+wKYx031xy7t37yYkJLi4uPz85z/HKz/66CNfX9+QkJBf/vKXlo5rttnjx4+NpJEymSwvLy8zM7OoqMhQRV9YWHj+/PmbN2+Ojo7ilWNjY6WlpefOnbty5YpQKEQIZWVlYalbVlaWUCi8du3a+fPnW1paxGLxtWvXMjMzSZlDU1PT9evXMzMz8/LyTGVAllT02A9nio+Pz4YNG3ChYayix+sDAgJEIpHN/1cAAEwbDAbj5cuXly5dolAod+/eraiowA74ioqKzMxM0rHQ399/+fLly5cv19TU8Hg8vHz37l3rnbPZbEQQxNrf3Fn7mzvEDKDT6VatWnXu3DmCIHJzc9euXYuFm/Hx8efOnbt169bGjRtxS29v77feemtoaEgkEoWFhf3lL38xuy9uuWPHDoFA0NTURKFQOjo6nj175uHhIZFIlEplVVWVpeOaNtNoNBcuXODz+eSA9Xr9lStXqqurdTrd4ODguXPnurq69Hr91atXW1tbCYLo6em5fv06bnn16tVHjx7pdLqRkZHR0VGCIM6dOzc4OIgXioqKFApFZ2fnX//61/Ly8vHx8ZaWlszMTHwgHo8nk8n0en1ZWdn9+/fxSnL34uJi7FAmCOLx48dFRUVSqfTevXvt7e0TfuelpaU8Hg8vj4yM5OfnT/V/DwCAV6Ktre2vf/3r0NAQ8W1sIQjiwYMHubm5uMHo6GheXh5efvHiRU1NDV4WCAT37t0z2ycZrmf2PZMnT54QBHH48GGE0M6dO3t7e2UyGYVC+eKLLz7++OMTJ06cPn2abGykkze7L27529/+1s/Pb9myZUFBQe3t7W5ubnK5vLi4mMFgJCQkWDquaTNQ0QMAMBPY6IBXq9VTric6s88qu7q6urq6SOUYl8tVKBRsNjsmJobJZNrZ2ZmVD2CdvKV9EUJkst/NzU2j0SxevLi0tPT48eMnTpz47LPPtm3bZnZf02amhwYVPQAAr46NDniVSiUWiy9fvowQUqvVer0eO4txWLN+iJmN3QEBAVwut7q62mj9+fPnw8PDm5uby8vLk5OTjbZinbylfc2SkJBQWVlZXFz8xhtviMViS/saNTNV/YKKHgCAacEWB7xCoYiOjsaXsJN+z2QmB4/i4uJoNBpOjGg0Gh6PhxCSy+W/+MUvTp069emnnx47dox8Hpifn6/T6Zqbm7/55pu3337b7L5mqa6uxoLOyMhI3NjsvqbNkMmzSlJFjxAyVdEjhPR6/cjICF6JVfQEQYyNjdmomMDYqKJHCHE4HJFIhJeNVPR4JYYAFT0AzFewA57NZps64EUi0ZSF4zMbu+l0em5ubllZmb+//4oVK/APzm9/+9u0tLTQ0NCdO3cGBQV99tlnuDHWyaempmKdvNl9zcJgMP74xz8uXbo0MTHx888/53A4Zvc1bYZV9IaxG6voGxoasrKyWltbDVX0QqHw/PnzOTk5AoGAXCkWi7OysgoKClQqle1fC6miLyoqMpz4g1X0CCGsokcIkSr67Ozs5uZmQxV9Y2MjuSNW0YvF4rNnz545c+bMmTM4DwMqegCYQ7ADvrCwkHTAl5eXYwc8QkihUAwMDJidykda560w465hG5mUTv47D6joAWBBMzAwMKEDXigUajSasLAwvKm7u1upVLLZ7MePHzOZzJUrV5qd0U2Gazir5yNUKjU0NLSzs9OSir6trW3z5s3WO+Hz+UFBQRC4AWD28fT0xG+VGMFms1evXo0T3MHBwYabAgMD8cIbb7xhyyFoMK9yfhIREWHpJRasop/wFZfFixcbvv4IAMB3BplMRpvpeZU2Mqlnff8KgIoeAABLsNlsqAELAACw8IDYDQAAsPCA2A0AALDwgNgNAACw8IDYDQAAsPCA2A0AALDwgNgNAACw8PjuxG6VSkUQxFyPAgAA4P+jVqtv3LhhaQrks2fPGhsbyULNAwMDZWVlNvb83fFVBgYGNjU1zeEAbty4QerQJktrayuu2/sq8Pn85ubmV+wEAIDpQq/X37lzZ3h4uLy8/Ma3GJ7pK1asUCqV9+7dwx89PT0VCoWpjMWUeTSv8juAXC63pfqXWUgrvFAorKurE4lEBw8edHBwQBYc8MicPx7E8AAwf5BKpbdv35bJZBs3bsQqq7a2tsbGRkOpAo1Gi42NRQhh/QJCCHsQ8XJqaqqLi4vZztlsNhQqmnsMrfBMJjM8PBybizGkAx4hdOPGjfb2dmxfu337dkJCgr+//9OnT2tqajZu3EiK4SdUowEAMNM8evQoOjraz8/v9u3bQqFQr9drNJrt27eTNS3kcnlfXx8O6/v378crs7Oz09PTSfWVFWY8383lch88eBAZGfnTn/4UWVa/l5WVxcbG+vn5/f3vf6+srIyJifH09Dx//jxu8NVXX61Zs8bd3T0pKamvr89szyR/+ctf4uLicIXcCcXwxcXFZCHs0dHRrKwsgiDMStyzsrL6+/uvXLly//59ZE4SjxAaGhq6devWmTNnHj16hNfY0pWhFd7d3d1QfIMsO+DN+uNBDA8A84TU1NTAwMD+/n46nS4UCsViMZVKFYlEpG2GIIjGxsbCwkJyzaSYjevun//859evX/fz89Pr9bt37/7www8PHz6cl5d35MgRMsZ98cUX+fn59+/fP3z48J49e4qLi/Py8j788MNDhw4hhCgUyrVr13x9fQ8ePHjy5MnPP//cqGfyWI2NjSdOnKiqqsJSm6+//rq9vZ3JZNbU1CCEsGzBx8eHtMksWbKkpaUFm3R6enqCgoJwwiElJcXBweH27dt1dXXx8fG48aNHj7DBiCCI4uJiX1/f5ORkqVRK5ig6OjqSk5M1Gs3ly5eXL1+Oj2K9K4SQRCIxiteWkEqlWAeBEAoPD8d2yvb2dkO5sEQimcL/EQAA04hAIHj+/Pno6Ki7u3t4eHhSUhJe2d7e/ujRIwqFsn79+sWLF+/atau5uZms7j0pZiN2Hz9+HN/mP3r0yFDf/u6778pkMpxw/+STT7y8vNLS0tRq9YkTJ9zd3Xfs2HH06FHc4N1330UI8fl8X1/f2tpa054xcrn86NGjf/7zn3FGiRTD79u3z1AMbzi2xYsX37t3T61WMxiMnp4erCfGTgO5XO7g4EBe5yKEVq1ahX3wAwMDhpJ4skFcXBwOx05OTlhGPGFX6J+t8FbADviNGzfij4GBgXw+//r16ywWi/xJADE8AMwHOBzOmjVrqqurlUplXV2doZPWw8MjPj4em8epVOry5cs1Gk1LSwt+1UIul1+/fp1Cobi7u2/ZssXKIWYjdpNVpCdUv9vb29vb2+NlNzc3hBC+m7h27dqpU6d8fHycnZ3J/IBhz5h///d/HxkZIR2dtojh6XS6r68vn8/38/OTSqXYP2RJ4o7jMkJoQkk8k8nE7/1M2BUysMJbwcgBb8kfD2J4AJgPsFgsFos1OjqKL1Vra2sZDEZERIRSqbxx4waLxSJbvnz5sr6+Pjk5Gd/9Z2dn79mzx5Z896w+q5yU+p2ks7Pz/fffb2hocHV1vXnz5smTJy219Pb2zsrKSkxMzMjI8PDwQDaI4RFCS5Ys6enp0ev1gYGBFAplQok7slkSb0tXyMAKb6kfUwe8JX88iOEBYP6g1+uxLBdnVvl8vumraLW1tTamTI2Y1bk5tqvfDREIBFqtlslkymSyCxcuWGn5ySefhISEvP3228ePH0e2ieERQosXLxaLxXw+HyuILEncDbFREm9LV8jACm8Wsw54S/54EMMDwPyBSqWmpaVhtXpERERaWtrWrVsNG4yMjAwMDEztxbBZve7G+vZjx47993//t6Oj4zvvvBMRETHhXgkJCZs2bQoMDFy+fPmBAwfOnDljqSXWxHz00UehoaHV1dVYDP/uu+9qtVpDMbyvr69hgKPRaF5eXmKxODk5GRlI3F1dXUNCQsiXYQzBkviqqioej7do0SIyC2SELV2hb63w+FWT7OxsnFq5evUqm83es2cPdsCzWKyzZ8/iiaOHDx8m/fEIIRaLhf3xCMTwALCgqKurW7FixYQpU7NQpFJpyv95hubaE/+vzIRWeNv7ATE8AMwfMjMzje6D9Xq9Wq3OyMjAywUFBWlpaQKBgHzjzpDo6Ohly5YZrcSe+NJ/Xw3zKuce61Z42wExPADMK/bv34/n3BmiUqnwApVK3blzJ0IoMDCQlMTbCMyrnC9YscLbDojhAWBeYRq4EUL47cBXB2L3vGBahO4ghgeAfx2+OzVgAQAA/nWA2A0AALDwgNgNAACw8IDYDQAAsPCA2A0AALDwgNgNAACw8KBaqsUBAAAAzE/EYjGNy+Ui1DrXIwEAwCK4Hpnpejs7O1zUfybg8XjDw8MbNmwQiURcLteoZObjx4+Dg4Nxtc6Zo76+nkaj4SL483aQEzITg+RyuTM7N0er1YaEhOC6rDN6IEscPXr017/+dWBgILlgvb1er8/Ozt6yZQsu5D0hk22PEGptbbWzszNb9ZHP5ysUivDwcBu7Av51GBwcxEUwDCGlgBKJpLi42HDT6Oioo6MjWSAhLS2NzWbfunVLJpMZdUIQBIPBIH2JCCG9Xl9VVTU6OoprnPH5/IaGhuTkZMNyCwqFYhYqxet0Okvzjed2kPPhm6QQBIGLm8xQLaorV66kpqaSjphZhsvlFhUVRUdHkwumberq6lxcXMiw3tnZ6efnZ0vtc1vaG3WOELp+/XpaWtqiRYtMlfAajSY3N3fPnj0gegcMIQjizJkzplcefD7/yJEjRiu1Wu3du3fVavW2bdtsKbSgVqtv3LhBRhy9Xn/lyhW5XB4cHKzX67VarUajGR4eZrPZ27ZtY7FYAoGgqqpqfHycwWDY2dk5ODhs3rw5JyfH3t4eIaTT6bBtwBYkEklFRcXY2FhAQEBCQgIebXd398OHD3EDlUpFoVDIkysmJgbX/JnNQYpEorq6OqFQSJ6nc/tNkuF6xufEf+9735vpQ7wiIyMjhhoLXMXbdqy3N+rcuhIeRO+AJezt7U3TI+R1N4lEIiktLVWpVNHR0RUVFb6+vmFhYeSlwODgYFNTE6nNMwuVSk1OTmYwGAKBQCwWb9myhUajUSgUoVAokUhYLJa/v/+BAwcKCgri4+OdnJxycnIQQn5+fvjS0nRIVigtLV29enVQUFBZWVlDQwO+tDIszFRbW0un03H9/bkaJIPBCAsL6+3tNVw5H77JGY/d5AXvRx999Pe//93e3v7NN9/83e9+Z6m9QCD4t3/7t4aGhoCAgL/97W9hYWG4k+zs7F/84hc8Hu9HP/rRp59+ildevXr1xz/+cVJS0p/+9KeWLpMHAAAgAElEQVSenp6f/OQnT548CQgI+OyzzzZv3my2/8ePHy9btowszFhVVdXZ2cnn86urq3ft2sVms7OystLS0jgcTlZWVnJy8pMnT0ZGRsLDw9etW1daWurl5bVixQqEkFQqvXnz5uHDh8+fP2+pvWnnRkp4d3d3ozxmQEAALgc4DV898B1CoVCUlZUZrTS06I2MjDx//lwkEiUkJIyMjFAolA0bNtTX1+fm5sbFxeGcHi5AauUovb29pNZKKpUyGAxcI55k7dq12HaNrxZt0fVZYmhoSKPR4EufqKioqqoqs7fFcztIZOE8nQ/f5CzVojJVtpvFikj+008/vXTpkkwmi4iIeO+99/B/OemJ1+l0u3fvzsjIuHXrVmVl5Z49e+rq6rBx2BBTT3xiYqJMJluyZInZ+qvPnz/funUr6X0PDQ199uwZjt04wholN4zam3Y+oRIeRO+AKRQK5Qc/+IGVBiKRqKysLCoqChtNR0ZGEEIMBiM2NlYikdy9ezcxMRFL9fh8/sWLFw33JQiCTL/6+fn5+flhx966devCwsIGBwclEklLS0tqaqphlnZ8fJxOp+t0uimXP5NKpa6urnjZxcUF26xevnxp+BOFcyYNDQ3kmuTk5NkcpBXm/Jucpdhtqmw3y5MnTyyJ5H/729/6+fkhhIKCgtrb23HsJj3xDx8+7O/v/8///E8qlZqUlLRt27asrKxf/vKXRv2beuKts2bNGkPvu7+/f2VlJRYN8/l8HMSttDfVj02ohAfRO2DEwMDAvXv3yI8qlUqn0xkm4jZs2ODj43Po0CHy5Hd1dSWXnZ2dd+3aRTYOCAgw0m5ptdoHDx6QH8fHx2/fvu3m5sZkMvPy8tzd3WNjYxUKRUFBwebNm/GfNEEQer2eTqcrFIoph0WVSkWn0/EyNnFrtVoPDw/yDG1qasIDi4+Px6f57A/SCnP+Tc5S7LZF2Y5sEMkjhNzc3LB5Ehl44ru7uwMDA8mbjpCQkK6urmkcP/a+U6nUkJCQjo6OqKio4eFhfMtjpb3p+gnvjED0Dhjh6em5d+9egUAwNDS0cuXKjo6OoaGhuLg4o2Z2dnaXL1/GGVW8prq6miAIuVz+9ttvW+mfRqORedvBwcGioqKVK1fK5fL+/v6NGzcqFIp79+7Fx8ez2ey8vLzNmzf7+PioVCp8Vr7KJS2TySRPZLVaTaPRDK9GRSJRQ0NDREQEjUZ79uyZs7MzKfObzUFOiln+JmevfrctyvapieTRt2liUtze1dU1qTftsAfSFkJDQ+/evevm5ubn52djfsqw8wmV8CB6B8zS2tpK3rG1traSj7iXL1+Onwlhdu3aZRgBdTqdjc/lGhoa/P39ORzO66+/7uzsLJfL8VsQdDp93bp1BEE4Ojru3bsXv/IxMDCA/4atR5zc3FwXF5cNGzaY3erk5IRzOwih0dFRwz/7wcHBO3fuvPbaaz09PXQ6fevWrSUlJampqRwOByE0m4OcAjPxTZqFavqW4kxgVtluytRE8gihtWvXurq6nj59miCI+/fvFxQUHDx4ECHEYDDwscgFU0+8vb394OCgjQficDgEQfB4PBsfJxp1bl0Jj0D0DphDrVb39fV1dHTgP57Q0NA932IYuG3B0mVKZ2enUqmkUCjOzs4EQTx58kSr1W7cuHHr1q2Dg4M3b96USCRMJhNfG/H5fPwwSS6Xm1XDYHx8fAQCgaWtHA6HTqd3d3cTBNHY2EhmRRoaGgoLCzdu3Ehe4nA4nMTExIKCApz4ns1BWmE2v0lTZDLZLPkqTZXtZptNTSSPEKLRaLm5ue+9996pU6e4XG5OTg5+JHjgwIHjx4+XlpbihcLCQlNPfGRkZFlZ2YULF1JTU93d3Sc8VmhoaE1NjaW0jxFGnVtXwiMQvQPmePjwYWRkpKur661bt7y9ve3t7S0l327dumX4/NwovixatGhwcFAulzs6OhquHx0dlUqlhreDq1evHhgYwPMPvLy80tLSyFNGoVAIBIK4uDidTjc4OIj36u3tzc7ONjpiYGDgwMCAlX9XSkpKRUXFgwcP/Pz8oqKiEEI9PT1tbW27d+82uoLx9/fftWtXaWmpi4sLmSmdnUGaPU9n+Zs0hc1mz/jcnO8era2tvb29W7ZsmcK+1pXwIHoHTBEKhTweb+vWrVQqdWRkpLm5+eXLl2q1mnwuEh8fjx/jl5aWJiUlGf7x6PX6kpKS1157jVzz5MmT7u5uoxtfe3v7FStWhISE4I/37t2TSCTe3t5cLtfLy8vor7GlpYUgiNDQ0OvXr9Pp9I0bN9LpdB6Ph1PwlZWVOOc7MjJSXl6enJxMvkxiI4Y/S/X19XQ6nXSlG26a20GiWfwmjSDD9ZzF7iNHjohEIsM1GRkZ77zzzmyOYQqMj4/n5eUlJydbyVlbp76+ftGiRWZfSezu7h4eHl69evWrjREA5h61Wk0QxHR5dWeIBTFII2ZvXqUlzp49O1eHnjJNTU1Pnz6NioqacuBGVpXwIHoHvjPYXlViDlkQg7QE3JtPguXLl1spaWYjVp4mg+gdAAAbAfcCAADAwgNiNwAAwMIDYjcAAMDCA2I3AADAwmOW5lUCAAAA04VMJqPOzrxKAAAAYLpgs9mQMwEAAPgnlErl/C/nCe93AwAA/BOVlZUxMTEcDicvL0+lUpHrfX19161bZ9jy4cOHdnZ2piV5baSjo0Mmk61cubK9vV0ul69cudL2fRdY7J6s9x0hlJGR8cMf/tCoSvorcuPGjc2bN7u4uJBrrAvjp1cnbxZwzAPAtCOTyUgXBJ/P7+zsNNxaX1/f0NDg4uJCViK0t7dPS0sjy4FdvnxZrVYb2bU0Gs33v/99s4dTq9VZWVm4WJVUKj1w4AD2DptlgcXuoqKiDz74wHBhQoRC4djYmKWtp06dCg8P371796SGIZfLdTqd4Roqlbpu3TpLc+Wtb0XmdPI8Hi8tLY0giNra2o6ODpVKFRwcvH79evx3IJVKKyoq5HI5Kdjmcrm5ubmGYlkAAKYRqVRKVj5RKpVVVVVqtfro0aOk/ef27dsuLi5GJ2BGRoZRCaozZ87ghd7e3sePH+v1enyC6/V6Npvt5uaWnp6OELpx44b18Syw2D3t8Hg826+FrWNdGD81nbxIJBobG8M/LTdu3Ghvb8dljktKSmJiYgIDA8vLy7FgGxzzAPDqtLe3P378WKlU9vf347K0CKGnT58ODg7KZLK1a9cihAiCyM/PDwwMxNX5uVwuQqi6ulqtVq9atcr2Y/n5+a1du9YwZ+Lv728o57TOjD+rFAgE27dv9/f3T0hIaGlpwSu5XO7du3cTEhJcXFx+/vOfkysfPHgQGRn505/+FCHU09OzY8cODw+PmJiYO3fuTOqgXV1dycnJ7u7ur7/+Oqnu/eqrr9asWePu7p6UlNTX14cQOnbs2JUrV372s5/5+/t3d3dbGq2prgEh1Nvbe+3atczMzIcPH+LHGllZWUNDQwghkUiUk5OTmZn59ddfX7x4sbm52XBrVlaWWCy+efPmmTNnsEkZ6+QfPnx4/vx5/MomWePbx8dnw4YNDAaDwWAEBgZijcPQ0JBWq8Wm48jIyLa2NjykgIAAo9KMAABMipCQkEOHDvn7+2/fvp3MPsfExKSkpOzduxeXiqNQKOnp6TExMX5+flVVVQ0NDaWlpWNjY1u3bp3CXW9zc3N+fn5tbS3+ODw8fPXq1atXrw4PD1vfcWavu2fa+27poOnp6enp6UVFRTweb8eOHXg9hUK5du2ar6/vwYMHT548+fnnn3/55ZednZ0ZGRlHjhyxNFpTtTxmeHh4x44dOp0uLy/P1dWVTDTr9frS0tKtW7dyudzbt29zOBzTHPTUdPJSqRQbMqVSKZlqJwXbCBzzADB9aLVauVyu1WrPnDljb2+P8x5jY2NvvfUWWTOOxWItWbKkuro6MTHRbFVnhNDly5etB/Tw8HDyuhshNF9yJjPtfTdLTU1NX1/fxx9/bGdnt3LlSjJZ8e677yKE+Hy+r68v+Stny2jNquVXrFiBk19hYWF8Pp8M0EqlUqPRcLlcKpXq4+Pz8uVL032noJMfHh4Wi8W4FrtZwTaNRgPHPAC8IgqFgs/nDw0NFRUVxcTE0Gi02NhYmUwWFxc3MDDw/PlzCoWi0+nEYrFAIGhra1Mqlfb29g0NDWSuIzU11fDk3b9/v6V8N6a5uVkoFCoUiqVLl2o0GhstuAgh2ozOq5wT73t3d3dwcLBpMdVr166dOnXKx8fH2dl5fHx8UqO1gr29vVKpJD+yWCxXV9fGxsagoKC2tjbrzjYbdfIqlaq8vDw+Ph6XG7Yk2AbHPAC8IkKhsK+vj06np6SkuLu7NzQ0LF26NDs7OzIysrm5Gd8NS6XSmpqa4OBgGo324x//2HD3W7duGb3FMCGG191qtRrnTBBC1u+hZ9xXOSfedw8PD9O0b2dn5/vvv9/Q0ODq6nrz5s2TJ0+Sm8h4N7XRSiQSowtnLpc7ODgoFotDQ0NJ+9GEWNLJa7XaoqKi4OBgMovi7OxsKNh2dnbGy+CYB4BXZOnSpUuXLi0pKSEvLmk02urVq+/cuaNUKrFO3tXVFac1bJehm+XFixdNTU0IoY6ODrxGq9UuXbo0ISEBTZQzmfF5lbPgfTe7r0ql+tvf/oYQqqioaGxsRAgJBAKtVstkMmUy2YULF8jGXl5eT58+RQgRBGFptGafVQoEAoIgRkdHm5ubjVJdbW1tCQkJ27ZtIz17E2JJJ08QRHl5uaOjY0xMDLnVzc2NwWCYCrbBMQ8AM8GSJUv6+vp8fHym9wXcZcuWbdu2zdnZec+ePa6urnv27LG3tzecNWKdmc13z7T3vbS01HRfFouVk5Pz3nvv/epXv0pNTd28eTNCKCEhYdOmTYGBgcuXLz9w4ACZcnr//fe/973vLV68+Pr166tXrzYdLX5WaaSWx1y6dEmv18fExOBHiCQ+Pj7nzp1jMpkMBsPT0zM2NnbCmxtLOnkej9fT08Nisc6ePYsvzA8fPkyj0UjBtr+/P/kmEzjmAWBa0Gq1ZJjGcyni4uJaWloePXoUGxtL5q+VSiXOb5CYJjqys7MtRXyCIKqqqkJCQqhUqpOT0/Pnz/v6+uLj4/HWiXMvBEGs/c2dtb+5QwDTgUQiyc3N1el0BEGoVKqioqLHjx9PthOdTnflyhWNRjOpXXJycia1CwAARohEoqtXr5aUlOBTKT8///79+/39/QRBqNXqqqqqoaEhsnFhYaHR7hUVFVKplPxYXl5uekqWlZXhhf7+/qqqKrys1WrFYvHt27cJghAKhTk5OWQzI8hwPWee+GlhHsrmu7u7m5qa8LxYjUZTWFgYFRU1hfkyVnTylo4LjnkA+M4z9574aWEeyuYDAgKEQuGlS5dYLJZWq42IiJjaREcrOnmzgGMeAP6lWNixex5CpVLxY+JXZLLCeHDMA8C/FFC/GwAAYOEBsRsAAGDhAb5KAACABQb4KgEAABYe4KsEAABYkEDsBgAAWHhA7AYAAFh4QOwGAACYIj09PbgWoBVqamr6+/sRQnq9Pjc3d7oOvZBit1arDQwMrKqqMlqfkZFRVlY2o4e+cePG6Ojo1PZtbW0lazzaAp/Px5o0AADmORqNRqVSIYR0Ot1f/vKXy5cvX7582ciuoFQqtVotQghXBjfqQa/XX7hwAVsYDSkvLxcKhVYOvZDmVdJotE8//ZQsm0di3QQ/LZiK4W0HG9/1ej02viuVSl9f340bN9LpdMKcBh6M7wCwEHFxcdm3bx9C6OLFi2YbdHZ2vnz50rD04NatW52dndetW4eL9RsyNjZmqcw1ZiHFboTQ9773vbkewuQgje8KhUKr1aanp+PyY/X19TExMWKx2FQDD8Z3AJj/8Pn8R48eYWdWW1sb9hEa0d3d/eTJE7lczufzORyORCI5dOgQWaeosLAQX5+RXsZJMeM5E7O6dyMlfEVFRVRUlKenJ4VCCQoK+uabbyz1xuVynz9/jiyY4I0kCcXFxVi8gBAaHR3NysoiCKKpqen69euZmZl5eXkKhQJvzcrK6u/vv3Llyv379xFCY2NjpaWl586du3LlCnnbMjQ0dOvWLVLujhCypSvS+M5isdauXctgMJhMpr+/P/4vN6uBR2B8B4B5T0BAwP79+z09PSMjI/fv3+/h4WHaJjAwcP/+/UwmMzY2lsPhrFq1qre3d2BgAG/VaDS4FHhWVtbQ0BBCSCaT5eXlZWZmFhUVqdVq6wOgtrW1Tfc/6v+Dde8bNmzo6+v74x//uGfPnp6eHrwJK+H/8Ic/aLXaffv2nT59WiQS7du370c/+tGPfvQj691iE3xiYqJYLP7Nb36D/9lYkmBY+3zJkiXk4Xp6eoKCgvCvXEpKyltvvWVvb19XV0c2fvToUWpq6tq1awmCKC4udnJyOnToUEpKiqOjI27Q0dGRnJycnp5eX19P/kJY7wohJJFIDGc/4Sq9HR0dpOyGRCqVkvYyML4DwPxHpVKJRKL29na1Wo1936ZtBgcHx8bGamtrIyMjQ0JCGhsb7e3t8SatVmuY/saRx9vb+/Dhw2vWrDG04JrS1tZGNQ0i08iTJ0+w7t3Ozo7UveNNWAlvb2//8uVLuVy+adMmGo2WnJzc3t4+YbekCZ5Op5MmeBqNduDAAcM6qIsXLx4YGMA/Xz09PbjZ8uXLHR0dx8bGHBwchoeHycarVq1ydnam0Wh4PGvWrKFSqS4uLmQ8jYuLc3BwcHFxwXJ3W7pCJsb3/Pz8/Pz8oKAgo19prIEn5ZZgfAeA+U9nZ6ePjw+bzS4vLx8bG2OxWKZt2tvbvby8lixZUldXp1KpaDTa2NhYa2srMrjuxrx8+XJ8fDwmJoZKpXI4HOv+wqVLl85svtuK7p0Mslwud9myZX/605/eeOONzMzMY8eO2dKtWRO8EXQ63dfXl8/n+/n5SaVSb29vhFBXV9fz589ZLBaDwcAPfzEODg54QSqVOjk5WamdTcrdJ+wKmRjfd+/erdFoHjx4cOfOnaSkJLzSSAOPwPgOAPMerVbL4/EiIyPHx8e1Wu3g4KBp7FYoFH19fRwOh8vlenh4NDY2hoWFLVq0qKamJjQ0lPjWpY6Ry+VsNtv2NxRmNnbbqHvfuHHjs2fP7ty58/3vf//QoUMTdmvWBG8WnDbR6/WBgYEUCkUqlT548GDfvn1MJrO7u9sw0UHi6Ogol8uNvlZTbOkK/bPxHUOn0yMiIvLz8/FHUw08AuM7AMx7mpqaQkJC8IXzmjVrXrx4YXjRhhCSSCTd3d0RERH45W4ajVZXV8disfA99/DwMEEQhu3xGw22D2Bmn1Va0r0bkZWV9ac//enWrVs//vGPbezW1ASPzAndFy9eLBaL+Xw+TpiMjY3p9Xo7OzuNRmMpOePp6clgMGprawmCGBsbE4vFZpvZ0hUyML63trbW19drNBq1Wt3S0uLu7o4saOARGN8BYN7j5+dn+L5yV1cXfisBo9fra2pqwsPDyUQolUp98803MzIykpOTt2zZYmdnt2jRIsMOPT09dTpdS0sLQkgkEhmmYc0ys7Eb695LSkq8vb2PHTtG6t6NSEpK8vT09Pb2Dg0Nfeutt8i8iiWwCf706dO+vr6ZmZnYBI+fVRrFbhqN5uXlJRaLuVwuQsjLy4vL5V64cKGoqMjX19ds51Qqddu2bWKxOCsrq6CgAL94b4otXSGEsPEdIRQYGCiRSK5du5adnY3z+wghrIEXi8Vnz549c+bMmTNncO4FjO8AMM9xc3Mj07ZisVitVnM4HPyRIAilUkmj0ZhMpuHtO74w1+v1ixYtevnypdFDLxqNlpKS0tDQkJWV1dra6uPjY30Ac+8a7uzsfOedd4qLixkMxujo6Ntvvx0REfH73/9+TgYz7ej1+mvXrqWnp5t9Bm1pl+vXr+/evdv2XQAAmBM6OzvlcrlKpVqyZAmZGn306JFIJIqNjcVX4jU1Nf7+/l5eXnirTCYrLi7GckRype3MI9dwQ0MDg8HAccrOzm5kZGTNmjXzUAA/NahUamhoaGdnp+3Gdz6fHxQUBIEbAOY/ZqfVrFu3zvBjbGys4Uc2m42nX74icx8gtm/fXlpaGhYW5u3tPT4+/pOf/OSNN95444035npc0wYY3wEAmHbmPnbT6fT/+Z//metRzCBgfAcAYNoBXyUAAMACA3yVAAAACw/wVQIAACxIIHYDAAAsPCB2AwAALDwgdgMAACw8IHYDAAAsPCB2AwAA/BMymQwXmGttbbVF/F1fX//ixYv79+/z+fwJGxcUFJAVnkUi0ZQl5nM/N2eW0Wq1ISEhWVlZiYmJ09XnjRs3Nm/e7OLiQq7R6/XZ2dlbtmzBRcONsL7VLK2trXZ2dmYreZmFz+crFAqzFXcBALAOdoKHhIRgIY4tu2g0mpiYmHv37o2NjS1btgwhdOPGDVzl1cPDwzDaSKVSsvorlUotKyvbvXt3ZWUl9n8Zdmi9IPZCit2nTp0KDw/HZt4p72hJNv8qmFrkqVSqWfezLVsRQnV1dS4uLoGBgeQaLJs365VHCEml0oqKCrlcHhAQkJCQQKVSQTYPAFOms7MTOwst0dra+vTpU/IjlnPxeDyCIAYGBhwcHAICArDNcWxsjPT0muLt7R0RESGTyZKTkw3XEwRx4cIF64OkLaB5lTwez/YLVSs7zo5s3rr72frWkZERQwcHKZsXiUSmXnmEUElJSUxMTGBgYHl5eUNDQ3R0NMjmAWBq9PX1jY6O4oCr0WgQQjweD2/y8PBITU3F68PDw1etWoXXd3V19fb2btiwwVKf5eXlfX19eFmhUGRnZ0dHR0dGRhYXF6ekpEyq3hFmNuZVCoXCvXv3enl5RUZGlpWVIRNJvEAg2L59u7+/f0JCAq47jhD66quv1qxZ4+7unpSUhP/Nx44du3Llys9+9jN/f//u7m5LO5piuiMpm+dyuWVlZbGxsX5+fn//+98rKytjYmI8PT3Pnz+P9zV7CFPDA0Kot7f32rVrmZmZDx8+xMks0v0sEolycnIyMzO//vrrixcv4vQZuTUrK0ssFt+8eZM00FdVVXV2dj58+PD8+fP4l5WUzZv1yg8NDWm1WmxSjoyMJOXRIJsHgMmi0Wju3LmTkpJy6NChQ4cOxcbGrly58tC34MBtioODA5aDd3d3d3Z2mjZITk5+8803cSdsNjsjIyMyMhJ9a88Ri8UXLlzIy8vLy8vDAWHCcc74vEq9Xr979+4lS5YIBIKrV68uXrwYrycl8bjBwYMHBQLB8ePHjxw5ghtQKJRr164NDAx4eXmdPHkSIfTll19u3rz59OnTAoEgMDDQ0o6mGO1otPWLL77Iz8//4osvjh079r//+7/FxcV/+MMfPvzwQ3LwRocwtdFjhoeHd+zYsW/fPoFAgEWi5DdQWlq6fv36w4cPBwcHh4eHm+agnz9/vnXrVtJAn5iY6OPjs379evzfjExk8xjSKy+VSslUu4uLC/m7ArJ5AJgsBEHExcXZUsizsbExJyfnwoULjx8/ZrFY+Lxramoi75ilUunVq1cLCgoQQjKZLDc310hyZkhwcPDOnTt37txpGqMsMbP57urqaj6f/1//9V80Gi0sLIxcjyXxCKFHjx4RBHH48GGE0M6dO999912ZTMZms999912EEJ/P9/X1ra2tNe35yZMnZnec7Ag/+eQTLy+vtLQ0tVp94sQJd3f3HTt2HD16VCaT4eyV6SEOHDhg2s+KFSuYTCZCKCwsjM/nkwFaqVRqNBoul0ulUn18fF6+fGm675o1a7BQAxvoTW1nRrJ59K1XfuPGjQghlUpFp9Pxemw91mq1NBoNZPMAMFkYDEZwcHB2djb+iBPZ5KsmGzZswJIsrVa7cuXKqKiolpYWuVzu4OCgVCqHh4fHxsbI9KyTk9PevXtxvpvNZru5ubW0tFh6faCzsxPfiI+Ojtr4SsLMxu7Ozs7g4GBTjQD5s9bV1dXV1bVmzRr8kcvlKhQKNpt97dq1U6dO+fj4ODs7j4+Pm/ZsacfJjhA/yrO3t7e3t8fL+BGiWq2e2iHs7e2VSiX5kcViubq6NjY2BgUFtbW1RUREWNmXNNAbYSSbN/LKM5lMnJXDw6bRaPgLB9k8AEyNjIwMvNDY2IjDtFEDlUqFb3bHx8dpNBqFQnF3d79z546ReNaQ2NjYmzdvWnr+FBwcjI0NVVVVNg5yZmO3n59fT0+PTqezVJA6ICCAy+VWV1cbruzs7Hz//fcbGhpcXV1v3ryJcyYYMhiZ3dEKU4hikz0ERiKRGF04c7ncwcFBsVgcGhpKikcnxPD2ylA2b+qVd3Z2HhkZwcujo6M4kYJANg8AM4ZKpcKm4PHxcVdXV4SQq6vr6OhocHCwVCpdtGgRvq4yxMHBYdOmTdPow5rZfPe6deucnZ1/97vf6XS63t7eyspKowZxcXE0Gu306dMIIY1Gg5/nCgQCrVbLZDJlMpnhizJeXl74vRyckzLd0RKGO9o+eEuHMPusUiAQEAQxOjra3NxspDdra2tLSEjYtm0bfuvTFuzt7fFzSAwpmzfrlXdzc2MwGN3d3QRBNDY24mQUAtk8AMwYQ0NDdDr9+vXrPT093t7eQqGwp6cHJ1h6e3t7enoQQlKpNCcnp7CwkLxZ9/X1NXsVy2AwBgcH8bPK0dFR07hvlpmN3XQ6PTc39969ez4+Pq+99pqptR43KCsr8/f3X7FiRWFhIUIoISFh06ZNgYGBr7/++pYtW8jG77//fmFh4eLFi2tra83uaAnDHSc7eKNDmLXRYy5dulRQUBATE2MkePbx8Tl37ty5c+cuXbpUUVFhy0uZkZGRAoHgwoULOIKTsnlLXvmUlJTnz59fvHiRyWSSr66DbB4AZoKxsTGFQsHlcvfs2ZORkTEwMFBRUbF9+3YnJ6empqbBwUEsjA8KCtq3b9++fXVkNHcAABDUSURBVPvwcykSgiCMZl1wOJydBnA4HKP5ImaZe0/8dxupVFpZWbl9+3YqlapWqysqKlxdXePi4ibVCcjmAWB2EIlEd+/etdIgMTFRr9cPDQ2tXr0aIaRWq2/fvr1+/XpnZ+exsbGKigoKhZKWlmb6yrZCocjNzWUymRwOh3wT/MaNG6+//rrRxfjw8PC9e/d8fX2NJMWYeeSJn0bmoV1+eHiYSqXin1kKhaJSqTw8PCbbCcjmAWB28PHxMfsimRHk684MBuO1117Dyw4ODjt37rS0C4vFevPNN41Wpqenm7Z0c3OzZfb4QppXOSFnz56d6yEYExAQIBQKL126xGKxtFptRETE1CY6gmweAAASmUxGA1/ljEKlUhMSEl69H5DNAwBAAr5KAACABQnEbgAAgIUHxG4AAICFB8RuAACAhQfEbgAAgIUHxG4AAICFB8RuAACAhQfEbgAAgH+iu7ubrD339OnTjo4O6+0JgsjLy7Ox82nzxM/PeZUZGRk//OEPt27dOnOHAGE8AABm4fF42DU8Pj5eX1/P4XCwfoHJZCYnJ+PTFrdUKpV79+7VarWmNUpn1BM/f+dVCoXCsbExS1tBGA/CeACYIaRSqVKpdHd31+v1ZWVlbDZ727ZtTCazublZJpPhGctkVMXlRfv6+nDtQENm1BPPZrMXZK0iEMaDMB4AZognT56wWKyhoaG2tjYvL6+QkJCysrIlS5Z0dnZacg3z+XyJRNLb26tWq3U6XVJSEpaDk0y7Jx7NQr6bTqcLhUK8bChoz8zMXL16taen5wcffICLUHd1dSUnJ7u7u7/++uukJBeE8SCMB4BZo7e3F58sUqnU0dExLi6OQqFoNJr79+97eXmRckFDhoaGent7ExIS9u/fHx4eHhsbaxS40Qx44tFMO8+sUFZWVlZWplKpkpKSoqKijh49mp6enp6eXlRUxOPxduzYgZthYbyvr+/BgwdPnjz5+eeff/nll52dnRkZGVjcjm3uH3744eHDh/Py8o4cOYIDnylGOxqBhfH3798/fPjwnj17iouL8/LyPvzww0OHDpk9BJYw+Pj4GLlpsDBep9Pl5eW5urqSiWYsjN+6dSuXy719+zaHw7EkjNdoNJcvX16+fHliYqJMJluyZAlZ+lUikZhmuqVSKbY9gDAeAF4RgUCwbt06/HBSLBa3t7czGIy4uDgmk9nS0pKTk5OQkBAcHExe1SGE6urqgoOD8XVVf3//+vXr8Xrsidfr9SwWSyaTlZWVpaenW0pdzjtfpRX+4z/+A+d533nnnby8vKioqL6+vo8//tjOzm7lypVkJgGE8YaAMB4AZpS4uLixsTEcu93d3Tds2EChUB4/fuzo6BgfH4/DK4ZMefP5fD8/v7y8PKVSKZFIsL4SLXRPvC14eHgMDQ11d3cHBwebli0FYbwhIIwHgBnFMATR6fSRkZHnz59HR0fb2dnduXNn06ZNphfOOEPi7e1dUVGxdOlSS1fWC8wTjxCi0Wijo6O+vr7Igqy9ra0tODjYw8PDNCcLwngEwngAmDu4XC6DwWhpaZHL5Zs3bxYIBF5eXvjGGiOXy/Fjp8WLF9fV1ZEyM1MWmCceIRQUFFRWVqZUKn/1q18ZvoWen5+v0+mam5u/+eabt99+e+3atSqV6m9/+xtCqKKiorGxEYEwHoTxADBH0Ol0BoMhlUp5PF5oaGhSUlJtbW1TUxNOSxIE0d7enp+fX1BQoFQqdTrd48ePnZ2d6+vryR4WticeIXTy5Mnf//73K1euDAoKItMOCCE+nx8aGpqamvrJJ59s2bKFxWLl5OScPn3a19c3MzNz8+bNCITxIIwHgDnCz88vNDSUyWT6+fk1NTXdvHnT0dFx27ZtVCpVLpcrFIrm5ubIyMj9+/drtdrc3Fx3d/d9+/a9fPmyqqoKn4wz7okXiUR7/tqKZtcTz+Vyi4qKoqOjZ+2Icw4I4wFgQSCTyR49epSSkoIQKikpcXJyCgwM9PLyMgy4w8PD5JQ6nLrEN9larfbRo0dLlizhcrlG3U6vJ/76O6E0LpeLUOu0/bvnByCMJwFhPABMCjabjQM3QsjSZBzDudCkJx4hRKPRLNXYmF5PPJfL/W6e0iCMJwFhPAB8J5mb2G3jxKHvEiCMBwBgGoEasAAAAAsPiN0AAAALD4jdAAAACw+I3QAAAAsPiN0AAAALD4jdAAAACw/q/PRVAgAAAJaYv75KAADmBFzmzHS9nZ1dUlKS7f08efJEJBLR6fT169fjuqarVq3C08QKCgq2b99udq/e3t7x8XGyjNrUqK+vp9Foy5cvn9shzejhZtxX+Youduu2+KNHj/7617829PBOL5OVuE+v9B387sBcMTg4mJGRYbSSNMVIJJLi4mLDTaOjo46OjmTdhbS0NKz72L59e0lJiVqtxnqp8fHxpqYmHx8ftVqNENLpdJmZmVgzsnv3bjc3N6VS+eDBAycnpyVLlkxN4YjR6XRmd5/lIc304WY2dr+ii926Lb6oqOiDDz6wtHVqLnlDL/uEEncjpix9RwgJhcK6ujqRSHTw4EGszgG/OzBXjI+PV1RUGK3EtfEQQs7Ozvv37ydX3r17F5vUbQltCoWC7Ach5OHh8dprr+Xn57u5ucnl8tu3b69bt06lUpWUlGzZssWoFKpEIqmoqBgbGwsICEhISDA6XHd398OHD/GySqWiUCgNDQ34Y0xMjJX6P68yJJFIVFdXJxQKydN2Rr8BI2Z8TvzsuNhNmZpL3sjLbl3ibsrUpO8IISaTGR4eTkqZEULgdwfmCnt7e9P0iKGhESORSEpLS1UqVXR0dEVFha+v7xQuNTo6OsLCwtra2mpraxMTE3HZZCaTefPmzfj4eOxswZSWlq5evRr7ABoaGoyqkAYGBpJXRbg0NJb5TgHbh8RgMMLCwnp7e6d2oMkezogZf8+EdLF/9NFHvr6+ISEhv/zlL620N2uLt26CN91qo0veSJ5g6mW3InEvLS0l66xLpdJz584RBDE16TtCyN3d3TRzAn53YE5QKBRlJhheLY6MjNy5cyc/P3/NmjUREREUCmXDhg1yuTw3N7evr29SxxodHXVwcGCz2ZGRkY8fP75w4cL58+efPn0aFxfH4XDIZkNDQxqNJjg4mEKhREVFtbW14fVm/SeviI1DQhZO28kOyfbDGTFLtahqa2u//vrr9vZ2JpNZU1NjqZlerze1xVs3wZvdaotL3lT0buplN8RI4h4aGvrs2bMVK1agb+usGl1xTE36bgj43YHZh0Kh/OAHP7DSQCQSlZWVRUVFYVEq1uwxGIzY2FiJRHL37t3ExMTh4eHe3t5bt27JZLI7d+5oNBo7OzsKhWL6CC4mJqagoOD111/39vZevnw5j8fT6XT4tDJEKpWSDl8XFxccHMlTWKVSlZWVkY2NciYIoeTkZKlUOr1DMgs5pIGBgZk+3CzFbpzNKS4u3rdvn5VyejU1Naa2eOsmeFs88ZbamBW9W8JI4u7v719ZWYlt7nw+3/S7noL03QjwuwOzzMDAwL1798iPKpVKp9MZJvo2bNjg4+Nz6NAhsjilq6sruezs7Lxr1y6EkJubW1dX16ZNm0pKSlavXt3X1+fo6IgQMv17ptFoTk5O9+7de/nyJUJIqVQSBIEvq2NiYsg0iEqlwrIxhBCDwdBqtVqtlkajkacwudDU1PTgwQOEUHx8vGGg9PT0nN4hmcVwSDN9uFmK3YsXLy4tLT1+/PiJEyc+++yzbdu2mW1m1hZvXdNui8R9ulzyGCxxp1KpISEhHR0dUVFRw8PDRnoz0/am642k76aA3x2YZTw9Pffu3SsQCIaGhlauXNnR0TE0NGRqd7Kzs7t8+TKNRiPvNaurqwmCkMvlb7/9Nl6j1WpxtNXpdGTYNUWv14+Ojm7ZsgVf3OCrzsjISKNTg8lkajQavKxWq2k0mlmdiEgkamhoiIiIoNFoz549c3Z2NrT9Te+QJmSmDzd79bsTEhIqKyuLi4vfeOMNsVhs1n5r1hZvXdNuZevUXPK2a4hDQ0Pv3r3r5ubm5+dn4/+rJem7WcDvDswJra2t5JVNa2sr+Qh9+fLlYWFhZLNdu3YZBlCdTmf4PJO0MpIhDCG0aNEioyuz8vJyDw8PJyenqqoqsvO7d+9GREQYhl0nJyecnEEIjY6Omj0vBgcH79y589prr/X09NDp9K1bt5aUlKSmppJZ4+kd0oTM9OFmaV5ldXU1fuEfP/wlf0KNMGuLt6RpZzAYGo3G0lZbXPKmTxWMvOzW4XA4BEHweDwbXwWxJH23BPjdgdlHrVb39fV1dHTgP87Q0NA932IYuCeEvHLCb3/j5cjISDJtjUlJSUlISOjt7ZXL5aQFMCYmpqqqytC3y+Fw6HR6d3c3QRCNjY1kMoQ8hRsaGgoLCzdu3EheDHE4nMTExIKCAjLxPb1DsgQ5pBk9nEwmo87OvEoGg/HHP/5x6dKliYmJn3/+uaXnp2Zt8ZZM8AcOHDh+/LilrRO65M2K3o287BMSGhra39/v5+dnS2NL0neEUHZ2dlZWFkLo6tWr169fxyvB7w7MPg8fPoyMjExISLh161ZPT49Op7OUuLt169Z1A27evEluUigUTCYTIaTX6wcGBry8vKxn/xobG/FjMBytnJycQkJCDF+ZRQilpKTU1dVdvHiRwWDgKSPkKdzT09PW1rZ7926jM9Hf33/Xrl0tLS0CgWAmhmR62pJDmonDGcJmsykEQWDx8Gx64r8ztLa29vb2btmyZQr7Wpe+g98dmH2EQiGPx9u6dSuVSh0ZGWlubn758qVarSbjTnx8PI6PpaWlSUlJhn+cer2+pKQEi3d7e3u1Wi2fz8fTF7hc7osXL+Li4hYtWnT79m2CIHbs2KHX6x88eIBnXOP0QmFhIYVCiYuLs31CnOHRybxlfX09nU5ftmyZ4aZZHtLMHY4M13MWu+ehyn2yjI+P5+XlJScnT+FPDVNfX79o0SKzryR2d3cPDw+vXr361cYIAMB3CjJcz9k13TxUuU+Kpqamp0+fRkVFTTlwI6vSd/C7AwBgBRpCyJ5hN67Wjat19gwQitvK8uXLTQuVTRYrBnfwuwMAYMSYSocQYjGoCM+J93BkIIReytVzOywAAADACoNyFUKI48BAOHb7uNojhJrFIGEAAACYv7wQyRBCXOdvY3dCiBtC6G6Lre81AwAAALNPZesQQmhtoDPCsXtjmDuVQrnbPNg7PD7HQwMAAADMIRxR3msdtKNS4pc4IzyvkkVRb4vgaPXE/9zunOvhAQAAAGb4P6UdGh3xWgTH3ZHxj3mVbDb7J8khLIbdnebB848Ecz1CAAAA4J8490BQ2TrowLR7L3kpQojNZv/j5WIPNvNE+jIqBX1Z3pn1EMI3AADAfOHcQ8FXFZ1UCjqRvszd8R8iNIphZbvL1cLPS9r1BNoU5v7T5GA/N/s5GioAAACAeofHvyjrrGwdpFLQz1JDvrfGFyGE9QMUo5KnVW1DH19/oVDraFTKpjD3jWHu4VxHTzYTpu0AAADMAuNq3YBM1SyW320ZrGwZ1OoJB6bdifRliUv/UcLPfOxGCI0qNP+3vC23YVCnt7WSNQAAADDtUCloW6TXseRgMlWCrMRuvG2cYNxrHapqGxKNKgdkqnH1xIVrAQAAgFfEnmHn4Uj3c2MlhHA2hnE82EyjBv/QOhLmkEqlZtdjRCKRla3W9525ra2trfNwVPBd2b4Vvivbt8J3ZfvW7+p39f8AGoGH2e4Oxm0AAAAASUVORK5CYII=;fontSize=10;" vertex="1" parent="1">
          <mxGeometry x="90" y="80" width="229" height="180" as="geometry" />
        </mxCell>
      </root>
    </mxGraphModel>
  </diagram>
</mxfile>
